<?xml version="1.0" encoding="UTF-8"?>
<svg width="201px" height="498px" viewBox="0 0 201 498" version="1.1" xmlns="http://www.w3.org/2000/svg" xmlns:xlink="http://www.w3.org/1999/xlink">
    <title>Avatar 3</title>
    <g id="Redesign-Webseite" stroke="none" stroke-width="1" fill="none" fill-rule="evenodd">
        <g id="Avatar-3" transform="translate(0.8588, -0.3431)">
            <path d="M87.9151594,1.25314139 C90.0961594,0.925141392 90.9421594,0.682141392 92.6331594,2.08314139 C92.4681594,5.50914139 88.4061594,8.71914139 85.7991594,11.3341414 C91.8151594,8.62914139 124.079159,-2.14385861 125.499159,7.43514139 C124.720159,9.60214139 122.665159,10.8531414 120.781159,12.3771414 C135.366159,11.9501414 152.987159,15.2491414 164.123159,26.1331414 C164.866159,26.8591414 164.563159,27.5461414 164.345159,28.3381414 C161.356159,30.6961414 158.116159,30.1401414 154.327159,30.0191414 C161.427159,35.7171414 167.424159,42.6831414 171.856159,50.6471414 C173.991159,54.4831414 179.788159,66.8781414 176.912159,71.0301414 C175.189159,71.5951414 174.595159,71.0551414 172.594159,70.4941414 C171.919159,71.4561414 172.706159,75.2151414 172.916159,76.6571414 C175.326159,93.2201414 172.501159,108.831141 169.704159,125.164141 C170.325159,125.456141 170.934159,125.774141 171.528159,126.119141 C183.119159,132.722141 178.392159,152.407141 172.118159,161.145141 C166.947159,168.348141 166.673159,173.018141 157.455159,167.443141 C151.112159,191.722141 136.299159,207.193141 113.369159,216.666141 L113.552159,223.528141 C120.728159,225.497141 139.861159,229.287141 145.362159,233.254141 C161.645159,244.996141 194.603159,272.019141 199.746159,291.669141 C196.236159,307.848141 172.712159,327.978141 160.500159,339.439141 C162.127159,342.188141 162.351159,344.544141 163.667159,346.589141 C178.074159,350.072141 175.336159,375.826141 152.950159,369.572141 C155.019159,399.083141 146.066159,446.083141 141.014159,476.543141 C144.194159,477.783141 147.278159,479.263141 150.243159,480.953141 C160.674159,486.993141 164.801159,495.163141 149.353159,497.523141 C141.764159,498.683141 114.964159,497.283141 109.071159,492.253141 C104.167159,488.073141 103.429159,468.843141 102.953159,461.893141 C102.231159,450.823141 101.452159,439.763141 100.616159,428.703141 C100.537159,423.813141 99.7641594,417.173141 99.3011594,412.153141 C98.2261594,421.283141 95.1291594,482.173141 93.4631594,485.063141 C90.5231594,486.613141 90.6571594,487.083141 90.5601594,490.243141 L90.5461594,490.923141 C87.0621594,496.713141 60.3281594,498.593141 53.3801594,497.813141 C24.8551594,494.583141 44.1941594,481.803141 57.7471594,476.603141 C52.9381594,451.573141 49.4691594,423.143141 46.2261594,397.743141 C44.9531594,388.013141 45.7881594,378.243141 45.3601594,368.481141 C45.2391594,367.373141 40.2561594,367.929141 39.0721594,367.890141 C24.7871594,367.420141 21.9771594,346.496141 36.0071594,343.980141 C36.6621594,341.708141 37.4681594,339.413141 38.2201594,337.166141 C28.8541594,328.972141 2.95415945,304.843141 0.29215945,294.019141 C-4.07384055,276.275141 41.7231594,239.334141 55.5471594,231.120141 C59.4661594,228.792141 77.8191594,224.696141 82.6671594,223.313141 L83.0901594,214.241141 C61.5781594,203.585141 53.1811594,193.567141 43.7201594,172.112141 C43.1591594,172.552141 42.5901594,172.983141 42.0131594,173.403141 C37.7901594,176.466141 34.3061594,177.424141 30.4881594,172.902141 C22.9751594,164.002141 16.1541594,156.852141 17.2901594,144.130141 C17.7451594,139.027141 19.8591594,136.051141 23.9651594,132.760141 C14.7861594,110.774141 2.03815945,59.4731414 27.4961594,44.6181414 C24.8591594,41.2641414 20.1521594,35.3411414 23.8911594,31.3071414 C27.1791594,30.4761414 32.7931594,34.5521414 37.2681594,36.3031414 C37.8461594,26.2751414 40.5401594,16.9001414 48.5471594,9.88214139 C49.5011594,9.04614139 49.8771594,9.27514139 50.8961594,9.49014139 C52.9151594,12.2831414 51.9561594,15.6301414 51.4331594,18.9851414 C61.4531594,8.91114139 74.3841594,4.31914139 87.9151594,1.25314139 Z" id="Path" fill="#000000"></path>
            <path d="M123.552159,230.638141 C127.604159,231.991141 137.270159,233.969141 140.591159,235.991141 C158.086159,246.641141 177.909159,266.058141 190.254159,281.895141 C178.623159,281.404141 174.250159,282.812141 166.685159,291.923141 C159.914159,285.509141 152.690159,280.203141 146.175159,273.527141 C142.442159,269.702141 141.450159,257.643141 136.489159,259.022141 C135.650159,261.036141 139.057159,270.075141 139.904159,272.431141 C144.241159,284.504141 142.930159,289.607141 136.599159,300.311141 C131.900159,308.256141 137.484159,323.604141 140.344159,332.224141 C136.845159,340.988141 138.884159,345.838141 142.705159,354.028141 C112.231159,360.708141 88.2041594,360.638141 57.8741594,353.954141 L56.7551594,353.510141 C55.7511594,349.627141 63.3501594,342.819141 58.5741594,330.045141 C63.4781594,315.707141 66.3121594,307.130141 57.3211594,293.875141 C49.9171594,282.959141 59.9201594,269.089141 61.0571594,258.748141 C60.2711594,257.732141 60.7851594,258.102141 59.2941594,257.904141 C55.6791594,259.740141 54.7181594,269.219141 50.7851594,273.723141 C45.3041594,279.999141 39.0061594,285.042141 33.0441594,291.053141 C26.0631594,282.044141 19.0021594,279.877141 8.05815945,281.512141 C19.8801594,265.816141 39.4261594,246.943141 56.2241594,236.244141 C59.7411594,234.004141 68.5781594,231.845141 72.8661594,230.709141 C80.4451594,259.294141 116.217159,261.028141 123.552159,230.638141 Z" id="Path" fill="#8F8E8E"></path>
            <path d="M54.0021594,357.486141 C87.9761594,365.494141 109.894159,365.742141 143.937159,358.208141 C148.429159,364.722141 147.843159,367.438141 148.153159,375.065141 C142.218159,370.457141 141.905159,366.790141 137.136159,361.716141 C136.658159,361.208141 136.120159,361.541141 135.472159,361.716141 C134.488159,364.112141 135.503159,366.967141 136.685159,369.184141 C139.516159,374.495141 142.587159,377.112141 148.336159,379.003141 C147.892159,413.433141 140.426159,443.483141 136.268159,476.583141 C126.059159,477.393141 119.057159,481.673141 109.380159,482.843141 C108.184159,474.483141 107.787159,463.583141 107.220159,455.013141 L104.335159,413.573141 C103.436159,406.733141 102.877159,395.723141 102.492159,388.813141 C105.771159,388.603141 109.150159,389.183141 111.202159,386.623141 L110.954159,385.523141 C108.982159,384.673141 91.3541594,384.503141 88.5691594,384.663141 L87.7111594,386.273141 L88.1221594,387.303141 C90.2281594,388.333141 93.6191594,388.583141 96.0501594,388.933141 C94.6671594,410.493141 93.1431594,432.043141 91.4801594,453.583141 C90.9261594,461.253141 90.5941594,475.683141 89.0281594,482.413141 C85.4181594,483.113141 69.5561594,477.303141 62.8271594,476.283141 C60.8051594,468.643141 59.2771594,455.793141 57.9631594,447.593141 C54.2951594,424.693141 51.1591594,402.183141 50.1181594,378.973141 C56.0751594,376.520141 65.3381594,368.632141 63.1391594,361.495141 L61.9221594,361.069141 C59.0661594,362.076141 56.4191594,369.874141 50.9981594,374.382141 L50.3801594,374.891141 C50.2561594,366.435141 49.7801594,364.633141 54.0021594,357.486141 Z" id="Path" fill="#383738"></path>
            <path d="M83.8701594,6.25014139 L84.7641594,6.29614139 C85.0881594,8.52114139 77.9561594,13.0291414 79.4671594,16.9781414 C83.3601594,18.7321414 92.8361594,11.9621414 97.8761594,10.6721414 C105.865159,8.62814139 111.519159,8.00914139 119.618159,7.85514139 C117.111159,9.93014139 113.575159,12.1631414 113.463159,15.5421414 C114.051159,16.2241414 114.423159,16.7841414 115.478159,16.6981414 C132.151159,15.3451414 143.309159,17.1691414 158.166159,26.3171414 C154.791159,26.3621414 150.526159,25.8751414 148.161159,28.1441414 C147.585159,30.9251414 150.874159,32.5811414 153.298159,34.6131414 C164.347159,43.8761414 169.315159,53.0721414 173.899159,66.3841414 C171.608159,64.8971414 170.249159,63.4531414 167.486159,64.3351414 C165.283159,67.5211414 168.586159,72.9521414 169.120159,77.2701414 C170.891159,91.5971414 168.920159,106.642141 166.437159,120.659141 C165.179159,118.860141 163.772159,117.138141 162.409159,115.414141 C162.315159,108.466141 164.842159,99.1891414 158.474159,95.0661414 C157.679159,89.2131414 156.322159,81.9371414 155.013159,76.2011414 C154.153159,75.3241414 145.822159,74.1581414 144.323159,74.2321414 C138.514159,74.5221414 126.810159,62.7761414 123.337159,64.3141414 L122.999159,65.6761414 C123.478159,68.9861414 132.944159,76.2311414 135.873159,78.7451414 C118.696159,78.2811414 104.874159,73.6121414 91.7961594,62.5941414 C90.4211594,61.2621414 89.4631594,60.7261414 87.6321594,60.8841414 C83.5541594,64.8921414 95.2261594,77.0631414 98.2991594,80.4661414 C86.7111594,78.1821414 78.5181594,74.5301414 70.3791594,65.6021414 C66.4851594,61.3301414 64.3101594,56.8311414 61.1161594,52.1411414 C59.0981594,52.5161414 58.8141594,56.0061414 57.4091594,56.3211414 C28.6091594,62.7821414 32.1051594,98.4481414 35.8291594,120.420141 C32.8941594,124.192141 30.3061594,126.839141 27.3851594,130.979141 C26.3461594,128.237141 25.3811594,125.468141 24.4931594,122.675141 C18.7281594,104.336141 12.0011594,74.4421414 21.0121594,56.4551414 C24.6631594,49.1691414 29.3571594,48.1771414 36.3331594,46.1191414 C30.8951594,41.4091414 29.7261594,41.8491414 25.5351594,35.2381414 C33.1211594,38.2771414 31.8661594,39.2241414 41.4591594,40.9431414 C41.0141594,28.8131414 41.6181594,25.7321414 48.2151594,15.3041414 C47.4021594,18.9721414 45.5891594,25.1111414 47.5831594,28.2421414 C47.9761594,28.3831414 48.3681594,28.5241414 48.7601594,28.6651414 C51.5401594,25.7541414 54.1681594,21.5441414 57.1611594,19.0811414 C65.3391594,12.3531414 73.8561594,8.93214139 83.8701594,6.25014139 Z" id="Path" fill="#6F8092"></path>
            <path d="M100.161159,131.502141 C100.528159,131.968141 107.409159,148.395141 107.406159,148.667141 L106.538159,148.837141 C104.066159,147.371141 102.960159,144.569141 100.705159,142.578141 C100.754159,144.509141 100.815159,146.947141 100.889159,149.892141 C102.098159,152.032141 106.914159,151.349141 108.703159,154.457141 C109.239159,160.651141 101.059159,159.931141 99.3431594,162.574141 L99.5981594,163.482141 C106.562159,167.987141 110.722159,159.766141 113.024159,154.309141 L113.210159,153.858141 C126.828159,157.528141 145.985159,160.986141 155.647159,147.691141 C154.157159,159.849141 152.836159,172.911141 146.102159,183.408141 C134.414159,201.626141 115.345159,217.476141 92.6631594,212.449141 C67.6061594,205.893141 55.4411594,188.169141 46.1331594,165.753141 C44.9881594,166.835141 44.0251594,168.009141 42.5361594,168.353141 C38.0471594,166.577141 39.4051594,158.380141 30.1581594,166.136141 C23.5941594,160.052141 20.3721594,151.045141 22.0541594,142.124141 C22.3601594,140.499141 24.1271594,136.229141 25.6841594,135.933141 C36.7641594,133.567141 44.3701594,152.143141 50.3851594,157.174141 C57.4771594,163.105141 80.3441594,160.010141 87.7091594,155.823141 C95.5061594,151.390141 97.9581594,139.198141 100.161159,131.502141 Z" id="Path" fill="#FFFFFF"></path>
            <path d="M99.7751594,171.199141 C111.559159,169.933141 117.506159,171.699141 127.225159,177.821141 C126.454159,179.019141 125.654159,180.199141 124.825159,181.357141 C119.986159,188.021141 113.446159,190.450141 105.641159,191.657141 C95.1791594,192.754141 84.1181594,189.420141 78.0841594,180.443141 C85.3641594,174.209141 90.2881594,172.657141 99.7751594,171.199141 Z" id="Path" fill="#000000"></path>
            <path d="M118.527159,180.822141 L121.171159,180.622141 L121.596159,181.296141 C113.666159,190.956141 99.4021594,189.580141 88.8521594,186.439141 C85.8771594,185.146141 84.4351594,184.176141 81.7181594,182.425141 C94.6121594,183.100141 105.762159,182.317141 118.527159,180.822141 Z" id="Path" fill="#EFD3D0"></path>
            <path d="M99.7531594,174.019141 C107.920159,173.027141 114.460159,173.944141 121.823159,177.379141 C117.004159,178.327141 110.676159,178.805141 105.692159,179.321141 C98.1871594,179.832141 90.4221594,179.656141 82.8811594,179.602141 C88.9071594,176.146141 92.9461594,175.058141 99.7531594,174.019141 Z" id="Path" fill="#EFD3D0"></path>
            <path d="M26.6851594,141.535141 C33.4151594,142.340141 40.8291594,150.760141 41.3051594,157.372141 L40.6381594,158.044141 C38.5331594,157.019141 38.4031594,156.100141 36.9051594,153.960141 C35.7031594,156.747141 36.3481594,158.396141 34.8671594,160.603141 L33.5641594,160.320141 L32.8881594,159.169141 C32.8341594,156.346141 33.8121594,154.716141 34.6271594,152.034141 C35.8541594,148.000141 26.6921594,145.310141 25.5971594,143.447141 L26.6851594,141.535141 Z" id="Path" fill="#000000"></path>
            <path d="M71.6271594,100.382141 C75.5331594,99.8541414 90.0901594,99.3841414 91.5621594,101.650141 C98.0501594,111.639141 92.9631594,138.981141 86.1311594,147.674141 C82.6001594,152.165141 71.7151594,152.803141 67.8811594,153.039141 C51.3121594,152.975141 50.0191594,145.784141 46.0391594,130.718141 C44.8571594,126.244141 42.1471594,111.918141 44.7631594,108.664141 C49.5231594,102.742141 64.2531594,101.189141 71.6271594,100.382141 Z" id="Path" fill="#FFFFFF"></path>
            <path d="M70.7761594,116.042141 C75.9331594,115.743141 88.5711594,117.596141 87.8311594,123.734141 C86.4351594,135.308141 72.3301594,136.812141 75.1031594,120.576141 L75.2321594,119.842141 C69.2061594,119.764141 62.1111594,120.690141 57.9861594,125.978141 C56.4841594,127.904141 56.9201594,129.343141 54.8521594,130.539141 C53.6681594,129.475141 53.7221594,129.139141 53.4171594,127.589141 C54.6891594,120.895141 64.7311594,117.051141 70.7761594,116.042141 Z" id="Path" fill="#000000"></path>
            <path d="M120.505159,98.1441414 C126.942159,97.5131414 151.956159,97.7851414 153.572159,105.485141 C155.730159,115.766141 153.907159,132.654141 149.571159,142.309141 C147.798159,146.256141 143.445159,147.782141 139.670159,149.018141 C115.342159,153.658141 110.391159,143.743141 105.636159,121.106141 C104.633159,116.334141 102.992159,105.534141 105.521159,101.459141 C107.308159,98.5801414 117.015159,98.4091414 120.505159,98.1441414 Z" id="Path" fill="#FFFFFF"></path>
            <path d="M129.742159,113.778141 C137.485159,113.581141 139.239159,115.025141 146.094159,118.596141 C144.481159,122.881141 144.253159,129.094141 138.830159,130.299141 C132.805159,129.187141 133.342159,121.485141 132.057159,118.065141 L130.989159,117.743141 C120.882159,118.669141 119.605159,122.137141 113.376159,127.995141 L112.695159,127.484141 C111.784159,119.785141 123.635159,115.029141 129.742159,113.778141 Z" id="Path" fill="#000000"></path>
            <path d="M183.684159,285.862141 C216.815159,285.104141 161.767159,332.461141 154.342159,338.988141 C163.300159,348.742141 156.685159,355.882141 159.948159,360.229141 L161.030159,359.901141 C163.969159,356.424141 162.445159,356.301141 164.136159,351.778141 L165.050159,351.714141 C166.854159,353.310141 167.260159,354.776141 168.166159,356.971141 C168.393159,358.033141 168.794159,360.271141 168.142159,361.147141 C155.688159,377.723141 146.690159,354.192141 143.776159,343.986141 C140.968159,334.155141 150.630159,326.391141 155.264159,318.230141 C158.507159,312.517141 162.862159,306.714141 166.213159,300.919141 C170.988159,292.664141 174.165159,288.061141 183.684159,285.862141 Z" id="Path" fill="#FFFFFF"></path>
            <path d="M8.52615945,285.400141 C9.53015945,285.250141 10.5401594,285.145141 11.5531594,285.084141 C15.3971594,284.862141 22.7021594,286.263141 25.2241594,289.464141 C35.7871594,302.838141 44.8701594,319.167141 54.7291594,332.983141 C59.0501594,339.038141 47.7921594,376.149141 31.3041594,358.659141 C30.6581594,356.035141 31.7551594,348.069141 35.3611594,348.685141 C36.8391594,352.404141 32.7421594,354.606141 39.5101594,357.955141 L40.4251594,357.627141 C42.5521594,348.807141 36.5361594,346.002141 44.5231594,336.916141 C31.1571594,324.129141 15.7161594,311.729141 5.90415945,295.773141 C3.09315945,291.202141 3.33915945,287.470141 8.52615945,285.400141 Z" id="Path" fill="#FFFFFF"></path>
            <path d="M59.0541594,59.7311414 C62.2521594,59.8771414 62.7771594,62.9051414 65.2561594,66.0691414 C70.8251594,73.0831414 78.1981594,78.4471414 86.5851594,81.5871414 C90.4301594,83.0191414 102.471159,86.3221414 104.200159,81.0111414 C103.141159,78.9551414 97.8491594,74.2341414 95.5771594,71.1651414 L95.1311594,70.5541414 C102.433159,75.2031414 107.095159,77.1811414 115.137159,79.7071414 C112.607159,87.1501414 117.404159,87.6861414 123.319159,89.9651414 C112.341159,90.7581414 100.486159,93.0291414 89.7581594,92.4011414 C81.2651594,92.0831414 72.7591594,92.4271414 64.3191594,93.4291414 C69.5471594,91.2091414 78.6331594,90.3791414 79.8871594,84.4581414 C79.4351594,82.8261414 79.5411594,82.7491414 78.2011594,81.6331414 C75.2601594,81.7031414 55.7621594,89.1101414 54.1131594,91.1411414 C47.9721594,98.7051414 45.9951594,97.0341414 37.3561594,101.552141 C37.1511594,84.1181414 38.7101594,64.1111414 59.0541594,59.7311414 Z" id="Path" fill="#FFFFFF"></path>
            <path d="M87.5491594,215.823141 C95.9811594,218.471141 99.9091594,219.069141 108.662159,218.135141 C110.271159,238.232141 112.145159,225.625141 118.671159,229.695141 C120.471159,235.760141 112.149159,243.349141 107.416159,246.120141 C94.9721594,250.790141 76.3071594,243.410141 78.2181594,229.142141 C80.9021594,226.773141 82.5741594,229.797141 85.8251594,229.782141 C87.1381594,227.045141 87.3371594,219.260141 87.5491594,215.823141 Z" id="Path" fill="#FFFFFF"></path>
            <path d="M147.201159,281.255141 C150.884159,283.309141 160.720159,292.820141 163.940159,296.023141 C159.032159,304.006141 154.021159,311.926141 148.909159,319.781141 L143.866159,326.902141 C140.740159,317.771141 139.670159,313.761141 139.783159,304.146141 C145.183159,295.184141 146.951159,291.651141 147.201159,281.255141 Z" id="Path" fill="#FFFFFF"></path>
            <path d="M49.8291594,281.774141 C52.4141594,306.125141 63.3341594,298.022141 54.9761594,325.306141 L49.9621594,318.144141 C44.8601594,311.059141 39.8381594,302.532141 35.0351594,295.063141 C39.7481594,290.396141 44.6861594,285.961141 49.8291594,281.774141 Z" id="Path" fill="#FFFFFF"></path>
            <path d="M59.3121594,480.983141 C64.2631594,480.203141 82.6391594,485.293141 85.8121594,488.453141 L85.7421594,489.393141 C83.1451594,491.323141 75.3841594,491.753141 71.8201594,492.143141 C67.4111594,492.863141 44.6341594,495.743141 44.2111594,489.703141 C46.2601594,486.093141 55.3951594,482.413141 59.3121594,480.983141 Z" id="Path" fill="#383738"></path>
            <path d="M134.349159,481.083141 C142.664159,480.333141 150.644159,485.263141 155.639159,491.633141 C147.604159,493.963141 141.508159,493.533141 133.259159,492.953141 C129.062159,492.723141 115.091159,491.563141 112.701159,488.503141 C114.193159,485.903141 130.622159,481.963141 134.349159,481.083141 Z" id="Path" fill="#383738"></path>
            <path d="M167.685159,128.867141 C178.485159,132.453141 174.375159,154.662141 167.984159,158.637141 C163.820159,156.869141 162.772159,156.888141 159.009159,159.386141 L158.424159,159.778141 C158.719159,157.229141 159.172159,150.962141 160.900159,149.220141 C162.085159,150.427141 162.001159,151.677141 162.227159,153.414141 L162.526159,154.440141 L163.720159,154.362141 L164.592159,153.136141 C165.229159,149.308141 164.389159,148.440141 162.660159,144.890141 C164.458159,141.897141 169.795159,137.305141 170.005159,136.348141 C168.690159,135.049141 169.462159,135.441141 167.582159,135.185141 C164.044159,136.831141 162.266159,139.886141 160.068159,143.043141 C160.001159,135.237141 159.059159,131.478141 167.685159,128.867141 Z" id="Path" fill="#FFFFFF"></path>
            <path d="M140.195159,76.9271414 C143.439159,77.7091414 147.514159,78.3541414 150.851159,78.9731414 C152.516159,83.8111414 153.677159,88.8081414 154.315159,93.8851414 C151.452159,93.2741414 144.555159,92.1441414 142.738159,90.1631414 C141.836159,89.1801414 142.167159,89.4441414 140.767159,88.5261414 L140.444159,88.3171414 C133.728159,85.4911414 127.156159,84.3371414 119.936159,80.9621414 C120.325159,81.0331414 120.714159,81.1001414 121.104159,81.1641414 C126.193159,81.9951414 135.857159,83.6831414 140.022159,80.6871414 C140.866159,78.7941414 140.589159,79.3441414 140.195159,76.9271414 Z" id="Path" fill="#FFFFFF"></path>
        </g>
    </g>
</svg>