<?xml version="1.0" encoding="UTF-8"?>
<svg width="286px" height="498px" viewBox="0 0 286 498" version="1.1" xmlns="http://www.w3.org/2000/svg" xmlns:xlink="http://www.w3.org/1999/xlink">
    <title>Avatar 4</title>
    <g id="Redesign-Webseite" stroke="none" stroke-width="1" fill="none" fill-rule="evenodd">
        <g id="Avatar-4" transform="translate(0.1118, 0.9285)">
            <path d="M66.7661803,11.1625356 C73.0151803,7.79953565 96.9061803,-3.52946435 102.54818,1.09253565 C103.40718,4.26953565 101.26718,5.58353565 99.2501803,7.84853565 C110.15018,5.58353565 140.12418,2.35953565 146.74018,12.2025356 C146.67718,16.4635356 142.48518,14.4835356 141.94818,16.9705356 C144.66518,19.8095356 149.30318,21.4805356 151.80618,23.7845356 C156.33718,27.9545356 169.06718,42.0595356 166.93518,48.2575356 C164.44618,50.2425356 163.53418,49.4205356 160.67918,48.5295356 C170.65418,68.4895356 170.20318,88.7425356 168.75218,110.571536 C182.00518,115.932536 180.24018,133.021536 175.70318,143.921536 C172.22118,152.289536 176.65718,152.945536 164.80318,154.406536 C163.85318,158.602536 163.84618,162.450536 162.81718,166.291536 C158.09918,183.415536 147.19618,198.179536 132.22018,207.726536 C129.58518,209.401536 121.47618,212.759536 120.90218,213.535536 C120.75618,215.745536 120.59518,216.041536 121.65318,217.856536 C124.35118,219.718536 128.06418,218.830536 131.62918,218.927536 C158.00818,186.971536 176.88918,154.579536 198.45318,119.434536 C207.55818,104.595536 218.33218,89.2685356 227.96318,74.6055356 C222.31418,66.5955356 223.28418,62.1485356 219.33918,54.2335356 C217.77018,51.0865356 208.15518,48.0855356 210.73818,41.6925356 C215.01218,31.1135356 227.26218,36.6975356 231.37218,44.1985356 C231.74018,44.8625356 232.08918,45.5365356 232.42018,46.2195356 C235.84518,36.6745356 239.30418,27.1925356 244.54118,18.4645356 C248.60118,11.6975356 257.92418,7.55153565 258.62518,18.7155356 C261.76318,18.2865356 265.54418,9.65153565 272.01618,14.1645356 C275.09318,16.3105356 272.58718,21.5335356 274.48618,24.4365356 C276.30518,25.4045356 278.77218,26.4275356 279.21718,28.4415356 C279.97718,31.8885356 277.41218,37.6305356 276.02218,40.6715356 C279.29918,40.1445356 281.78218,39.7915356 284.68818,41.8375356 C288.71518,49.6535356 272.68318,58.1125356 269.64318,62.5885356 C261.81918,74.1085356 262.49918,82.4965356 246.77018,85.5135356 C224.88918,143.097536 188.86518,201.684536 156.22318,253.851536 C161.15418,260.938536 165.25218,266.938536 163.59418,276.160536 C161.66818,286.869536 152.96418,291.229536 152.26218,302.636536 C150.92018,324.416536 162.26118,343.939536 163.76118,365.742536 C165.08118,384.931536 162.29718,403.131536 159.43818,421.931536 L150.94318,474.631536 C179.50318,485.551536 177.04018,497.911536 146.66718,496.411536 C141.23218,496.141536 124.15318,494.491536 120.13818,491.811536 C112.56918,486.751536 113.32518,464.741536 112.83718,455.591536 L110.39118,416.251536 L108.81718,415.741536 C108.26018,422.961536 104.43318,482.621536 102.28218,484.151536 C101.71818,484.561536 100.96318,484.841536 100.32918,485.111536 C99.6961803,487.841536 100.94618,490.061536 97.9331803,491.501536 C89.3611803,495.601536 78.8661803,495.841536 69.5521803,496.611536 C40.3361803,499.011536 39.2811803,483.921536 66.0751803,474.911536 C59.8841803,441.311536 52.9581803,397.521536 54.3151803,363.706536 C45.4761803,362.819536 38.4701803,358.842536 38.4701803,348.787536 C38.4691803,342.571536 41.2721803,335.948536 48.0671803,334.943536 C48.8721803,334.832536 49.1911803,334.503536 49.6911803,333.936536 C50.0321803,329.762536 40.4041803,325.942536 36.8291803,323.014536 C24.7561803,313.127536 2.04718029,301.505536 0.334180287,284.404536 C0.602180287,275.146536 19.1301803,258.431536 26.4521803,252.662536 C35.5901803,245.460536 56.8601803,226.726536 68.1711803,224.306536 C73.7401803,223.114536 81.9161803,223.126536 90.5741803,220.905536 L90.8321803,210.380536 C71.4651803,202.831536 61.5781803,195.624536 49.9591803,178.133536 C46.9921803,180.540536 43.7141803,183.671536 39.5501803,183.346536 C36.8451803,183.135536 36.0211803,180.767536 34.2131803,179.901536 C23.7341803,174.888536 15.6591803,163.879536 17.2151803,151.918536 C17.7301803,147.965536 19.6281803,145.584536 22.4111803,142.765536 C7.08518029,120.577536 -12.8218197,78.0145356 11.1181803,55.7635356 C8.14518029,52.8555356 2.36918029,47.5835356 5.31418029,43.1765356 C8.55418029,41.4345356 12.1691803,43.7045356 15.2841803,45.1605356 C15.1631803,38.2395356 16.8411803,21.9615356 23.8471803,18.7055356 C27.2341803,19.6295356 26.8241803,25.3105356 26.7681803,28.1995356 C34.8771803,14.0335356 46.9121803,8.18953565 62.1651803,3.26153565 C64.4961803,2.50853565 67.1181803,2.11853565 69.4811803,2.88553565 C72.1981803,5.74653565 68.7841803,8.77153565 66.7661803,11.1625356 Z" id="Path" fill="#000000"></path>
            <path d="M108.81718,415.741536 C109.03018,412.111536 109.49318,409.121536 110.03918,405.511536 C110.17918,408.511536 110.55218,413.401536 110.39118,416.251536 L108.81718,415.741536 Z" id="Path" fill="#8F8E8E"></path>
            <path d="M181.75718,155.919536 C187.93818,160.023536 195.15818,165.908536 200.02818,171.437536 C199.58218,172.284536 199.30018,172.780536 198.62618,173.957536 C184.12518,199.288536 169.03318,224.171536 153.79518,249.045536 C153.46018,249.137536 153.12518,249.230536 152.79018,249.322536 C150.92218,247.678536 150.76218,244.677536 148.97218,241.774536 L148.09718,241.813536 C143.39818,249.869536 156.79218,259.295536 158.77518,267.770536 C161.53518,279.568536 153.80718,283.216536 149.95018,291.494536 C142.60118,307.263536 150.89618,330.918536 155.90218,346.437536 C129.33818,355.694536 96.0221803,356.234536 69.0531803,348.481536 C73.8541803,339.369536 77.1881803,332.280536 70.9901803,322.786536 C74.9201803,313.985536 76.4721803,306.589536 76.8241803,297.055536 C76.8191803,287.612536 72.2741803,276.859536 68.8921803,268.045536 C70.4981803,267.004536 73.0591803,265.916536 73.8951803,264.445536 C73.6141803,262.338536 74.1081803,263.094536 72.6401803,261.939536 C66.4251803,261.687536 42.6461803,279.030536 36.3841803,283.427536 C27.4991803,274.620536 21.2281803,272.682536 9.23018029,276.136536 C22.8721803,259.927536 47.8231803,239.856536 66.9021803,229.733536 C70.1931803,227.987536 80.3291803,228.227536 84.8681803,227.437536 C91.5411803,238.308536 101.14918,247.253536 114.54618,247.020536 C129.16718,246.766536 130.92418,234.741536 130.55418,223.658536 L135.49518,223.141536 C135.57718,222.993536 135.65918,222.846536 135.74118,222.699536 L136.16818,221.973536 C137.70818,219.323536 139.36918,216.986536 141.35818,214.658536 C156.95018,196.410536 168.69818,176.002536 181.75718,155.919536 Z" id="Path" fill="#8F8E8E"></path>
            <path d="M125.61618,287.156536 C128.14318,286.983536 134.56918,286.700536 136.41718,288.496536 C134.79618,289.956536 117.94418,292.109536 112.13418,294.025536 C109.24118,294.806536 105.75918,296.509536 103.03618,294.715536 C104.88418,290.218536 121.33518,287.563536 125.61618,287.156536 Z" id="Path" fill="#000000"></path>
            <path d="M155.95018,351.158536 C157.82018,354.346536 158.58618,365.363536 159.00818,369.437536 C152.75318,364.092536 152.56718,358.763536 147.97118,355.422536 L146.88618,356.207536 C147.25718,365.248536 151.27418,369.540536 158.94418,373.421536 C158.57618,402.201536 152.85018,430.221536 148.46518,458.551536 C147.63618,463.901536 146.71618,469.271536 146.21218,474.661536 C139.64818,475.021536 122.42318,482.291536 119.16918,479.991536 C117.81818,474.241536 118.09918,460.631536 117.54718,453.881536 C115.68818,431.161536 115.60118,406.721536 113.14718,384.191536 C116.33318,383.561536 121.39118,382.951536 123.76018,380.861536 L123.80318,379.641536 L122.52318,378.491536 C119.38418,378.501536 110.25418,380.961536 106.67118,381.821536 C105.87518,393.871536 104.94918,405.911536 103.89218,417.951536 C101.82918,434.911536 100.67618,461.941536 98.6451803,479.851536 C98.3811803,480.191536 98.1171803,480.531536 97.8531803,480.881536 C92.3911803,481.511536 80.2201803,475.721536 70.9621803,474.651536 C65.4321803,442.631536 59.7251803,405.501536 58.9131803,373.181536 C65.2931803,372.611536 69.5611803,370.501536 72.7361803,364.501536 C74.0671803,361.985536 74.9241803,359.300536 74.0451803,356.452536 L73.1961803,356.033536 C67.4221803,358.222536 70.8061803,364.425536 59.1491803,369.568536 C58.9831803,359.069536 61.6341803,361.878536 66.8851803,353.193536 L67.2381803,352.602536 C97.8791803,360.360536 125.80018,361.162536 155.95018,351.158536 Z" id="Path" fill="#383738"></path>
            <path d="M65.1831803,6.91353565 C62.8121803,9.82253565 58.7711803,13.8365356 60.1081803,17.7505356 C60.6801803,18.1285356 61.7521803,19.0375356 62.5171803,18.5995356 C69.6161803,14.5355356 86.5311803,4.91153565 94.8841803,5.31853565 C96.4231803,7.25353565 93.4361803,8.40453565 94.7261803,11.4475356 C98.1371803,13.0935356 112.77618,9.67853565 118.32818,9.70053565 C126.33518,9.73153565 129.41718,10.1035356 137.32818,11.2475356 C134.49318,12.2705356 133.15718,12.4195356 131.76818,14.8155356 C132.51218,18.2065356 142.70618,21.8695356 146.41718,25.0285356 C153.93118,31.4245356 158.06618,36.6075356 163.05318,45.0155356 C159.93118,43.6345356 157.89518,42.1965356 154.77918,43.3205356 C153.28118,45.6975356 155.31418,47.7975356 156.90018,50.5135356 C163.17818,61.2665356 164.32118,71.1815356 165.01618,83.2775356 C164.99718,84.8785356 165.18018,89.3795356 164.44318,90.4415356 L164.05618,90.1315356 C163.25118,83.0605356 162.51218,81.6545356 155.52618,79.9955356 C152.99118,73.8875356 151.61818,70.7415356 148.37118,65.0965356 C150.69418,63.4975356 151.95418,63.6475356 152.71318,61.7025356 L151.91218,60.7005356 C149.34218,59.9905356 137.65918,61.8515356 132.54118,60.0995356 C128.55118,58.7345356 120.82418,53.8515356 117.85018,54.8135356 C116.36018,59.8345356 133.21318,64.7095356 137.36418,65.9975356 C125.01518,69.7615356 108.30918,69.1625356 96.0191803,65.4125356 C90.6371803,63.7695356 84.0521803,59.4145356 80.5591803,60.0175356 L79.5431803,61.5985356 C82.3011803,66.8175356 94.2221803,73.3575356 99.5701803,76.2385356 C98.3441803,76.3805356 97.1151803,76.5035356 95.8841803,76.6055356 C73.1731803,78.4695356 62.6861803,70.4755356 46.9161803,57.1035356 L45.6401803,57.5015356 L45.1921803,58.6625356 C45.8021803,60.8335356 46.8961803,61.6455356 48.4731803,63.2845356 C19.8091803,74.9585356 25.7841803,107.397536 34.8611803,130.847536 C31.6821803,134.033536 28.6201803,137.334536 25.6811803,140.743536 C12.6941803,120.954536 -6.58581971,83.1805356 11.6901803,61.0595356 C12.8541803,59.6515356 14.9211803,58.3005356 16.3861803,57.0495356 C16.4261803,54.0305356 11.6761803,50.9975356 9.08618029,47.4135356 L8.71218029,46.8895356 C11.8701803,48.0085356 14.9781803,49.5165356 18.1851803,48.9105356 C18.8841803,48.2735356 19.7071803,47.7135356 19.6631803,46.6785356 C19.3041803,38.1105356 19.0031803,34.6155356 22.3071803,26.5745356 C22.9971803,29.9125356 22.9681803,38.1155356 26.8951803,38.6065356 C28.1731803,35.6595356 31.2781803,27.7775356 33.0321803,25.7005356 C42.0431803,15.0245356 52.3061803,10.9525356 65.1831803,6.91353565 Z" id="Path" fill="#6F8092"></path>
            <path d="M106.42418,125.806536 C106.54218,125.951536 117.91018,143.114536 117.70318,142.625536 L117.08418,143.344536 C111.60718,143.175536 113.58218,136.390536 109.27518,136.089536 L108.22018,137.084536 C107.87318,139.369536 110.50418,143.246536 111.74818,145.302536 C115.52618,146.081536 118.29918,145.839536 119.62918,149.825536 C118.55518,154.293536 113.50318,154.963536 111.41918,158.190536 C112.22418,158.879536 112.39418,158.921536 113.46818,159.075536 C114.84318,159.272536 116.11518,159.323536 117.43818,158.828536 C123.09018,156.717536 122.72818,146.469536 124.10918,145.992536 C125.14918,145.633536 129.11118,146.474536 130.41318,146.562536 C140.70418,147.259536 151.33718,144.833536 159.58818,138.546536 C160.69118,150.819536 160.87818,162.863536 155.07718,173.992536 C138.00018,206.752536 116.18918,217.242536 83.1031803,202.008536 C73.2321803,196.836536 66.1751803,191.571536 59.1681803,182.658536 C56.1271803,178.791536 53.5641803,174.701536 50.3111803,170.990536 L49.8511803,170.470536 C48.9431803,171.933536 47.5961803,174.575536 46.2111803,175.293536 C41.3951803,168.965536 38.7921803,168.096536 34.0881803,175.386536 C28.0271803,171.329536 24.7861803,167.512536 22.2211803,160.485536 C20.5841803,156.001536 20.9841803,146.840536 26.7891803,145.450536 C33.6591803,143.804536 37.0111803,149.117536 42.1621803,152.191536 C49.4171803,150.114536 42.2521803,140.938536 42.0501803,136.646536 L43.0321803,135.604536 C43.3071803,135.670536 43.5811803,135.736536 43.8561803,135.801536 C47.1201803,142.288536 49.9041803,148.809536 54.2761803,154.692536 C63.2771803,166.806536 87.2701803,159.614536 97.4551803,152.831536 C104.91318,147.864536 105.41818,134.185536 106.42418,125.806536 Z" id="Path" fill="#FFFFFF"></path>
            <path d="M130.18718,162.859536 C131.59518,162.622536 133.30118,162.604536 134.75118,162.532536 C145.25218,167.744536 123.28418,200.664536 89.8201803,183.638536 C76.2461803,175.066536 70.8351803,160.503536 93.5991803,163.891536 C103.83918,165.414536 119.89718,163.991536 130.18718,162.859536 Z" id="Path" fill="#000000"></path>
            <path d="M130.59518,165.655536 L131.43918,165.625536 L131.91018,166.242536 C130.40018,172.754536 125.42018,170.446536 122.90818,174.426536 C124.15118,175.506536 126.48718,175.068536 128.44918,175.009536 L128.96518,175.812536 C128.00218,181.962536 114.34718,185.461536 108.99518,185.474671 C99.3421803,185.498536 92.3501803,182.333536 85.4231803,175.901536 L93.3901803,176.973536 C95.6871803,177.340536 103.30618,177.992536 104.50818,175.889536 C102.82618,173.792536 84.2811803,175.702536 81.6861803,169.100536 C82.0881803,167.429536 83.5741803,166.096536 85.3671803,166.340536 C100.61918,168.419536 115.43018,167.991536 130.59518,165.655536 Z" id="Path" fill="#FFFFFF"></path>
            <path d="M25.9251803,151.303536 C33.3531803,151.207536 42.4351803,156.859536 43.9681803,164.315536 L43.3961803,165.110536 C41.3751803,164.643536 40.2801803,162.844536 38.8471803,161.154536 C37.9961803,163.687536 39.0171803,167.480536 37.2211803,169.082536 L36.0991803,168.773536 C34.5221803,165.759536 35.4151803,161.881536 36.1221803,158.737536 C30.7311803,153.565536 27.9351803,155.325536 25.5001803,153.279536 L25.9251803,151.303536 Z" id="Path" fill="#000000"></path>
            <path d="M253.22318,15.7005356 C256.72018,18.6975356 248.43418,35.8575356 247.37218,40.3405356 C246.96518,42.0575356 246.07518,41.9835356 244.57518,42.5515356 L244.27218,43.5365356 C246.51718,45.4795356 251.12818,46.7805356 253.91118,48.7835356 C257.19418,51.1455356 259.78118,53.8295356 262.99518,56.2115356 C266.82418,54.4595356 276.88218,42.0965356 280.53618,44.5495356 C280.13618,51.1285356 268.46818,55.7535356 266.22518,59.7255356 C259.59118,71.4725356 257.69018,79.1695356 244.28418,82.4555356 C242.95018,82.7825356 235.80418,99.6645356 234.21418,103.235536 C224.78718,124.546536 214.42718,145.431536 203.16418,165.831536 C202.72218,166.251536 203.02118,166.061536 202.16918,166.197536 C195.99918,160.786536 190.96018,156.687536 184.36918,151.806536 C189.43818,144.171536 198.63918,128.939536 203.28718,121.218536 C209.27218,111.272536 229.14118,83.0435356 232.03518,74.6505356 C228.36618,66.9035356 226.60518,60.2495356 223.65218,52.3885356 C222.93918,50.4905356 215.98118,46.5245356 214.52418,43.3755356 C215.73418,40.8565356 219.27718,39.8575356 221.81618,40.5625356 C228.25718,42.3515356 227.20818,52.0355356 233.57418,53.3095356 C235.66918,52.6115356 234.87118,53.2125356 236.16018,51.5955356 C235.42118,44.6785356 247.33018,19.5205356 253.22318,15.7005356 Z" id="Path" fill="#FFFFFF"></path>
            <path d="M238.20318,51.7735356 C247.16218,50.9515356 248.24918,63.0845356 247.20818,69.5725356 C246.19118,69.5565356 245.83718,69.4595356 244.81718,69.2995356 C243.58318,67.7605356 244.61018,63.1135356 243.54718,60.5045356 C242.00418,56.7165356 239.02618,55.6185356 238.20318,51.7735356 Z" id="Path" fill="#000000"></path>
            <path d="M89.9791803,96.4925356 C94.8781803,96.3455356 95.8421803,99.4885356 96.7581803,104.000536 C99.2761803,116.403536 100.87918,132.862536 94.9721803,144.393536 C92.4511803,149.315536 82.0181803,152.062536 77.0861803,152.867536 C70.1731803,153.960536 66.7411803,154.095536 60.8621803,150.052536 C53.7701803,142.989536 48.8621803,126.762536 46.7531803,117.023536 C43.9301803,103.988536 81.1231803,97.3555356 89.9791803,96.4925356 Z" id="Path" fill="#FFFFFF"></path>
            <path d="M70.2621803,116.134536 C75.5741803,115.875536 80.8351803,117.277536 85.3141803,120.145536 C88.7671803,122.328536 91.8241803,125.454536 92.7361803,129.554536 L92.1141803,129.960536 C86.5231803,127.588536 85.3051803,122.915536 76.9611803,120.584536 L76.2401803,120.386536 C73.6001803,120.363536 70.7981803,120.458536 68.1441803,120.504536 C70.5641803,141.328536 53.3991803,127.690536 54.2331803,121.694536 C56.2121803,120.452536 57.3421803,121.897536 57.8981803,121.551536 C63.2021803,118.253536 63.9711803,117.057536 70.2621803,116.134536 Z" id="Path" fill="#000000"></path>
            <path d="M131.60618,87.4775356 C139.14518,86.6715356 153.84518,84.7465356 154.72518,95.0765356 C156.90918,120.706536 166.64318,136.184536 133.83218,139.589536 C122.08218,139.560536 117.36618,130.565536 112.78318,120.912536 C110.09118,115.244536 104.75118,100.297536 106.93418,94.3985356 C110.96618,89.6875356 125.28118,88.2105356 131.60618,87.4775356 Z" id="Path" fill="#FFFFFF"></path>
            <path d="M134.16018,107.636536 C139.58918,107.042536 141.06318,107.288536 145.58318,110.002536 C146.93518,109.062536 147.47918,108.659536 148.95718,107.968536 L150.08818,108.500536 L150.25818,109.752536 C148.99418,112.073536 147.91318,113.288536 146.26418,115.300536 C139.17418,111.546536 136.52818,110.532536 129.22718,114.811536 C125.22518,118.613536 122.73218,124.693536 120.01018,126.124536 C119.40218,124.708536 120.46418,121.739536 121.07318,120.242536 C123.71918,113.738536 127.98618,110.385536 134.16018,107.636536 Z" id="Path" fill="#000000"></path>
            <path d="M14.7211803,279.145536 C19.0571803,278.716536 25.0841803,279.235536 28.2421803,282.656536 C41.8831803,297.435536 54.3991803,313.224536 68.4471803,327.686536 C71.8261803,331.165536 68.1141803,340.021536 66.3161803,343.955536 C61.5251803,354.439536 54.5041803,365.293536 43.0961803,353.708536 C42.0031803,350.022536 41.9571803,348.358536 44.8991803,345.826536 C49.3341803,345.282536 47.3981803,351.353536 52.1421803,353.300536 L52.9891803,352.843536 C55.3371803,345.817536 46.7421803,338.840536 57.6191803,330.920536 C43.4911803,322.134536 28.4341803,312.311536 16.2221803,301.015536 C6.90318029,292.394536 -2.58081971,284.042536 14.7211803,279.145536 Z" id="Path" fill="#FFFFFF"></path>
            <path d="M120.18618,72.7315356 C118.54818,73.8985356 115.81418,75.7075356 114.73118,77.3665356 C113.72418,78.9085356 114.89718,79.6835356 115.51318,81.6245356 C106.23018,86.1855356 87.4151803,88.5085356 77.0341803,90.3755356 C69.7471803,91.6855356 60.5211803,94.9275356 53.7521803,97.8415356 C48.6351803,100.420536 37.6951803,103.716536 36.6081803,110.092536 C36.0981803,113.079536 42.6551803,124.933536 38.1661803,126.562536 C37.3571803,125.700536 36.8781803,124.053536 36.5331803,122.863536 C32.6401803,109.440536 28.5051803,92.1515356 35.2841803,79.0275356 C38.9771803,71.8785356 44.6801803,69.0775356 51.9201803,66.9435356 C58.2271803,71.9045356 62.3221803,74.3245356 69.7221803,77.2595356 L75.4011803,79.0175356 C82.7621803,80.6255356 98.6171803,82.5585356 105.14018,78.2765356 C107.51718,74.0435356 101.08218,72.0235356 97.9831803,70.4555356 C106.84718,72.0465356 111.23118,72.5625356 120.18618,72.7315356 Z" id="Path" fill="#FFFFFF"></path>
            <path d="M69.7221803,77.2595356 L75.4011803,79.0175356 L74.0651803,79.8565356 C75.8381803,81.5355356 77.0251803,82.1765356 76.1771803,84.5925356 C73.4531803,86.1865356 65.3721803,84.7425356 62.1501803,85.7935356 C57.7871803,87.2175356 50.8871803,96.8055356 46.7201803,96.9195356 C45.5831803,93.3125356 51.6071803,85.5515356 54.2521803,83.1725356 C58.8461803,79.0425356 63.1731803,78.0675356 69.1801803,78.4275356 L69.7221803,77.2595356 Z" id="Path" fill="#000000"></path>
            <polygon id="Path" fill="#D4D4DA" points="69.7221803 77.2595356 75.4011803 79.0175356 74.0651803 79.8565356 69.1801803 78.4275356"></polygon>
            <path d="M64.0451803,270.559536 L64.8651803,270.763536 C66.2751803,272.625536 67.4011803,277.718536 68.2991803,280.125536 C73.3881803,293.768536 72.4201803,305.709536 67.1161803,319.169536 C63.3781803,315.558536 60.3151803,312.303536 56.8041803,308.480536 C50.8031803,301.685536 44.8271803,294.387536 38.8721803,287.482536 C46.9491803,281.387536 55.3521803,275.737536 64.0451803,270.559536 Z" id="Path" fill="#FFFFFF"></path>
            <path d="M95.1571803,211.824536 C103.14318,213.903536 108.49818,214.293536 116.56018,214.014536 C116.72018,217.314536 116.74518,223.558536 118.54918,226.119536 C121.05118,226.406536 120.80818,223.354536 124.66218,223.262536 C129.00818,226.969536 125.28418,236.200536 122.20618,239.934536 C111.74518,246.584536 93.8021803,237.694536 90.3991803,226.910536 C91.5651803,226.214536 91.8711803,226.370536 93.3161803,226.232536 C95.6281803,223.770536 95.0801803,215.664536 95.1571803,211.824536 Z" id="Path" fill="#FFFFFF"></path>
            <path d="M145.60518,478.861536 C150.59018,478.501536 164.13518,483.961536 165.30018,489.031536 L164.53218,490.241536 C159.65818,492.891536 149.52218,491.861536 143.82718,491.621536 C135.42818,490.761536 126.98018,489.741536 119.10318,486.651536 C124.29618,484.831536 140.82818,479.771536 145.60518,478.861536 Z" id="Path" fill="#383738"></path>
            <path d="M70.7001803,478.911536 C74.5451803,479.341536 93.7851803,484.331536 95.3751803,487.231536 C93.1401803,489.821536 79.5301803,491.061536 75.6671803,491.561536 C70.1161803,491.991536 55.4821803,493.601536 51.7131803,489.861536 C51.7841803,485.181536 66.2701803,479.661536 70.7001803,478.911536 Z" id="Path" fill="#383738"></path>
            <path d="M267.01718,17.2165356 C268.96318,17.5175356 268.13218,17.1315356 269.61618,18.3815356 C270.72718,23.2545356 260.00718,40.5305356 256.96418,45.9575356 L255.98518,45.6915356 L250.65918,42.7335356 C254.90818,34.0845356 259.89018,23.6335356 267.01718,17.2165356 Z" id="Path" fill="#FFFFFF"></path>
            <path d="M165.62318,114.496536 C176.56818,115.024536 176.65918,137.310536 171.72618,142.116536 C168.84518,141.695536 165.73418,142.278536 164.27418,141.309536 L164.04818,135.268536 C164.30018,135.075536 164.64818,135.059536 164.95318,134.975536 C165.68818,136.620536 165.77618,137.455536 166.12718,139.243536 L166.89218,139.675536 C171.72618,137.542536 167.31618,132.755536 165.21018,130.431536 C166.91418,127.038536 169.24418,124.548536 169.92818,120.854536 L169.14618,120.410536 C167.12818,121.040536 166.29718,122.133536 164.76518,123.616536 C164.88518,120.602536 165.28818,117.504536 165.62318,114.496536 Z" id="Path" fill="#FFFFFF"></path>
            <path d="M273.26718,27.9035356 C274.81118,28.8735356 274.21518,28.2465356 275.08518,29.8885356 C274.99818,36.4435356 267.48018,45.9155356 263.85818,52.0415356 L263.15418,51.9825356 L259.58218,48.4845356 C263.40318,42.1495356 268.74218,33.6665356 273.26718,27.9035356 Z" id="Path" fill="#FFFFFF"></path>
            <path d="M143.35918,65.0315356 C145.89718,66.6045356 151.39518,76.2385356 149.62318,79.4105356 C147.03218,80.0335356 145.59518,79.4205356 143.77118,77.8515356 C140.26418,74.6075356 137.08318,73.1415356 132.83718,71.0385356 C138.29718,69.9535356 140.67318,70.2695356 143.35918,65.0315356 Z" id="Path" fill="#FFFFFF"></path>
            <path d="M126.57018,77.2515356 C132.36218,76.9115356 133.67518,77.1145356 139.12518,79.1135356 C135.28318,79.1895356 131.44518,79.4195356 127.62218,79.8035356 C124.04718,80.4615356 120.46718,81.0965356 116.88418,81.7105356 C120.58718,79.1935356 122.31218,78.3965356 126.57018,77.2515356 Z" id="Path" fill="#FFFFFF"></path>
            <path d="M165.01618,83.2775356 C165.63118,86.7765356 165.94318,99.9895356 164.89918,102.997536 C164.48218,98.4885356 164.21518,94.6855356 164.05618,90.1315356 L164.44318,90.4415356 C165.18018,89.3795356 164.99718,84.8785356 165.01618,83.2775356 Z" id="Path" fill="#383738"></path>
        </g>
    </g>
</svg>