<?xml version="1.0" encoding="UTF-8"?>
<svg width="400px" height="524px" viewBox="0 0 400 524" version="1.1" xmlns="http://www.w3.org/2000/svg" xmlns:xlink="http://www.w3.org/1999/xlink">
    <title>Avatar 1</title>
    <g id="Redesign-Webseite" stroke="none" stroke-width="1" fill="none" fill-rule="evenodd">
        <g id="Avatar-1" transform="translate(0.5337, 0.1623)">
            <path d="M209.931328,0.619295689 C213.377328,0.307995689 220.486328,-1.24960431 222.064328,2.20569569 C221.107328,5.91989569 217.256328,7.89549569 214.044328,10.1316957 C216.448328,9.50669569 218.871328,8.96039569 221.310328,8.49399569 C229.498328,6.91309569 250.042328,6.19879569 256.700328,10.6965957 C258.367328,14.2965957 252.249328,16.3529957 249.622328,17.5575957 C256.940328,18.4937957 265.123328,20.1247957 271.758328,23.3889957 C276.795328,25.8669957 296.643328,36.1680957 293.620328,42.5907957 C290.395328,44.5845957 287.269328,43.3978957 283.404328,42.6887957 C293.249328,54.1182957 304.616328,71.7356957 301.868328,88.3156957 C301.714328,89.2406957 300.771328,89.4946957 300.026328,89.8536957 C296.896328,89.5076957 297.468328,88.1836957 295.590328,87.8656957 C295.517328,92.3646957 295.777328,97.0836957 295.424328,101.549696 C294.232328,116.608696 289.388328,130.618696 284.669328,144.822696 C297.545328,152.801696 291.854328,169.949696 283.952328,179.500696 C280.538328,182.931696 278.433328,184.503696 275.785328,188.584696 C272.515328,193.624696 264.907328,188.071696 262.331328,186.090696 C250.710328,209.083696 240.156328,219.499696 216.096328,228.892696 L216.934328,236.955696 C246.865328,244.472696 245.086328,244.052696 263.275328,269.225696 C269.453328,277.899696 275.844328,286.419696 282.443328,294.778696 C292.994328,281.974696 304.138328,269.827696 314.489328,256.752696 C312.133328,242.069696 316.378328,241.835696 324.907328,231.948696 C325.062328,229.169696 324.627328,226.342696 324.946328,223.529696 C325.988328,214.334696 335.204328,215.688696 338.960328,222.400696 C342.045328,227.913696 340.815328,231.572696 339.227328,237.132696 C352.812328,237.492696 366.542328,235.751696 379.942328,237.933696 C384.043328,238.549696 386.701328,242.256696 390.115328,244.021696 C401.392328,249.852696 398.971328,250.582696 398.052328,260.853696 C396.632328,263.326696 394.031328,264.730696 391.461328,265.280696 C387.413328,266.147696 384.881328,269.638696 382.982328,270.446696 C370.354328,275.822696 343.621328,275.543696 330.844328,272.789696 C321.505328,290.481696 312.798328,307.097696 301.174328,323.478696 C281.514328,351.182696 264.490328,329.609696 249.039328,311.198696 C247.748328,313.769696 244.614328,318.482696 244.468328,321.219696 C243.688328,335.862696 251.902328,351.924696 255.037328,366.028696 C256.873328,374.291696 258.415328,387.106696 258.323328,395.412696 C257.940328,429.969696 251.212328,466.685696 245.680328,500.867696 C253.141328,503.867696 279.621328,516.845696 256.119328,522.651696 C246.247328,525.090696 230.276328,522.099696 220.230328,520.679696 C217.868328,520.346696 214.439328,519.022696 212.460328,517.690696 C209.892328,516.044696 210.894328,513.924696 210.449328,511.503696 C209.946328,511.173696 207.622328,509.605696 207.566328,509.062696 C205.599328,490.044696 204.384328,470.246696 202.996328,451.201696 C202.487328,444.878696 202.120328,439.644696 201.217328,433.346696 C199.899328,444.021696 197.314328,505.313696 195.326328,509.615696 C193.892328,510.405696 192.823328,510.756696 192.100328,512.183696 C192.173328,514.930696 192.433328,517.226696 189.276328,518.418696 C178.638328,522.363696 155.897328,525.408696 144.831328,521.987696 C124.290328,515.636696 151.439328,503.046696 157.216328,500.794696 C154.601328,486.747696 152.502328,471.414696 150.371328,457.239696 C146.009328,428.220696 141.623328,398.499696 146.285328,369.254696 C147.978328,358.633696 152.819328,347.611696 155.131328,337.192696 C158.289328,322.953696 158.365328,321.493696 151.634328,310.288696 C126.111328,342.100696 112.566328,349.505696 89.0893277,309.713696 C82.0043277,297.706696 75.5533277,284.904696 68.6883277,272.828696 L67.7813277,273.030696 C51.9463277,276.482696 24.0016277,275.689696 10.2853277,266.544696 C5.92972771,264.259696 2.99222771,264.824696 1.39002771,259.765696 C-2.39917229,247.803696 1.86452771,248.615696 10.4663277,243.561696 C17.2300277,239.587696 18.3347277,237.226696 27.5041277,236.928696 C38.4103277,236.574696 49.2583277,237.521696 60.1713277,237.030696 C58.4603277,230.616696 57.7173277,225.459696 62.4543277,219.744696 C65.1073277,216.545696 69.3583277,215.433696 72.3523277,218.879696 C75.6233277,222.644696 74.9293277,227.431696 74.8083277,232.070696 C82.8533277,241.844696 88.4293277,241.910696 85.0853277,257.226696 C95.7113277,269.911696 106.853328,282.128696 117.252328,295.033696 C125.540328,285.038696 132.959328,274.344696 140.412328,263.722696 C143.490328,259.335696 146.475328,254.859696 150.223328,251.002696 C153.079328,248.069696 156.402328,245.630696 160.056328,243.783696 C166.237328,240.654696 177.187328,238.376696 184.143328,236.688696 L184.674328,227.652696 C179.950328,225.482696 175.459328,222.840696 171.269328,219.764696 C155.366328,208.205696 144.678328,190.826696 141.536328,171.418696 C138.495328,172.826696 135.908328,174.197696 132.459328,173.301696 C127.918328,172.121696 129.555328,170.349696 127.933328,167.524696 C126.260328,164.875696 124.168328,162.578696 122.845328,159.693696 C117.745328,148.564696 116.322328,132.869696 129.098328,126.725696 C123.670328,103.940696 121.010328,73.6336957 130.177328,51.2747957 C133.605328,42.9136957 138.864328,38.4705957 147.089328,35.2943957 C144.604328,31.5816957 140.586328,24.1221957 145.145328,20.6182957 C148.869328,20.1303957 152.681328,25.1655957 157.217328,27.9189957 L157.949328,28.3593957 C158.862328,22.7740957 160.300328,17.8549957 163.424328,13.0659957 C165.398328,10.0396957 172.654328,-0.101604311 176.821328,2.53339569 C178.238328,6.08819569 176.500328,9.11589569 175.137328,12.7714957 C187.194328,4.87469569 195.510328,2.24729569 209.931328,0.619295689 Z" id="Path" fill="#000000"></path>
            <path d="M171.511328,244.521696 C175.222328,244.376696 178.142328,256.745696 182.580328,259.883696 C186.876328,262.921696 188.947328,264.718696 194.167328,266.102696 C200.773328,267.918696 207.831328,266.997696 213.749328,263.546696 C221.315328,259.088696 224.895328,252.431696 226.959328,244.199696 C231.989328,245.790696 236.622328,247.021696 240.992328,250.109696 C250.204328,256.618696 268.512328,285.607696 277.492328,296.408696 C276.539328,297.067696 275.601328,297.749696 274.681328,298.453696 C267.638328,303.938696 265.454328,312.733696 264.414328,321.109696 C259.615328,315.992696 255.789328,311.709696 251.351328,306.287696 C252.043328,300.711696 252.726328,294.516696 250.394328,289.279696 C248.489328,284.999696 245.315328,273.208696 240.876328,271.763696 C239.467328,272.695696 239.702328,273.185696 240.284328,275.595696 C241.940328,282.452696 246.622328,290.235696 246.974328,297.344696 C247.833328,314.680696 236.093328,311.673696 240.102328,332.221696 C242.315328,343.560696 247.393328,356.364696 250.422328,367.798696 C250.262328,368.239696 250.102328,368.681696 249.942328,369.123696 L247.773328,369.997696 C216.727328,377.793696 182.223328,377.892696 151.539328,368.510696 C154.853328,353.924696 161.854328,338.850696 162.398328,324.041696 C162.711328,315.542696 153.562328,307.234696 153.949328,296.882696 C154.189328,290.442696 162.540328,274.887696 159.489328,271.608696 L158.413328,271.641696 C158.032328,271.986696 157.400328,272.529696 157.184328,272.994696 C152.021328,284.144696 147.525328,292.247696 149.915328,304.537696 C145.762328,310.111696 140.018328,316.545696 135.409328,321.841696 C135.346328,320.691696 135.253328,319.544696 135.130328,318.399696 C134.052328,308.069696 130.217328,302.756696 122.466328,296.448696 C127.793328,289.734696 132.982328,282.912696 138.031328,275.987696 C149.164328,260.482696 152.518328,250.629696 171.511328,244.521696 Z" id="Path" fill="#8F8E8E"></path>
            <path d="M150.624328,373.846696 C184.907328,382.505696 217.180328,383.136696 251.453328,373.973696 C252.279328,380.156696 252.881328,386.366696 253.258328,392.593696 C248.720328,389.290696 242.631328,377.671696 239.539328,378.223696 C238.598328,386.065696 245.653328,394.499696 253.322328,396.197696 C251.823328,432.825696 246.263328,464.758696 240.667328,500.875696 C230.415328,501.475696 223.347328,506.207696 212.267328,507.362696 C211.291328,500.868696 210.732328,488.371696 210.264328,481.562696 L207.024328,436.206696 L204.882328,407.682696 C207.487328,407.604696 212.272328,407.820696 214.089328,406.112696 C213.871328,404.205696 214.252328,404.994696 212.962328,403.637696 C209.026328,403.636696 205.377328,403.571696 201.463328,403.417696 C198.338328,403.294696 191.823328,402.248696 189.116328,402.645696 L188.522328,403.638696 C189.986328,407.307696 194.292328,407.200696 197.959328,407.894696 C195.631328,434.353696 194.391328,461.192696 192.383328,487.701696 C192.146328,490.824696 192.180328,505.825696 190.567328,507.144696 C185.832328,507.700696 170.409328,501.635696 162.373328,500.312696 C159.772328,487.264696 158.083328,473.330696 156.062328,460.148696 C152.776328,438.721696 149.836328,418.018696 149.234328,396.276696 C155.771328,393.826696 164.135328,385.850696 162.417328,378.383696 L161.151328,377.731696 C158.148328,378.351696 155.637328,385.713696 153.313328,388.177696 C151.839328,389.740696 150.907328,390.658696 149.273328,392.101696 C149.483328,386.001696 149.934328,379.911696 150.624328,373.846696 Z" id="Path" fill="#383738"></path>
            <path d="M211.267328,4.55299569 C212.491328,4.35239569 212.594328,4.43429569 213.857328,4.48929569 C213.456328,6.95209569 205.194328,10.9462957 205.463328,15.2087957 C208.410328,17.6421957 215.256328,13.9916957 218.530328,13.1799957 C229.942328,10.3508957 239.069328,11.0314957 250.345328,12.5196957 C247.389328,14.1913957 242.526328,16.2838957 242.114328,19.8172957 C242.774328,20.6288957 243.242328,21.3663957 244.410328,21.4241957 C251.238328,21.7622957 256.884328,22.5188957 263.486328,24.7354957 C272.752328,27.8933957 281.266328,32.9319957 288.493328,39.5353957 C284.969328,38.8951957 280.001328,37.4812957 277.181328,39.9366957 C277.019328,42.8735957 278.723328,44.0175957 280.625328,46.0238957 C291.002328,56.9706957 296.492328,69.5006957 298.286328,84.4406957 C296.059328,82.3996957 295.041328,81.0566957 292.225328,81.0296957 C291.846328,81.3436957 291.384328,81.7246957 290.839328,82.1746957 C290.298328,84.9106957 291.229328,90.6136957 291.376328,93.3596957 C292.191328,108.604696 286.493328,126.677696 281.461328,140.794696 C279.121328,136.612696 276.827328,132.405696 274.580328,128.172696 C275.738328,122.132696 276.788328,115.838696 276.646328,109.673696 C276.487328,102.731696 275.675328,96.4316957 275.980328,89.4376957 C267.900328,88.8686957 260.479328,86.9666957 254.177328,81.7036957 C251.938328,79.8336957 244.960328,72.5316957 242.779328,72.4436957 C238.609328,75.3646957 250.489328,86.6476957 252.929328,89.9866957 C238.817328,87.1616957 226.496328,81.9496957 215.358328,72.7686957 C212.722328,70.3466957 207.716328,62.9576957 204.391328,63.6996957 C200.430328,68.4336957 210.110328,81.7246957 213.290328,86.0376957 C197.472328,81.4796957 186.447328,71.4536957 180.803328,56.2776957 C180.297328,54.9176957 178.408328,50.2893957 177.441328,49.5198957 L176.353328,49.6832957 C176.066328,50.4160957 175.043328,53.0707957 174.001328,53.0760957 C144.626328,53.2254957 139.032328,92.5206957 139.019328,114.779696 L132.350328,123.184696 C131.438328,119.243696 130.695328,115.264696 130.125328,111.259696 C127.645328,93.6396957 126.413328,61.8646957 137.561328,46.9258957 C142.771328,39.9454957 147.449328,39.7170957 155.271328,38.7104957 C151.255328,33.8610957 148.705328,32.1053957 147.196328,25.9546957 C152.834328,30.2531957 154.930328,31.9071957 161.678328,34.2200957 C162.078328,22.0437957 164.608328,16.8586957 172.749328,7.89429569 C171.520328,11.2016957 168.349328,18.5113957 170.073328,21.8188957 C172.879328,23.0135957 174.474328,19.1098957 176.974328,16.9542957 C186.623328,8.63149569 199.424328,6.14079569 211.267328,4.55299569 Z" id="Path" fill="#6F8092"></path>
            <path d="M204.200328,135.757696 C207.579328,144.525696 206.706328,158.184696 216.822328,163.441696 C225.771328,168.092696 240.782328,171.113696 250.810328,168.860696 C259.088328,167.001696 261.698328,160.668696 265.365328,154.181696 C267.293328,158.180696 269.712328,156.333696 271.846328,153.586696 C278.895328,144.512696 287.759328,146.789696 287.737369,158.992696 C287.721328,167.391696 283.548328,174.376696 277.236328,180.376696 C274.614328,178.078696 273.710328,177.089696 270.102328,177.144696 C267.184328,178.299696 267.624328,179.958696 265.218328,181.531696 C263.410328,180.843696 263.073328,179.350696 261.860328,177.303696 C257.814328,184.328696 255.134328,191.310696 250.095328,197.986696 C238.519328,213.325696 224.191328,223.151696 205.257328,226.229696 C179.996328,228.617696 154.670328,201.857696 148.124328,179.359696 C145.411328,170.036696 144.868328,160.367696 144.248328,150.733696 C154.042328,163.419696 176.665328,164.190696 190.257328,158.262696 C189.261328,164.628696 192.057328,169.446696 198.680328,171.005696 C200.186328,171.360696 201.438328,171.753696 202.728328,170.958696 C201.138328,167.819696 194.610328,164.816696 193.665328,161.657696 C194.764328,157.459696 198.334328,158.423696 201.169328,156.217696 C203.297328,154.562696 205.063328,149.754696 202.845328,147.487696 L201.538328,147.839696 C199.763328,149.556696 199.445328,151.356696 198.664328,153.744696 L192.828328,156.249696 C198.057328,148.976696 200.332328,143.816696 204.200328,135.757696 Z" id="Path" fill="#FFFFFF"></path>
            <path d="M170.487328,175.448696 C174.444328,175.074696 229.625328,175.637696 231.965328,176.678696 C233.727328,177.461696 234.693328,178.842696 235.412328,180.556696 C235.734328,186.740696 228.832328,195.213696 224.925328,199.576696 C220.389328,203.626696 216.920328,205.935696 210.923328,207.553696 C202.015328,210.017696 192.490328,208.775696 184.511328,204.109696 C176.433328,199.292696 164.602328,185.148696 170.487328,175.448696 Z" id="Path" fill="#000000"></path>
            <path d="M174.287328,177.976696 C178.329328,177.982696 183.035328,178.395696 187.073328,178.742696 C201.485328,179.982696 215.753328,179.353696 230.176328,179.014696 C230.516328,179.311696 230.855328,179.608696 231.195328,179.905696 C230.900328,181.559696 230.781328,181.198696 229.294328,182.654696 C216.886328,188.682696 183.310328,190.354696 174.287328,177.976696 Z" id="Path" fill="#FFFFFF"></path>
            <path d="M204.316328,195.235696 C207.825328,195.135696 214.391328,195.640696 216.730328,198.462696 C216.865328,203.199696 206.704328,204.186696 203.103328,204.615696 C196.625328,204.718696 193.005328,203.981696 187.299328,201.109696 C193.787328,197.351696 196.919328,195.965696 204.316328,195.235696 Z" id="Path" fill="#C46155"></path>
            <path d="M279.619328,154.462696 C281.664328,154.436696 282.525328,154.655696 283.712328,156.202696 L283.379328,157.282696 C280.322328,157.598696 272.440328,161.843696 273.640328,165.695696 C274.664328,168.985696 277.077328,172.438696 272.836328,174.643696 L272.136328,174.119696 L271.863328,170.158696 C272.044328,168.768696 271.962328,169.023696 271.635328,167.614696 C270.185328,167.821696 269.159328,170.355696 266.784328,171.901696 L266.141328,171.451696 C265.069328,165.920696 275.053328,157.018696 279.619328,154.462696 Z" id="Path" fill="#000000"></path>
            <path d="M330.071328,221.238696 C341.909328,224.330696 332.699328,234.032696 335.286328,239.725696 C339.458328,242.368696 348.637328,241.582696 353.579328,241.429696 C364.164328,241.099696 372.640328,240.335696 383.048328,243.148696 C378.742328,243.380696 361.211328,243.079696 358.639328,246.372696 L359.089328,247.366696 C363.755328,249.483696 387.318328,243.002696 393.893328,251.146696 C392.016328,251.719696 386.772328,250.049696 383.972328,250.136696 C376.366328,250.375696 368.352328,250.647696 361.003328,252.661696 L360.205328,252.883696 C359.134328,249.540696 357.823328,244.503696 355.117328,242.223696 L354.028328,242.366696 C352.893328,245.415696 356.211328,251.057696 356.902328,254.302696 C357.172328,255.570696 358.561328,264.003696 359.593328,264.085696 C364.745328,264.495696 382.183328,255.921696 384.469328,263.672696 C380.360328,272.354696 343.335328,270.771696 334.416328,269.020696 C332.816328,268.583696 329.848328,267.466696 328.244328,267.804696 C327.696328,267.919696 302.495328,318.401696 288.876328,329.119696 C286.801328,330.751696 284.628328,331.681696 282.165328,332.579696 C271.687328,329.500696 266.612328,325.315696 270.372328,313.563696 C272.336328,307.427696 275.444328,303.656696 279.762328,299.021696 C278.484328,302.142696 276.636328,305.199696 277.741328,308.207696 L278.872328,308.542696 C280.350328,307.204696 284.863328,299.804696 287.067328,297.128696 C297.835328,284.049696 309.520328,271.695696 319.206328,257.787696 C315.982328,240.184696 323.199328,246.232696 328.987328,232.460696 C330.086328,229.844696 328.634328,224.996696 330.071328,221.238696 Z" id="Path" fill="#FFFFFF"></path>
            <path d="M332.049328,247.450696 C337.899328,247.383696 350.576328,251.930696 351.700328,258.328696 L350.707328,258.824696 C348.448328,258.591696 347.238328,257.405696 345.341328,256.058696 C336.381328,250.519696 335.918328,250.684696 326.401328,254.031696 C324.410328,253.592696 324.618328,253.982696 323.662328,252.737696 C324.822328,249.769696 329.120328,248.110696 332.049328,247.450696 Z" id="Path" fill="#000000"></path>
            <path d="M46.3313277,241.759696 C82.9733277,241.812696 52.4313277,231.939696 67.2763277,222.099696 L68.8293277,221.964696 C72.3903277,225.158696 69.2963277,231.515696 70.8263277,233.905696 C78.1023277,245.274696 83.4553277,242.490696 80.5273277,258.458696 C89.5693277,270.982696 100.185328,282.079696 110.054328,293.970696 C113.383328,297.980696 117.471328,303.558696 120.720328,307.798696 C121.196328,307.934696 121.672328,308.069696 122.149328,308.205696 C123.858328,306.105696 121.242328,301.674696 120.077328,299.544696 C126.966328,306.052696 130.825328,311.635696 131.141328,321.523696 C131.189328,322.861696 131.184328,324.200696 131.127328,325.537696 C127.501328,328.600696 122.883328,332.121696 117.869328,332.090899 C113.126328,332.061696 106.652328,325.892696 104.023328,322.511696 C97.2173277,313.756696 74.5223277,276.185696 71.6123277,267.557696 C59.8973277,270.677696 49.1823277,270.991696 37.1163277,270.156696 C32.5324277,269.839696 16.8723277,268.073696 14.8540277,263.642696 C18.5189277,256.970696 35.0203277,263.529696 40.9053277,264.251696 C41.1383277,263.935696 41.3713277,263.619696 41.6043277,263.303696 C41.8873277,259.156696 41.7033277,257.797696 42.7093277,253.825696 C43.4923277,250.731696 45.7423277,245.189696 46.0313277,242.403696 L46.3313277,241.759696 Z" id="Path" fill="#FFFFFF"></path>
            <path d="M65.1033277,247.432696 C68.3063277,247.359696 75.1433277,248.312696 74.8053277,252.663696 C70.1823277,254.347696 67.4863277,249.133696 57.3933277,254.307696 C54.5583277,256.336696 52.7803277,258.139696 49.3453277,257.923696 L49.0023277,257.039696 C51.7893277,251.447696 59.4383277,248.762696 65.1033277,247.432696 Z" id="Path" fill="#000000"></path>
            <path d="M217.004328,102.874696 C229.554328,102.171696 259.140328,106.547696 266.567328,117.158696 C266.095328,129.261696 261.610328,145.713696 255.117328,155.842696 C251.042328,160.560696 246.963328,161.796696 240.876328,161.552696 C232.611328,161.220696 220.276328,159.915696 216.376328,151.242696 C211.950328,141.300696 211.258328,129.666696 211.781328,118.893696 C212.016328,114.051696 212.055328,105.161696 217.004328,102.874696 Z" id="Path" fill="#FFFFFF"></path>
            <path d="M225.292328,125.186696 C235.613328,125.840696 236.213328,139.715696 227.251328,144.728696 C226.773328,144.673696 226.297328,144.608696 225.822328,144.532696 C216.852328,143.053696 217.130328,130.101696 225.292328,125.186696 Z" id="Path" fill="#000000"></path>
            <path d="M167.074328,97.9526957 C172.223328,97.3946957 199.895328,98.1246957 201.212328,103.594696 C204.403328,116.853696 195.258328,146.816696 182.699328,153.107696 C181.797328,153.299696 180.892328,153.475696 179.984328,153.634696 C172.917328,154.833696 160.580328,153.978696 154.581328,149.408696 C150.130328,146.018696 148.140328,137.338696 147.705328,131.792696 C147.123328,124.393696 145.607328,107.888696 150.092328,101.929696 C152.658328,98.5186957 162.741328,98.2716957 167.074328,97.9526957 Z" id="Path" fill="#FFFFFF"></path>
            <path d="M181.372328,121.316696 C192.160328,121.033696 193.346328,134.866696 184.171328,140.208696 C172.951328,139.168696 173.715328,127.072696 181.372328,121.316696 Z" id="Path" fill="#000000"></path>
            <path d="M168.612328,57.3336957 C171.751328,56.9476957 173.584328,57.0376957 176.735328,57.1346957 C179.719328,65.8776957 182.635328,69.5106957 188.397328,76.4486957 C184.300328,74.6296957 181.096328,73.4076957 176.543328,73.3056957 C170.859328,73.1776957 158.127328,80.0636957 158.117328,86.0516957 C158.616328,86.4846957 159.066328,87.0876957 159.496328,86.9366957 C163.687328,85.4606957 168.638328,82.1876957 172.883328,80.8996957 C178.314328,79.2536957 183.089328,83.0806957 188.509328,83.1966957 C190.084328,82.1646957 189.625328,81.2696957 190.411328,78.8276957 C195.857328,81.7566957 211.853328,94.3656957 218.511328,88.9586957 C218.650328,88.4676957 218.788328,87.9766957 218.926328,87.4856957 C217.305328,84.3996957 212.125328,77.9456957 211.438328,75.2016957 L212.068328,75.3796957 C220.481328,82.3826957 225.155328,84.9586957 235.145328,89.0656957 C232.347328,89.2266957 227.742328,89.2766957 225.222328,90.3166957 C223.523328,91.0186957 223.595328,92.0566957 223.059328,93.7606957 C219.231328,95.8806957 193.847328,91.2436957 188.000328,90.5696957 C182.489328,89.9466957 176.952328,89.5716957 171.406328,89.4446957 C161.740328,89.2976957 154.744328,90.3226957 145.404328,92.3556957 C146.206328,86.4426957 147.825328,80.6686957 150.215328,75.2006957 C154.392328,65.8086957 159.167328,60.9646957 168.612328,57.3336957 Z" id="Path" fill="#FFFFFF"></path>
            <path d="M189.121328,229.179696 C196.626328,232.224696 203.890328,231.597696 211.646328,230.432696 C212.015328,234.332696 211.800328,241.538696 215.651328,243.169696 C218.544328,242.353696 219.325328,241.617696 221.705328,243.464696 C223.924328,248.786696 215.017328,257.007696 210.772328,259.726696 C207.061328,261.238696 205.218328,262.002696 201.189328,261.978696 C194.791328,261.943696 188.673328,259.350696 184.197328,254.777696 C181.847328,252.376696 177.101328,244.896696 180.011328,242.128696 C182.339328,241.746696 184.853328,242.616696 187.227328,243.192696 C189.056328,241.220696 188.978328,232.261696 189.121328,229.179696 Z" id="Path" fill="#FFFFFF"></path>
            <path d="M159.772328,505.046696 C167.612328,504.773696 173.305328,507.902696 180.699328,510.273696 C182.817328,510.953696 186.887328,511.841696 187.402328,514.102696 C185.156328,516.235696 173.855328,517.231696 170.269328,517.725696 C165.423328,518.388696 142.811328,520.910696 143.220328,514.045696 C145.998328,510.151696 155.255328,506.507696 159.772328,505.046696 Z" id="Path" fill="#383738"></path>
            <path d="M238.278328,505.625696 C239.744328,505.451696 242.685328,505.227696 243.989328,505.651696 C248.320328,507.058696 259.261328,510.894696 259.704328,515.971696 C256.881328,520.169696 242.396328,518.670696 237.492328,518.412696 C233.594328,518.111696 217.705328,516.596696 215.727328,513.465696 C217.356328,510.830696 234.502328,506.569696 238.278328,505.625696 Z" id="Path" fill="#383738"></path>
            <path d="M129.336328,130.968696 C141.197328,131.009696 139.479328,137.805696 139.029328,146.877696 C137.320328,143.200696 134.254328,137.402696 129.807328,136.857696 C128.212328,137.569696 128.674328,137.009696 128.054328,138.274696 C129.434328,140.032696 132.002328,142.737696 133.689328,144.181696 C139.295328,148.976696 128.566328,153.401696 134.543328,158.201696 L135.425328,157.497696 C135.674328,155.392696 135.678328,153.240696 137.439328,151.948696 C139.799328,154.216696 140.043328,160.545696 140.418328,163.977696 C136.174328,159.443696 134.449328,159.145696 129.379328,162.516696 C123.299328,153.879696 120.121328,138.613696 129.336328,130.968696 Z" id="Path" fill="#FFFFFF"></path>
            <path d="M257.424328,88.4016957 C262.818328,91.2196957 265.478328,91.9166957 271.486328,93.0346957 C271.927328,97.8576957 272.293328,102.686696 272.583328,107.520696 C270.520328,106.476696 268.188328,105.432696 266.078328,104.439696 C255.706328,100.809696 256.198328,99.1146957 247.019328,92.7656957 C250.319328,93.2356957 254.125328,94.2956957 256.875328,92.7296957 C258.059328,90.6466957 257.680328,91.2676957 257.424328,88.4016957 Z" id="Path" fill="#FFFFFF"></path>
            <path d="M382.639328,253.766696 C386.335328,253.811696 392.013328,253.986696 394.369328,257.214696 C394.380328,258.339696 394.621328,258.751696 394.030328,259.216696 C387.322328,264.495696 388.439328,259.188696 382.571328,256.961696 C380.625328,256.222696 375.868328,256.800696 373.995328,256.952696 C370.012328,257.730696 364.701328,260.772696 361.350328,258.837696 C360.605328,257.037696 360.630328,256.967696 360.956328,254.994696 C367.727328,254.366696 375.759328,254.136696 382.639328,253.766696 Z" id="Path" fill="#FFFFFF"></path>
            <path d="M11.7608277,254.279696 C20.6072277,253.551696 29.7864277,255.214696 38.8873277,255.228696 L38.5253277,260.561696 C35.8933277,259.587696 31.9038277,258.620696 29.0954277,257.854696 C21.0960277,255.516696 18.2854277,256.500696 11.0837277,260.480696 C8.63972771,261.831696 5.73312771,260.636696 4.91982771,257.826696 C6.47552771,255.281696 8.85882771,255.023696 11.7608277,254.279696 Z" id="Path" fill="#FFFFFF"></path>
            <path d="M14.7508277,247.515696 C20.9673277,246.748696 33.9112277,247.651696 40.8423277,247.774696 L39.2473277,252.882696 C37.0353277,252.183696 35.2063277,251.862696 32.9461277,251.417696 C26.4192277,250.296696 16.8727277,249.680696 10.3978277,250.581696 C9.02382771,250.772696 6.77342771,251.715696 4.85372771,252.066696 L5.04782771,251.167696 C7.89492771,248.060696 10.5800277,248.140696 14.7508277,247.515696 Z" id="Path" fill="#FFFFFF"></path>
            <path d="M16.0082277,243.513696 C25.9900277,240.757696 36.0843277,240.598696 46.3313277,241.759696 L46.0313277,242.403696 C44.9263277,242.497696 44.9903277,242.564696 43.9153277,242.932696 C40.7273277,246.927696 41.4593277,245.382696 37.0273277,244.450696 C30.3575277,243.048696 22.8191277,243.414696 16.0082277,243.513696 Z" id="Path" fill="#FFFFFF"></path>
        </g>
    </g>
</svg>