<?xml version="1.0" encoding="UTF-8"?>
<svg width="188px" height="534px" viewBox="0 0 188 534" version="1.1" xmlns="http://www.w3.org/2000/svg" xmlns:xlink="http://www.w3.org/1999/xlink">
    <title>Avatar 2</title>
    <g id="Redesign-Webseite" stroke="none" stroke-width="1" fill="none" fill-rule="evenodd">
        <g id="Avatar-2" transform="translate(-0.6074, 0.6229)">
            <path d="M77.9523968,0.200044012 C79.7673968,-0.148855988 80.6023968,-0.126355988 81.9943968,0.963244012 L82.1033968,2.29584401 C80.8963968,5.40694401 76.9733968,9.48814401 74.7123968,12.083944 C83.3103968,7.33404401 91.7303968,3.58634401 101.577397,2.35564401 C106.235397,1.77334401 113.138397,0.284744012 117.456397,2.44524401 C118.608397,3.96014401 118.343397,3.11824401 118.199397,5.07904401 C116.924397,7.48064401 115.007397,8.53594401 112.771397,10.169644 C119.463397,9.41124401 126.227397,9.57144401 132.876397,10.645544 C137.844397,11.438644 164.822397,18.362544 163.126397,24.851144 C160.111397,27.598044 156.491397,27.301344 152.428397,27.529044 C164.743397,37.278744 174.980397,47.336944 180.175397,62.929144 C181.028397,65.490144 181.782397,69.042144 180.493397,71.444144 C178.216397,72.120144 177.551397,71.479144 174.938397,70.954144 C180.592397,95.704144 180.024397,105.283144 177.048397,130.832144 C181.361397,132.999144 184.719397,135.409144 186.415397,139.585144 C191.336397,151.706144 186.506397,164.895144 177.691397,173.823144 C176.256397,175.276144 177.131397,178.390144 173.788397,179.435144 C169.647397,180.730144 166.219397,178.687144 162.690397,176.938144 C162.399397,178.089144 162.102397,179.238144 161.799397,180.385144 C155.529397,204.109144 143.821397,218.147144 122.990397,230.293144 L123.459397,240.509144 C126.926397,241.411144 131.297397,242.612144 134.817397,243.087144 C142.849397,244.170144 151.053397,243.867144 158.159397,248.500144 C168.031397,254.937144 173.492397,272.306144 175.782397,284.063144 C179.250397,301.867144 184.229397,333.459144 174.487397,349.918144 C171.195397,355.481144 163.049397,356.557144 157.232397,357.547144 C160.131397,366.772144 164.204397,379.952144 165.016397,389.551144 C168.081397,425.819144 159.718397,473.600144 152.921397,509.447144 C161.100397,512.836144 188.343397,526.754144 162.867397,532.129144 C151.389397,534.551144 128.956397,531.742144 118.601397,526.862144 C115.595397,525.445144 118.936397,522.423144 114.517397,518.707144 C112.708397,514.221144 110.307397,477.272144 109.817397,470.240144 L107.262397,437.643144 C103.894397,463.549144 104.770397,491.639144 101.483397,517.673144 C101.263397,519.417144 99.4193968,518.891144 98.0753968,521.193144 C98.1033968,524.171144 98.2523968,526.445144 94.8363968,527.644144 C80.8733968,532.543144 62.4133968,533.902144 47.8843968,531.112144 C46.1373968,530.776144 43.1253968,528.776144 42.4683968,526.986144 C39.7643968,518.467144 56.1483968,511.922144 61.8343968,509.428144 C56.8393968,471.842144 46.7093968,431.984144 48.4203968,393.816144 C48.9313968,382.398144 51.5673968,372.003144 54.0983968,361.000144 C52.1743968,365.278144 49.7423968,371.071144 44.6633968,372.122144 C36.5053968,373.826144 30.4983968,364.925144 29.1983968,357.893144 C28.0883968,351.893144 30.8363968,347.438144 34.0603968,342.786144 C31.0933968,335.611144 30.6803968,328.265144 31.7133968,320.624144 C34.3783968,300.900144 41.3793968,264.182144 57.2393968,251.282144 C57.1083968,244.893144 57.2863968,236.858144 55.3543968,230.823144 C53.1293968,223.871144 44.6653968,221.960144 52.0803968,214.562144 C47.4423968,210.184144 44.3763968,206.828144 41.0323968,201.304144 C39.7123968,199.122144 36.3683968,191.582144 34.6443968,190.492144 C32.8173968,191.875144 31.0583968,192.327144 28.7223968,192.181144 C23.3613968,191.847144 24.3003968,188.475144 20.1223968,184.417144 C13.4893968,177.504144 9.32139683,167.805144 9.76539683,158.153144 C10.0203968,152.628144 12.1723968,149.487144 16.1983968,146.011144 C8.51839683,126.868144 1.84439683,108.256144 1.10439683,87.476144 C0.565396829,72.337144 1.68039683,60.195144 14.9903968,51.371044 C11.7233968,48.255444 6.25439683,41.899444 9.96039683,37.536744 C13.4003968,36.600444 20.2823968,40.802544 24.3613968,42.472344 C24.2333968,32.199144 26.3753968,19.045144 35.2243968,11.820944 C35.8813968,11.284444 36.2633968,11.647744 37.0423968,11.889844 C39.2273968,15.475044 38.2573968,18.952744 37.7433968,23.130944 C50.1553968,9.92724401 60.5953968,5.02494401 77.9523968,0.200044012 Z" id="Path" fill="#000000"></path>
            <path d="M55.0063968,380.369144 C93.0343968,389.577144 120.676397,389.749144 158.497397,379.985144 C159.857397,387.173144 160.312397,392.243144 160.448397,399.565144 C154.305397,395.277144 153.412397,392.106144 149.132397,386.432144 C148.182397,385.174144 147.718397,385.071144 146.483397,384.966144 L145.652397,386.237144 C145.402397,391.800144 153.004397,401.525144 158.760397,402.709144 C159.712397,402.905144 159.529397,402.605144 160.553397,403.237144 C163.596397,418.566144 150.951397,492.703144 147.997397,509.462144 C138.503397,509.819144 132.285397,513.892144 123.199397,515.730144 C121.403397,516.093144 120.094397,516.125144 118.695397,515.150144 C117.737397,510.304144 117.013397,497.239144 116.569397,491.749144 L112.853397,445.117144 C112.314397,435.446144 111.172397,424.496144 110.414397,414.711144 C112.800397,414.723144 114.706397,414.837144 117.060397,414.369144 C118.546397,412.934144 118.176397,413.761144 118.469397,411.940144 L117.616397,411.124144 C113.505397,410.875144 95.6033968,408.378144 93.6963968,410.983144 C95.9343968,413.748144 99.9893968,414.127144 103.351397,414.731144 C102.813397,434.258144 100.908397,455.743144 99.5933968,475.318144 C98.9733968,484.544144 98.3783968,507.659144 96.6933968,515.309144 C94.2593968,516.913144 86.3563968,514.140144 83.4753968,513.130144 C77.9073968,511.176144 73.1233968,509.922144 67.2713968,509.002144 C63.1633968,489.246144 60.9103968,468.915144 57.7243968,448.993144 C55.3013968,433.838144 53.9133968,419.122144 53.1683968,403.824144 C57.8043968,401.809144 62.1003968,399.245144 64.5763968,394.652144 C65.7163968,392.536144 67.9843968,388.233144 67.3713968,386.002144 C65.9483968,384.699144 66.5193968,384.863144 64.8443968,384.563144 C59.8983968,389.387144 62.6613968,392.188144 53.2803968,399.159144 C53.4343968,392.757144 54.1563968,386.701144 55.0063968,380.369144 Z" id="Path" fill="#383738"></path>
            <path d="M111.061397,5.49194401 L111.365397,6.02164401 L109.985397,7.25824401 C107.921397,9.12324401 105.412397,10.831244 105.273397,13.564744 C107.103397,16.164644 111.394397,14.896244 115.010397,14.515044 C129.360397,12.878244 143.849397,16.022144 156.231397,23.459044 C152.806397,23.555244 146.963397,23.024944 145.160397,26.309944 C145.965397,29.425544 150.932397,32.006844 153.546397,34.004744 C157.719397,37.227144 161.514397,40.910744 164.860397,44.985444 C170.478397,51.766144 174.023397,58.471144 176.879397,66.757144 C176.359397,66.448144 175.835397,66.143144 175.310397,65.843144 C172.903397,64.463144 172.462397,63.974144 169.931397,64.663144 C169.615397,65.074144 169.232397,65.572144 168.781397,66.158144 C168.837397,69.012144 171.162397,74.718144 171.954397,77.472144 C176.522397,93.360144 175.427397,112.393144 173.223397,128.509144 C169.559397,125.951144 164.980397,123.197144 161.123397,120.597144 C160.460397,111.603144 160.201397,105.317144 158.072397,96.364144 C156.704397,90.614144 153.218397,82.266144 152.863397,76.856144 C144.587397,77.594144 139.328397,77.482144 131.293397,74.561144 C125.602397,72.493144 120.665397,66.900144 114.948397,67.117144 L114.458397,67.736144 C116.075397,72.729144 125.675397,79.058144 129.963397,82.149144 C106.711397,82.985144 95.8873968,78.088144 77.0243968,65.919144 C75.2823968,66.015144 75.9763968,65.687144 74.7913968,66.738144 C73.2733968,72.983144 85.7353968,83.346144 90.1773968,86.863144 C84.5373968,86.157144 81.5103968,85.727144 76.0463968,84.151144 C66.7253968,80.743144 63.2643968,78.196144 55.9993968,71.536144 C51.9883968,67.858144 48.6463968,59.083144 45.5033968,58.287144 L44.7783968,58.835144 C43.8383968,63.605144 43.3473968,62.347144 39.1503968,63.959144 C34.4513968,65.715144 30.3573968,68.788144 27.3563968,72.809144 C18.7803968,84.199144 18.3783968,101.444144 20.2953968,114.995144 C15.8833968,119.377144 16.3723968,119.732144 17.2633968,125.471144 C17.8943968,129.538144 19.3483968,135.379144 18.7433968,139.360144 L18.1363968,139.355144 C10.6063968,126.096144 1.44139683,84.937144 6.56339683,69.486144 C10.1903968,58.546144 12.1193968,58.424144 21.7293968,53.143844 C21.6353968,50.990644 14.9683968,45.092144 12.6263968,41.925844 C19.2633968,44.779344 21.6933968,46.167744 29.0033968,46.718144 C28.2473968,34.230544 27.8373968,30.175444 34.0713968,18.851444 L33.8713968,20.365244 C33.4053968,23.978744 32.2843968,29.870944 34.5513968,32.807844 C34.9333968,32.927044 35.3153968,33.046144 35.6973968,33.165244 C39.1733968,29.847444 40.6123968,25.426644 44.4563968,21.967144 C54.0043968,13.373844 63.4953968,9.06114401 75.3733968,5.22774401 C72.9263968,8.16244401 66.7263968,14.418744 68.9433968,18.117644 C73.3093968,19.331744 83.9013968,11.072844 90.5303968,9.35994401 C99.2823968,7.09864401 101.445397,5.99484401 111.061397,5.49194401 Z" id="Path" fill="#6F8092"></path>
            <path d="M157.204397,139.191144 C157.255397,142.257144 157.058397,143.378144 159.410397,145.339144 C164.500397,145.554144 169.220397,133.868144 173.684397,134.960144 C191.235397,139.252144 182.574397,161.357144 176.552397,169.014144 C165.925397,162.800144 168.257397,169.706144 164.320397,172.288144 C162.358397,172.105144 161.772397,171.121144 160.008397,169.698144 C158.188397,174.621144 157.193397,179.881144 155.544397,184.853144 C148.224397,206.921144 129.849397,226.460144 106.191397,230.133144 C102.861397,230.650144 98.7703968,231.267144 95.8653968,229.210144 C96.9983968,227.571144 103.973397,225.966144 106.133397,224.123144 C111.981397,219.134144 110.751397,211.821144 102.234397,211.460144 C89.4513968,210.917144 81.0623968,214.052144 71.4783968,222.070144 C70.7513968,221.713144 70.0363968,221.332144 69.3363968,220.925144 C48.9513968,209.238144 41.4133968,196.608144 35.6963968,174.927144 C45.9783968,180.168144 57.0803968,178.660144 67.9983968,175.489144 C71.2293968,174.551144 75.1863968,172.037144 78.5233968,171.806144 C79.3963968,177.774144 90.8153968,184.892144 94.1153968,179.370144 C91.8693968,176.670144 83.8083968,177.271144 83.0693968,171.762144 C85.3043968,167.396144 91.7503968,166.921144 91.2433968,160.563144 C91.0963968,158.718144 91.6723968,157.212144 90.2453968,155.646144 L89.1553968,155.847144 C86.1083968,158.571144 89.3813968,162.893144 83.7453968,165.450144 L83.2463968,164.814144 C83.9813968,162.185144 85.0793968,160.040144 85.8563968,157.395144 C87.2263968,152.726144 88.0003968,147.900144 88.8343968,143.108144 C91.3583968,148.926144 94.0813968,155.211144 97.7533968,160.368144 C101.771397,166.009144 106.052397,168.528144 112.978397,169.399144 C122.851397,170.641144 138.183397,169.526144 146.402397,163.368144 C153.680397,157.915144 154.652397,144.688144 155.643397,136.229144 L156.400397,136.081144 L157.204397,139.191144 Z" id="Path" fill="#FFFFFF"></path>
            <path d="M117.616397,183.501144 C119.085397,183.472144 118.984397,183.509144 120.262397,184.271144 L120.462397,185.458144 C117.158397,193.424144 103.179397,192.877144 95.8913968,194.912144 C89.1713968,196.788144 87.8913968,196.956144 82.0413968,200.720144 L80.4123968,201.117144 L79.3873968,200.467144 L79.3303968,199.490144 C85.3893968,191.576144 100.161397,189.627144 109.144397,188.601144 C113.007397,188.159144 115.384397,186.702144 117.616397,183.501144 Z" id="Path" fill="#000000"></path>
            <path d="M174.297397,141.708144 C176.083397,141.801144 176.008397,141.745144 177.543397,142.620144 L177.568397,143.547144 C173.120397,147.435144 172.191397,147.874144 169.087397,152.915144 C171.617397,155.972144 173.711397,158.597144 171.987397,162.814144 L171.006397,163.166144 C169.803397,161.778144 170.166397,161.675144 169.870397,159.461144 C169.374397,158.444144 168.843397,157.474144 168.307397,156.479144 C166.090397,156.881144 166.769397,160.480144 164.070397,161.587144 L163.150397,160.943144 C161.287397,155.963144 170.214397,144.921144 174.297397,141.708144 Z" id="Path" fill="#000000"></path>
            <path d="M134.366397,248.390144 C142.166397,249.842144 151.426397,247.435144 158.290397,255.199144 C172.664397,271.461144 175.004397,307.974144 174.688397,328.349144 C165.052397,321.757144 160.975397,321.131144 149.411397,321.142144 C158.820397,306.342144 155.663397,297.910144 148.881397,282.422144 C148.264397,281.012144 147.703397,280.749144 146.384397,280.391144 C145.814397,280.793144 144.458397,281.617144 144.662397,282.467144 C147.768397,295.400144 153.094397,298.506144 149.007397,312.453144 C146.901397,316.797144 146.000397,318.445144 143.203397,322.417144 C122.844397,323.646144 102.655397,327.114144 82.5303968,328.810144 C78.3173968,326.244144 76.1853968,325.053144 71.6263968,323.004144 C74.5143968,307.087144 76.0483968,290.204144 79.1273968,274.423144 C84.9113968,272.313144 87.2963968,270.584144 90.7933968,265.632144 C94.7753968,268.317144 96.9533968,269.834144 101.621397,271.023144 C108.348397,272.689144 115.462397,271.585144 121.369397,267.960144 C128.971397,263.347144 132.339397,256.730144 134.366397,248.390144 Z" id="Path" fill="#8F8E8E"></path>
            <path d="M96.2153968,215.749144 C99.8803968,215.509144 102.825397,214.833144 105.076397,218.201144 C103.638397,224.148144 85.0233968,224.868144 77.0693968,230.102144 C76.1773968,231.708144 76.1243968,231.225144 76.3403968,232.702144 C79.5163968,234.085144 91.2623968,227.837144 93.3433968,233.326144 C89.1763968,235.621144 83.0753968,233.331144 80.0343968,238.123144 C83.0533968,241.803144 92.7033968,232.942144 96.8593968,239.966144 L96.4873968,240.694144 C92.8473968,241.316144 87.0873968,240.896144 84.8423968,243.668144 L84.9563968,244.586144 C87.8933968,246.280144 91.4933968,244.072144 95.5133968,244.651144 C103.758397,245.838144 98.5793968,258.044144 94.5243968,256.821144 C94.3453968,254.585144 94.3703968,252.777144 93.5213968,250.712144 L92.6833968,250.563144 C85.1063968,255.728144 94.3163968,263.618144 75.5583968,271.183144 C70.9533968,291.141144 69.3713968,310.999144 64.5633968,330.938144 C63.7413968,333.249144 62.8523968,335.944144 61.7773968,338.135144 C59.8453968,342.073144 56.8613968,345.417144 52.5943968,346.803144 C49.8993968,347.678144 46.6563968,347.346144 44.3683968,346.046144 C21.5153968,333.059144 61.9443968,280.428144 62.5563968,261.781144 C62.8243968,253.598144 61.9723968,236.197144 58.7213968,228.636144 C57.4853968,225.764144 53.8703968,221.071144 53.4003968,219.390144 L53.9133968,218.669144 C56.9613968,217.626144 60.5653968,220.377144 62.6943968,222.392144 C67.9743968,227.391144 63.0363968,229.463144 63.0033968,233.133144 L63.8223968,233.839144 C68.5903968,233.382144 74.1363968,223.231144 81.4253968,220.029144 C88.2523968,217.030144 87.9903968,216.744144 96.2153968,215.749144 Z" id="Path" fill="#FFFFFF"></path>
            <path d="M121.016397,104.443144 C126.975397,104.199144 139.624397,104.531144 144.307397,108.372144 C146.652397,110.294144 147.433397,115.354144 147.547397,118.477144 C147.943397,129.328144 148.751397,147.211144 141.428397,155.852144 C137.124397,160.930144 125.207397,161.770144 119.089397,162.098144 C104.780397,161.759144 100.885397,152.448144 96.2973968,140.211144 C93.6683968,133.198144 89.3133968,116.064144 92.5133968,109.276144 C97.7483968,105.415144 114.174397,104.800144 121.016397,104.443144 Z" id="Path" fill="#FFFFFF"></path>
            <path d="M118.566397,127.385144 C126.632397,126.533144 132.881397,126.696144 140.223397,130.120144 C137.343397,142.969144 134.742397,149.186144 120.963397,152.906144 C106.356397,154.611144 103.158397,147.423144 98.3723968,136.276144 C104.749397,130.703144 110.489397,129.132144 118.566397,127.385144 Z" id="Path" fill="#000000"></path>
            <path d="M117.134397,131.420144 C125.148397,130.735144 128.757397,130.879144 136.730397,132.020144 C136.617397,132.486144 136.502397,132.950144 136.382397,133.414144 C134.390397,141.148144 131.936397,144.115144 125.212397,148.067144 C124.678397,148.284144 124.137397,148.482144 123.590397,148.659144 C120.637397,149.615144 110.638397,151.213144 109.530397,147.290144 C119.119397,144.832144 113.243397,135.177144 114.798397,132.099144 L117.134397,131.420144 Z" id="Path" fill="#FFFFFF"></path>
            <path d="M66.5433968,110.604144 C68.8273968,110.384144 77.2543968,109.696144 78.2803968,112.128144 C83.6103968,124.633144 81.5533968,140.308144 79.1713968,153.212144 C76.2873968,168.845144 57.1703968,172.828144 43.8573968,169.221144 C31.2573968,162.056144 27.4803968,136.411144 27.1763968,122.860144 C34.5573968,114.704144 55.6473968,111.690144 66.5433968,110.604144 Z" id="Path" fill="#FFFFFF"></path>
            <path d="M48.5433968,134.145144 C56.4353968,133.423144 71.6183968,133.912144 76.2083968,142.114144 C79.8033968,148.537144 70.1133968,154.969144 65.0923968,157.239144 C50.0183968,161.739144 39.3793968,154.429144 37.4573968,138.924144 C41.3473968,135.821144 43.7383968,135.212144 48.5433968,134.145144 Z" id="Path" fill="#000000"></path>
            <path d="M52.3323968,137.378144 C57.6633968,137.511144 69.2033968,138.075144 72.7123968,142.805144 C73.3823968,143.695144 73.6243968,144.834144 73.3733968,145.919144 C72.6433968,149.077144 68.4643968,151.756144 65.8933968,153.407144 C58.6953968,156.234144 53.9903968,155.240144 47.1293968,152.246144 C54.8023968,148.681144 54.6693968,144.475144 52.3323968,137.378144 Z" id="Path" fill="#FFFFFF"></path>
            <path d="M148.558397,326.608144 C159.260397,325.075144 166.820397,327.194144 174.451397,334.838144 C173.421397,339.208144 172.372397,345.465144 168.915397,348.663144 C157.516397,359.210144 97.6563968,349.184144 81.6583968,348.278144 C73.2773968,356.917144 68.9013968,358.048144 57.2723968,355.457144 C47.2273968,353.628144 50.8663968,365.485144 43.7893968,368.697144 L43.0763968,368.212144 C41.7993968,362.734144 43.6463968,356.876144 45.7413968,351.881144 C61.8883968,352.688144 67.0233968,340.945144 70.4553968,327.646144 C74.5123968,329.587144 76.9953968,330.869144 80.7953968,333.248144 C89.4833968,333.172144 100.534397,331.718144 109.317397,330.739144 C122.383397,329.229144 135.464397,327.852144 148.558397,326.608144 Z" id="Path" fill="#FFFFFF"></path>
            <path d="M44.8643968,66.517144 C45.4143968,66.473144 46.7513968,66.612144 47.0253968,66.993144 C53.9923968,76.708144 61.5563968,83.661144 73.1053968,87.727144 C77.2233968,89.177144 93.3113968,93.639144 95.3943968,87.646144 C94.2403968,83.814144 88.0913968,80.046144 84.3813968,76.137144 C97.9733968,82.670144 113.214397,87.880144 128.672397,86.269144 C131.267397,85.999144 133.377397,85.707144 134.927397,83.693144 C134.787397,81.375144 134.813397,82.077144 133.311397,79.879144 C137.935397,79.461144 141.442397,81.917144 149.150397,81.147144 C151.570397,88.386144 153.331397,93.862144 154.844397,101.302144 C148.106397,98.127144 145.449397,97.938144 138.194397,96.995144 C136.931397,96.898144 135.768397,96.770144 134.510397,96.621144 C134.523397,95.551144 134.774397,94.895144 135.035397,93.851144 L134.370397,92.773144 C126.487397,89.965144 111.527397,91.377144 103.119397,86.868144 C101.805397,86.164144 98.8473968,88.442144 99.4093968,91.421144 C101.901397,95.034144 105.205397,95.659144 109.297397,96.994144 C100.263397,97.691144 91.9483968,99.828144 83.0843968,100.887144 C76.6643968,101.655144 69.7673968,101.812144 63.2293968,102.467144 C49.7783968,103.769144 36.6183968,107.189144 24.2363968,112.601144 C22.1013968,93.967144 23.7453968,72.330144 44.8643968,66.517144 Z" id="Path" fill="#FFFFFF"></path>
            <path d="M61.3803968,85.411144 C69.1063968,88.200144 64.1943968,94.649144 58.9463968,97.238144 C51.0533968,101.131144 45.6843968,102.997144 37.1553968,104.530144 L35.6843968,104.571144 C34.0153968,103.714144 34.7063968,104.296144 33.6093968,102.671144 C33.9023968,101.561144 34.2643968,100.846144 35.4203968,100.336144 C45.2063968,96.025144 52.8793968,91.904144 61.3803968,85.411144 Z" id="Path" fill="#000000"></path>
            <path d="M83.3253968,352.756144 C107.063397,355.716144 127.883397,358.618144 151.864397,357.901144 C153.794397,363.152144 155.707397,369.737144 157.431397,375.155144 C148.386397,378.155144 136.923397,380.017144 127.521397,381.296144 C102.702397,384.299144 79.5733968,381.383144 55.5533968,375.332144 C56.6993968,370.534144 58.3393968,365.387144 59.7483968,360.625144 C71.1693968,361.797144 75.1543968,360.849144 83.3253968,352.756144 Z" id="Path" fill="#8F8E8E"></path>
            <path d="M117.493397,232.483144 L117.851397,232.513144 C119.304397,234.043144 118.964397,243.148144 120.409397,247.169144 C123.688397,248.046144 125.528397,245.075144 128.837397,246.348144 C132.696397,252.401144 121.622397,263.425144 115.902397,265.130144 C110.718397,266.674144 110.247397,266.946144 104.744397,266.732144 C99.8713968,265.651144 97.4293968,264.180144 93.2543968,261.509144 C107.195397,258.934144 103.791397,248.149144 100.285397,238.508144 C99.8633968,237.347144 98.9333968,237.107144 98.4233968,235.568144 C107.712397,235.147144 108.248397,235.285144 117.493397,232.483144 Z" id="Path" fill="#FFFFFF"></path>
            <path d="M146.939397,513.816144 C152.616397,513.098144 164.795397,518.784144 167.134397,524.134144 C166.913397,528.142144 162.227397,528.024144 158.996397,528.022144 C154.069397,528.019144 148.963397,527.905144 144.052397,527.521144 C139.681397,527.220144 124.316397,525.850144 121.879397,522.462144 L122.527397,521.382144 C125.412397,519.577144 143.132397,514.667144 146.939397,513.816144 Z" id="Path" fill="#383738"></path>
            <path d="M65.3413968,513.758144 C69.2003968,513.718144 91.3393968,520.266144 93.7533968,521.717144 L93.6763968,522.466144 C90.2713968,525.458144 79.0353968,526.296144 74.0733968,526.933144 C68.9793968,528.138144 50.1003968,529.545144 47.4953968,524.642144 C48.5053968,519.684144 60.7973968,515.308144 65.3413968,513.758144 Z" id="Path" fill="#383738"></path>
            <path d="M17.9143968,149.866144 C20.5563968,149.747144 21.3643968,149.419144 23.1723968,150.862144 C23.8093968,152.596144 25.8743968,157.751144 25.3393968,159.207144 C22.9943968,157.938144 20.3103968,155.908144 17.7703968,157.038144 L17.4993968,158.504144 C21.1093968,160.648144 23.5723968,161.961144 26.4333968,165.135144 L26.2573968,165.724144 C24.9933968,170.038144 24.5163968,172.123144 26.7223968,176.160144 L27.6493968,176.236144 C28.9203968,174.144144 28.4043968,172.265144 28.2683968,169.612144 L29.0503968,169.196144 L29.8573968,169.929144 C33.0093968,182.963144 30.3383968,175.964144 23.5103968,181.629144 C16.2603968,173.863144 9.31239683,158.987144 17.9143968,149.866144 Z" id="Path" fill="#FFFFFF"></path>
            <path d="M57.5073968,257.722144 L57.9893968,258.576144 C58.6303968,265.815144 43.3953968,298.658144 39.3703968,305.426144 L39.3403968,305.505144 C41.3093968,291.792144 48.6193968,268.394144 57.5073968,257.722144 Z" id="Path" fill="#8F8E8E"></path>
            <path d="M40.7243968,349.365144 C41.2073968,349.617144 42.1803968,350.127144 42.1313968,350.414144 C41.2473968,355.617144 39.0813968,361.211144 38.5873968,366.667144 C38.2873968,366.677144 37.6233968,366.467144 37.2913968,366.382144 C35.0983968,362.482144 38.6423968,353.018144 40.7243968,349.365144 Z" id="Path" fill="#FFFFFF"></path>
            <path d="M36.5853968,346.312144 L37.4473968,346.887144 C37.6673968,348.192144 34.2643968,355.966144 33.4533968,358.632144 L32.4983968,358.395144 C31.3933968,354.947144 34.6783968,349.167144 36.5853968,346.312144 Z" id="Path" fill="#FFFFFF"></path>
            <path d="M155.673397,109.031144 L156.297397,109.598144 C157.082397,112.236144 156.901397,115.396144 156.914397,118.189144 L155.807397,117.411144 C155.024397,115.403144 155.588397,111.603144 155.673397,109.031144 Z" id="Path" fill="#121317"></path>
            <path d="M155.643397,136.229144 C155.755397,132.950144 155.940397,130.230144 157.077397,127.093144 L157.204397,139.191144 L156.400397,136.081144 L155.643397,136.229144 Z" id="Path" fill="#D4D4DA"></path>
        </g>
    </g>
</svg>