<?xml version="1.0" encoding="UTF-8"?>
<svg width="1344px" height="190px" viewBox="0 0 1344 190" version="1.1" xmlns="http://www.w3.org/2000/svg" xmlns:xlink="http://www.w3.org/1999/xlink">
    <title>clouds</title>
    <g id="Redesign-Webseite" stroke="none" stroke-width="1" fill="none" fill-rule="evenodd">
        <g id="clouds" transform="translate(0, 0.0007)">
            <path d="M657.683,24.6673082 C679.631,6.52030816 703.116,0.325308156 731.553,0.00730815555 C751.188,-0.213691844 764.714,4.54530816 778.731,18.6883082 C818.952,2.66530816 845.855,5.06630816 874.229,38.7513082 C897.787,31.0083082 914.85,36.2393082 929.41,56.1573082 C944.925,46.4143082 957.431,43.2943082 975.611,49.2563082 C1003.6,31.7073082 1023.72,21.7063082 1055.65,34.9693082 C1086.76,17.0523082 1123.87,12.4323082 1149.53,41.8893082 C1174.37,29.3073082 1206.45,18.0393082 1228.36,42.8333082 C1253.85,30.1963082 1283.88,24.4853082 1310.07,38.3963082 C1320.55,25.4783082 1328.52,21.2103082 1344,15.3213082 L1344,19.9123082 L1344,168.716308 L1344,184.142308 L1344,188.182308 C1327.59,184.856308 1320.08,182.018308 1306.7,171.563308 C1298.76,173.473308 1281,175.829308 1273.44,173.606308 C1257.69,168.975308 1257.17,171.981308 1242.33,173.887308 C1224.7,176.149308 1201.75,174.037308 1184.59,168.901308 C1149.03,177.778308 1104.81,178.442308 1074.51,155.051308 C1050.44,176.965308 1017.13,175.601308 986.175,175.378308 C974.691,175.295308 964.142,170.944308 953.561,171.085308 C947.231,171.169308 935.831,173.861308 928.876,174.582308 C898.146,177.768308 863.853,180.392308 837.664,161.160308 C803.785,182.496308 751.874,184.622308 713.142,177.509308 C708.549,176.666308 701.891,174.507308 697.397,174.281308 C689.573,173.887308 681.672,176.451308 673.649,176.764308 C666.231,177.293308 656.406,174.025308 649.352,175.434308 C635.531,178.195308 623.638,180.917308 609.331,181.308308 C595.412,181.688308 582.273,178.054308 568.767,177.647308 C562.168,177.448308 551.968,181.436308 545.039,181.550308 C511.078,185.097308 466.285,186.185308 438.82,162.777308 C403.596,183.141308 365.767,185.494308 326.071,181.343308 C318.995,180.603308 304.771,175.965308 299.494,176.183308 C276.605,177.133308 246.693,184.932308 232.329,160.281308 C213.301,160.497308 201.955,159.272308 183.026,154.978308 C166.744,160.767308 158.062,162.347308 140.739,162.177308 C131.744,173.365308 122.186,177.284308 108.067,178.830308 C93.3906,180.327308 78.5633,179.065308 64.351,175.107308 C42.8839,188.524308 25.2967,189.785308 0,189.194308 L0,185.252308 L0,171.008308 L0,17.6933082 L0,13.3693082 C26.1425,7.75030816 61.7463,11.6303082 82.9362,29.2523082 C104.087,19.6333082 123.856,21.9863082 142.846,34.8953082 C156.191,27.3213082 158.864,29.8893082 173.132,27.8523082 C176.296,27.4003082 186.296,23.4923082 190.662,22.5843082 C213.139,17.9143082 239.447,17.7483082 261.577,23.8493082 L262.131,24.0053082 C280.963,8.31730816 301.049,1.95430816 325.389,0.460308156 C347.978,-0.926691844 364.165,2.73430816 380.184,19.2333082 C419.406,4.34330816 446.863,4.97330816 475.057,38.4833082 C497.903,30.7943082 514.667,34.7493082 532.662,50.7143082 C543.033,45.7923082 553.626,43.0503082 565.196,44.6843082 C586.42,25.8163082 614.236,21.5583082 641.776,23.1653082 C647.092,23.5163082 652.396,24.0173082 657.683,24.6673082 Z" id="Path" fill="#252425"></path>
            <path d="M0,17.6933082 C37.4034,10.5673082 87.578,18.8833082 99.6571,61.8193082 C101.371,67.9123082 98.3478,77.1403082 99.5673,81.7243082 C105.873,78.2323082 104.481,71.2733082 104.401,64.8663082 C107.877,63.8393082 111.273,63.1743082 114.812,62.4353082 C143.077,61.3623082 171.318,72.0333082 147.552,104.353308 C146.99,105.118308 147.545,106.377308 147.831,107.068308 C158.244,108.132308 161.332,107.665308 165.698,97.6203082 C173.04,101.564308 176.319,104.734308 179.999,112.412308 C171.052,126.142308 169.867,131.906308 152.322,138.689308 C148.571,133.039308 142.525,127.293308 135.478,131.778308 C130.28,135.086308 131.382,140.568308 129.744,145.573308 C122.274,160.990308 98.26,161.671308 84.58,161.487308 C84.5232,152.444308 80.4979,143.028308 70.7353,150.522308 C49.3152,166.965308 26.795,172.629308 0,171.008308 L0,17.6933082 Z" id="Path" fill="#FEFEFE"></path>
            <path d="M104.401,64.8663082 C107.877,63.8393082 111.273,63.1743082 114.812,62.4353082 C115.02,69.2823082 115.534,77.6113082 110.764,83.1653082 C107.55,86.9073082 102.433,84.4763082 99.5673,81.7243082 C105.873,78.2323082 104.481,71.2733082 104.401,64.8663082 Z" id="Path" fill="#B3C0CA"></path>
            <path d="M61.1234,96.7543082 C58.9338,94.3473082 57.493,92.7523082 57.5814,89.3183082 C59.7723,83.1863082 68.6111,84.2573082 73.6355,86.2643082 C81.6373,89.3993082 90.8764,96.5083082 88.9195,106.234308 C88.5566,108.038308 86.6363,108.867308 85.1118,109.451308 C82.28,110.536308 82.2304,110.165308 81.5294,113.394308 C77.7836,112.375308 75.6945,106.010308 72.7399,103.827308 C69.5971,101.505308 64.5806,98.8073082 61.1234,96.7543082 Z" id="Path" fill="#B3C0CA"></path>
            <path d="M61.1234,96.7543082 C67.9061,91.4343082 82.5876,104.072308 81.5294,113.394308 C77.7836,112.375308 75.6945,106.010308 72.7399,103.827308 C69.5971,101.505308 64.5806,98.8073082 61.1234,96.7543082 Z" id="Path" fill="#252425"></path>
            <path d="M1305.34,68.9663082 C1307.12,62.5303082 1305.21,56.6903082 1309.31,48.2233082 C1316.84,32.6723082 1328.81,25.6633082 1344,19.9123082 L1344,168.716308 C1336.58,166.591308 1327.6,163.630308 1321.08,159.561308 C1310.82,153.158308 1286.57,124.654308 1287.85,157.479308 C1278.47,157.584308 1274.69,156.920308 1267.29,154.782308 C1245.59,148.507308 1253.9,131.003308 1249.6,127.515308 C1238.98,118.899308 1229.9,122.271308 1220.61,104.191308 C1227.28,92.1043082 1242.05,88.2583082 1254.87,87.9833082 L1261.93,88.6423082 C1262.88,93.4363082 1263.67,98.6713082 1268.13,101.530308 C1268.8,101.955308 1269.49,102.335308 1270.21,102.670308 C1270.45,102.300308 1271.06,100.536308 1270.91,100.244308 C1258.46,76.9723082 1268.96,55.6333082 1295.3,53.0853082 L1302.84,53.3493082 C1302.14,58.0513082 1300.94,62.5823082 1302.84,66.9443082 C1303.65,67.6623082 1304.41,68.4233082 1305.34,68.9663082 Z" id="Path" fill="#FEFEFE"></path>
            <path d="M1295.3,53.0853082 L1302.84,53.3493082 C1302.14,58.0513082 1300.94,62.5823082 1302.84,66.9443082 C1303.65,67.6623082 1304.41,68.4233082 1305.34,68.9663082 C1303.21,71.0543082 1301.96,71.5543082 1299.05,71.5663082 C1291.97,69.1703082 1293.33,58.6053082 1295.3,53.0853082 Z" id="Path" fill="#B3C0CA"></path>
            <path d="M1254.87,87.9833082 L1261.93,88.6423082 C1262.88,93.4363082 1263.67,98.6713082 1268.13,101.530308 C1268.8,101.955308 1269.49,102.335308 1270.21,102.670308 C1258.53,109.943308 1255.01,96.9083082 1254.87,87.9833082 Z" id="Path" fill="#B3C0CA"></path>
            <path d="M179.999,112.412308 C184.853,136.594308 167.941,150.105308 145.481,152.748308 C145.581,148.421308 145.581,139.691308 142.004,136.843308 L140.524,137.099308 C141.22,146.474308 142.067,155.047308 135.161,162.450308 C119.729,178.992308 88.191,176.384308 68.5765,172.109308 C72.1485,168.888308 76.3887,165.422308 78.1978,160.943308 L77.957,159.334308 L76.8087,158.660308 C74.4576,159.624308 70.1313,164.879308 67.929,166.878308 C48.8813,184.167308 25.0678,185.383308 0,185.252308 L0,171.008308 C26.795,172.629308 49.3152,166.965308 70.7353,150.522308 C80.4979,143.028308 84.5232,152.444308 84.58,161.487308 C98.26,161.671308 122.274,160.990308 129.744,145.573308 C131.382,140.568308 130.28,135.086308 135.478,131.778308 C142.525,127.293308 148.571,133.039308 152.322,138.689308 C169.867,131.906308 171.052,126.142308 179.999,112.412308 Z" id="Path" fill="#B3C0CA"></path>
            <path d="M1241.63,136.854308 C1238.96,135.949308 1236.33,134.915308 1233.76,133.757308 C1221.61,128.138308 1214.64,117.163308 1220.61,104.191308 C1229.9,122.271308 1238.98,118.899308 1249.6,127.515308 C1253.9,131.003308 1245.59,148.507308 1267.29,154.782308 C1274.69,156.920308 1278.47,157.584308 1287.85,157.479308 C1286.57,124.654308 1310.82,153.158308 1321.08,159.561308 C1327.6,163.630308 1336.58,166.591308 1344,168.716308 L1344,184.142308 C1330.83,180.928308 1318.7,177.110308 1308.75,167.353308 C1305.69,164.353308 1298.81,154.659308 1295.2,155.010308 L1295.01,156.150308 C1296.69,160.964308 1300.23,164.708308 1303.65,168.347308 C1289.75,171.089308 1273.15,171.033308 1259.7,166.340308 C1246.07,161.587308 1236.23,151.804308 1241.63,136.854308 Z" id="Path" fill="#B3C0CA"></path>
            <path d="M158.708,95.5473082 L165.698,97.6203082 C161.332,107.665308 158.244,108.132308 147.831,107.068308 C153.646,105.621308 155.97,100.360308 158.708,95.5473082 Z" id="Path" fill="#B3C0CA"></path>
            <path d="M912.486,88.0943082 C913.753,85.1803082 913.93,80.4083082 915.566,77.0373082 C920.759,66.3343082 932.619,57.1403082 943.743,53.2583082 C957.14,48.5843082 967.943,50.2753082 980.272,56.0343082 C984.199,58.4653082 985.335,59.2923082 988.826,62.3743082 C985.303,67.1453082 981.719,71.7493082 982.408,77.8453082 C983.215,79.3343082 983.236,79.3933082 984.616,80.3183082 C987.396,74.9373082 986.178,70.3993082 991.353,65.6713082 C1004.25,53.8843082 1018.64,60.7263082 1029.04,71.4093082 C1032.66,75.2983082 1034.91,78.9253082 1037.62,83.4763082 C1030.17,83.9103082 1013.47,83.7023082 1009.31,89.7523082 C1014.31,91.8503082 1022.64,88.5513082 1028.15,88.0513082 C1052.85,85.8113082 1075.89,93.6413082 1082.08,120.254308 C1082.44,132.655308 1080.8,142.952308 1071.68,152.460308 C1055.71,169.108308 1024.29,171.120308 1002.64,171.640308 C989.254,171.961308 974.831,170.868308 961.816,167.923308 C952.672,165.854308 944.359,163.084308 935.032,161.596308 L934.652,162.618308 C936.565,165.950308 942.544,167.165308 946.294,168.319308 C916,172.690308 883.844,176.782308 854.305,166.331308 C842.723,162.233308 827.408,149.752308 833.579,135.949308 C840.441,121.456308 853.764,116.163308 869.223,115.789308 C872.394,115.712308 878.438,118.223308 880.022,114.607308 C878.657,112.614308 876.136,112.198308 873.93,111.785308 L863.806,112.300308 C863.494,107.434308 862.988,102.785308 863.945,97.9663082 C868.475,75.1543082 892.246,74.5283082 910.441,77.9913082 C909.553,82.1583082 908.538,85.3343082 912.486,88.0943082 Z" id="Path" fill="#FEFEFE"></path>
            <path d="M1082.08,120.254308 C1082.44,132.655308 1080.8,142.952308 1071.68,152.460308 C1055.71,169.108308 1024.29,171.120308 1002.64,171.640308 C989.254,171.961308 974.831,170.868308 961.816,167.923308 C952.672,165.854308 944.359,163.084308 935.032,161.596308 L934.652,162.618308 C936.565,165.950308 942.544,167.165308 946.294,168.319308 C916,172.690308 883.844,176.782308 854.305,166.331308 C842.723,162.233308 827.408,149.752308 833.579,135.949308 C837.607,137.351308 840.07,135.756308 842.533,141.486308 C845.835,149.726308 852.126,153.054308 859.854,155.751308 C889.265,166.013308 918.623,161.253308 948.224,155.889308 C951.914,155.221308 968.218,158.192308 973.395,158.636308 C999.993,160.916308 1028.03,162.307308 1053.03,151.145308 C1071.63,142.892308 1068.13,126.919308 1082.08,120.254308 Z" id="Path" fill="#B3C0CA"></path>
            <path d="M863.806,112.300308 C863.494,107.434308 862.988,102.785308 863.945,97.9663082 C868.475,75.1543082 892.246,74.5283082 910.441,77.9913082 C909.553,82.1583082 908.538,85.3343082 912.486,88.0943082 C889.462,87.6423082 876.772,84.5653082 873.93,111.785308 L863.806,112.300308 Z" id="Path" fill="#B3C0CA"></path>
            <path d="M1029.04,71.4093082 C1032.66,75.2983082 1034.91,78.9253082 1037.62,83.4763082 C1030.17,83.9103082 1013.47,83.7023082 1009.31,89.7523082 C994.032,76.8283082 1021.74,73.3103082 1029.04,71.4093082 Z" id="Path" fill="#B3C0CA"></path>
            <path d="M980.272,56.0343082 C984.199,58.4653082 985.335,59.2923082 988.826,62.3743082 C985.303,67.1453082 981.719,71.7493082 982.408,77.8453082 C983.215,79.3343082 983.236,79.3933082 984.616,80.3183082 C981.834,80.3933082 974.718,84.3553082 973.365,77.4003082 C972.017,70.4713082 976.741,61.8563082 980.272,56.0343082 Z" id="Path" fill="#B3C0CA"></path>
            <path d="M507.853,94.9803082 C509.709,93.7533082 509.387,92.0883082 509.258,90.0333082 C506.935,52.9363082 571.361,32.5633082 591.364,63.6883082 C593.257,66.6333082 593.574,71.7593082 597.128,72.3623082 L598.548,70.9093082 C598.089,66.6733082 595.444,62.3603082 593.316,58.6833082 C602.17,58.2523082 610.413,57.5723082 618.82,60.9403082 C628.795,64.9373082 636.394,72.7743082 636.473,83.9503082 C636.488,86.0693082 636.741,86.8333082 635.802,88.8873082 C631.373,92.6523082 620.308,87.7403082 613.963,94.3833082 C615.058,95.4923082 615.184,96.0363082 616.882,95.8313082 C628.132,94.4733082 637.255,93.1023082 648.253,97.5543082 C652.504,99.5583082 654.209,100.453308 658.171,103.101308 C656.638,109.843308 656.649,112.709308 657.13,119.843308 C641.346,124.382308 625.209,136.413308 629.498,155.393308 C630.841,161.336308 636.33,167.152308 641.635,170.022308 C642.97,170.731308 644.323,171.404308 645.694,172.040308 C627.404,177.036308 608.329,178.503308 589.491,176.362308 C579.131,175.281308 570.016,173.427308 560.127,170.202308 C557.446,169.327308 551.412,167.335308 548.795,168.035308 C548.567,171.760308 557.882,173.853308 561.02,174.841308 C528.085,183.278308 478.673,182.216308 448.256,165.248308 C438.083,159.574308 430.383,148.951308 434.659,137.018308 C443.129,120.384308 459.435,114.755308 477.214,118.036308 C479.742,117.561308 478.924,118.097308 480.324,116.112308 L480.687,116.351308 L480.064,115.291308 C475.834,112.761308 468.237,113.063308 463.377,113.122308 C463.435,111.497308 463.525,109.874308 463.647,108.253308 C465.47,85.4803082 485.723,81.3533082 504.616,82.9393082 C504.816,87.9193082 504.259,91.4583082 507.853,94.9803082 Z" id="Path" fill="#FEFEFE"></path>
            <path d="M648.253,97.5543082 C652.504,99.5583082 654.209,100.453308 658.171,103.101308 C656.638,109.843308 656.649,112.709308 657.13,119.843308 C641.346,124.382308 625.209,136.413308 629.498,155.393308 C630.841,161.336308 636.33,167.152308 641.635,170.022308 C642.97,170.731308 644.323,171.404308 645.694,172.040308 C627.404,177.036308 608.329,178.503308 589.491,176.362308 C579.131,175.281308 570.016,173.427308 560.127,170.202308 C557.446,169.327308 551.412,167.335308 548.795,168.035308 C548.567,171.760308 557.882,173.853308 561.02,174.841308 C528.085,183.278308 478.673,182.216308 448.256,165.248308 C438.083,159.574308 430.383,148.951308 434.659,137.018308 C445.314,137.668308 441.661,143.736308 447.843,149.559308 C451.26,152.777308 458.852,155.769308 463.474,157.373308 C487.124,165.580308 512.204,167.386308 536.981,164.576308 C546.997,163.439308 557.834,159.240308 567.559,158.843308 C572.592,158.638308 582.521,161.357308 588.161,161.977308 C599.162,163.187308 608.715,162.719308 619.631,162.163308 C614.807,140.226308 622.618,120.492308 643.957,111.555308 C645.074,105.849308 646.19,102.849308 648.253,97.5543082 Z" id="Path" fill="#B3C0CA"></path>
            <path d="M463.377,113.122308 C463.435,111.497308 463.525,109.874308 463.647,108.253308 C465.47,85.4803082 485.723,81.3533082 504.616,82.9393082 C504.816,87.9193082 504.259,91.4583082 507.853,94.9803082 C501.162,94.2253082 480.902,94.4093082 479.147,101.984308 C481.488,107.244308 502.97,110.392308 487.438,119.274308 C485.782,120.221308 478.745,118.681308 477.214,118.036308 C479.742,117.561308 478.924,118.097308 480.324,116.112308 L480.687,116.351308 L480.064,115.291308 C475.834,112.761308 468.237,113.063308 463.377,113.122308 Z" id="Path" fill="#B3C0CA"></path>
            <path d="M593.316,58.6833082 C602.17,58.2523082 610.413,57.5723082 618.82,60.9403082 C628.795,64.9373082 636.394,72.7743082 636.473,83.9503082 C636.488,86.0693082 636.741,86.8333082 635.802,88.8873082 C631.373,92.6523082 620.308,87.7403082 613.963,94.3833082 C608.059,82.9413082 611.9,81.4453082 622.911,78.9123082 C617.995,74.2933082 604.951,65.0763082 598.548,70.9093082 C598.089,66.6733082 595.444,62.3603082 593.316,58.6833082 Z" id="Path" fill="#B3C0CA"></path>
            <path d="M642.345,43.2943082 C643.553,43.6213082 644.351,44.1353082 645.126,43.4523082 C651.605,37.7423082 658.605,28.4333082 665.55,23.2913082 C687.086,7.34230816 723.432,0.470308156 749.349,5.90430816 C763.996,8.97530816 775.702,19.2753082 782.991,31.4593082 C786.383,37.0763082 789.058,43.0943082 790.956,49.3753082 C791.943,52.7153082 793.227,62.5883082 795.99,63.6873082 C802.262,55.2263082 786.423,29.5393082 781.367,22.0893082 C785.761,19.9793082 789.263,18.8423082 793.902,17.4933082 C835.415,5.73030816 864.023,21.0393082 880.594,60.4063082 C881.424,62.2323082 881.631,62.5263082 882.927,64.0603082 L884.31,64.0043082 L884.984,62.7333082 C884.651,57.6263082 878.702,47.2743082 876.089,42.2463082 C879.073,41.1203082 882.682,40.2853082 885.808,39.4733082 C898.572,38.9163082 908.522,40.3413082 918.524,49.3983082 C921.406,52.5383082 923.586,55.3053082 926.197,58.6443082 C919.407,64.6393082 917.244,67.1313082 912.295,74.7123082 C882.359,68.4933082 855.412,76.2713082 860.496,112.703308 C853.243,113.906308 848.701,115.744308 842.443,119.414308 C829.735,103.072308 820.204,100.271308 800.334,100.569308 C789.949,85.3023082 780.461,75.9113082 761.217,82.8993082 C738.563,61.1783082 719.24,58.3983082 694.723,79.6223082 C676.954,81.4333082 670.236,84.3433082 659.754,99.4073082 C653.154,94.7103082 647.311,92.7353082 639.68,90.4193082 C642.261,61.2853082 615.474,49.2813082 590.745,55.9953082 C583.211,49.8393082 579.317,48.1283082 570.33,45.4203082 C574.635,41.9263082 578.466,39.6643082 583.291,37.0273082 C602.086,27.4733082 618.818,27.2283082 639.313,26.9953082 L654.095,28.1293082 C650.403,32.1053082 643.924,38.4093082 642.345,43.2943082 Z" id="Path" fill="#FEFEFE"></path>
            <path d="M570.33,45.4203082 C574.635,41.9263082 578.466,39.6643082 583.291,37.0273082 C586.803,39.1663082 590.815,41.5323082 593.883,44.2273082 C606.481,41.5343082 619.786,42.5653082 630.805,49.8073082 C636.55,53.6203082 641.237,58.8263082 644.43,64.9383082 C647.773,71.2383082 649.169,82.9283082 654.883,84.0423082 C657.295,82.9173082 660.217,80.5953082 662.234,78.8143082 C671.998,70.1893082 677.223,68.3983082 690.486,68.9933082 C714.632,48.0303082 738.623,46.8783082 762.82,69.3433082 C781.966,65.1693082 795.742,71.9403082 805.753,88.5823082 C824.07,90.5113082 833.225,92.7343082 846.384,106.605308 C848.274,84.0913082 856.951,66.7093082 880.594,60.4063082 C881.424,62.2323082 881.631,62.5263082 882.927,64.0603082 L884.31,64.0043082 L884.984,62.7333082 C884.651,57.6263082 878.702,47.2743082 876.089,42.2463082 C879.073,41.1203082 882.682,40.2853082 885.808,39.4733082 C898.572,38.9163082 908.522,40.3413082 918.524,49.3983082 C921.406,52.5383082 923.586,55.3053082 926.197,58.6443082 C919.407,64.6393082 917.244,67.1313082 912.295,74.7123082 C882.359,68.4933082 855.412,76.2713082 860.496,112.703308 C853.243,113.906308 848.701,115.744308 842.443,119.414308 C829.735,103.072308 820.204,100.271308 800.334,100.569308 C789.949,85.3023082 780.461,75.9113082 761.217,82.8993082 C738.563,61.1783082 719.24,58.3983082 694.723,79.6223082 C676.954,81.4333082 670.236,84.3433082 659.754,99.4073082 C653.154,94.7103082 647.311,92.7353082 639.68,90.4193082 C642.261,61.2853082 615.474,49.2813082 590.745,55.9953082 C583.211,49.8393082 579.317,48.1283082 570.33,45.4203082 Z" id="Path" fill="#B3C0CA"></path>
            <path d="M885.808,39.4733082 C898.572,38.9163082 908.522,40.3413082 918.524,49.3983082 C913.984,52.4643082 911.01,55.5733082 907.476,59.6313082 C900.763,58.0133082 895.303,58.0743082 888.466,58.1183082 C895.235,50.8243082 891.485,45.9243082 885.808,39.4733082 Z" id="Path" fill="#FEFEFE"></path>
            <path d="M793.902,17.4933082 C796.422,21.5013082 799.477,26.1203082 801.434,29.9963082 C805.474,38.0003082 819.86,68.2183082 801.278,67.4793082 C800.068,67.4313082 796.944,64.5603082 795.99,63.6873082 C802.262,55.2263082 786.423,29.5393082 781.367,22.0893082 C785.761,19.9793082 789.263,18.8423082 793.902,17.4933082 Z" id="Path" fill="#B3C0CA"></path>
            <path d="M639.313,26.9953082 L654.095,28.1293082 C650.403,32.1053082 643.924,38.4093082 642.345,43.2943082 C635.323,37.9423082 636.664,35.2983082 640.107,28.1473082 L639.313,26.9953082 Z" id="Path" fill="#B3C0CA"></path>
            <path d="M246.757,42.0693082 C247.371,42.3153082 248.343,42.8793082 248.702,42.5933082 C256.315,36.5943082 262.449,28.1703082 270.512,22.4033082 C292.947,6.35630816 330.152,-0.410691844 356.284,7.96330816 C379.464,15.3913082 391.932,40.6193082 395.9,62.7473082 C396.051,63.5893082 397.069,64.1553082 397.795,64.4443082 C404.849,57.4463082 387.198,29.0623082 382.968,22.5633082 C386.838,20.9403082 391.477,19.4363082 395.482,18.0293082 C468.882,-0.765691844 477.268,63.0053082 486.241,61.9873082 C486.937,60.4813082 486.711,60.1703082 486.319,58.4463082 C485.059,57.3693082 478.484,44.3533082 477.177,41.8933082 C481.617,40.4383082 484.876,39.8613082 489.434,38.9983082 C501.864,38.7043082 509.468,39.5953082 520.413,46.4223082 C524.021,48.6723082 525.481,50.0933082 528.548,52.9263082 C516.231,60.4753082 511.411,66.2733082 505.36,79.3243082 C485.712,75.1253082 461.849,83.8403082 459.954,106.416308 C459.762,108.705308 459.92,111.558308 459.97,113.888308 C452.799,115.542308 449.613,116.926308 443.403,120.648308 C430.771,104.549308 421.582,101.527308 401.684,101.849308 C392.974,87.2903082 380.975,76.3983082 363.368,84.1973082 C339.837,62.9223082 322.015,58.3453082 296.357,80.7283082 C278.828,81.4113082 271.791,86.1513082 261.64,100.087308 C254.822,95.2293082 249.684,93.2983082 241.81,90.9343082 C249.408,61.7193082 226.057,45.2593082 199.234,45.8173082 C191.318,36.4893082 189.309,35.5033082 178.168,30.4313082 C183.891,28.6193082 188.188,27.3723082 194.032,26.0613082 C211.535,22.0823082 229.025,22.9003082 246.657,24.8173082 C250.321,25.4653082 255.381,26.2153082 258.879,27.0773082 C255.377,30.5743082 247.539,37.5983082 246.757,42.0693082 Z" id="Path" fill="#FEFEFE"></path>
            <path d="M194.032,26.0613082 C196.747,29.0433082 199.488,32.0033082 202.253,34.9403082 C216.531,35.8573082 231.049,37.4603082 241.228,49.0273082 C244.959,53.3333082 247.693,58.4103082 249.234,63.8963082 C251.347,71.1693082 250.315,82.7353082 256.483,84.8063082 C264.636,84.0113082 265.049,68.9293082 292.892,69.7013082 C315.681,47.9623082 342.388,49.2763082 364.844,70.4723082 C383.113,66.1743082 398.759,73.0533082 407.069,90.0723082 C425.898,91.6853082 433.949,93.9253082 447.35,107.966308 C451.297,78.2253082 470.649,65.7993082 499.185,66.4233082 C505.497,55.2743082 508.975,52.2253082 520.413,46.4223082 C524.021,48.6723082 525.481,50.0933082 528.548,52.9263082 C516.231,60.4753082 511.411,66.2733082 505.36,79.3243082 C485.712,75.1253082 461.849,83.8403082 459.954,106.416308 C459.762,108.705308 459.92,111.558308 459.97,113.888308 C452.799,115.542308 449.613,116.926308 443.403,120.648308 C430.771,104.549308 421.582,101.527308 401.684,101.849308 C392.974,87.2903082 380.975,76.3983082 363.368,84.1973082 C339.837,62.9223082 322.015,58.3453082 296.357,80.7283082 C278.828,81.4113082 271.791,86.1513082 261.64,100.087308 C254.822,95.2293082 249.684,93.2983082 241.81,90.9343082 C249.408,61.7193082 226.057,45.2593082 199.234,45.8173082 C191.318,36.4893082 189.309,35.5033082 178.168,30.4313082 C183.891,28.6193082 188.188,27.3723082 194.032,26.0613082 Z" id="Path" fill="#B3C0CA"></path>
            <path d="M382.968,22.5633082 C386.838,20.9403082 391.477,19.4363082 395.482,18.0293082 C396.743,21.2933082 399.408,23.9193082 400.993,27.0433082 C405.708,36.3343082 420.297,61.5733082 406.211,68.4713082 C403.248,69.9233082 399.849,66.2373082 397.795,64.4443082 C404.849,57.4463082 387.198,29.0623082 382.968,22.5633082 Z" id="Path" fill="#B3C0CA"></path>
            <path d="M477.177,41.8933082 C481.617,40.4383082 484.876,39.8613082 489.434,38.9983082 L488.942,40.0933082 C491.247,43.4643082 495.234,48.3493082 494.946,52.3173082 C492.403,57.6983082 489.018,55.2413082 486.319,58.4463082 C485.059,57.3693082 478.484,44.3533082 477.177,41.8933082 Z" id="Path" fill="#B3C0CA"></path>
            <path d="M246.657,24.8173082 C250.321,25.4653082 255.381,26.2153082 258.879,27.0773082 C255.377,30.5743082 247.539,37.5983082 246.757,42.0693082 C245.242,39.5273082 240.887,38.5503082 240.989,33.7333082 C241.066,30.1153082 244.386,27.1983082 246.657,24.8173082 Z" id="Path" fill="#B3C0CA"></path>
            <path d="M307.603,76.3263082 C326.346,63.6243082 345.375,71.4013082 359.865,86.1523082 L352.485,93.1643082 C351.613,95.4453082 351.155,95.4363082 351.798,97.3863082 C354.889,97.1273082 360.229,91.0283082 362.622,88.6353082 C379.331,80.7423082 388.297,88.3463082 397.804,102.184308 C394.205,102.787308 390.359,103.027308 387.948,105.856308 C394.103,110.419308 412.395,98.1983082 433.094,114.728308 C436.437,117.954308 437.385,119.057308 440.135,122.757308 C428.748,136.197308 425.765,144.438308 435.877,159.941308 C402.222,179.246308 348.292,184.670308 311.329,174.644308 C310.068,174.303308 308.821,173.914308 307.59,173.477308 C310.153,172.800308 314.632,171.919308 316.556,170.417308 L316.53,169.267308 C314.987,168.174308 313.712,168.084308 311.803,168.562308 C295.785,172.571308 281.873,174.591308 265.432,174.045308 C248.303,173.476308 226.263,161.550308 236.496,141.416308 C250.724,115.530308 275.405,129.300308 279.1,124.729308 C277.763,122.351308 273.789,121.428308 271.329,121.031308 L262.666,120.755308 C261.621,97.5063082 271.631,88.2553082 293.949,84.3603082 C290.236,90.2373082 290.826,91.8763082 288.667,97.5333082 L288.535,97.8733082 C288.949,100.071308 289.059,101.692308 290.538,103.331308 C294.178,101.261308 293.124,92.0393082 296.566,87.0283082 C300.083,81.9083082 302.445,79.9343082 307.603,76.3263082 Z" id="Path" fill="#FEFEFE"></path>
            <path d="M433.094,114.728308 C436.437,117.954308 437.385,119.057308 440.135,122.757308 C428.748,136.197308 425.765,144.438308 435.877,159.941308 C402.222,179.246308 348.292,184.670308 311.329,174.644308 C310.068,174.303308 308.821,173.914308 307.59,173.477308 C310.153,172.800308 314.632,171.919308 316.556,170.417308 L316.53,169.267308 C314.987,168.174308 313.712,168.084308 311.803,168.562308 C295.785,172.571308 281.873,174.591308 265.432,174.045308 C248.303,173.476308 226.263,161.550308 236.496,141.416308 C237.199,141.735308 237.892,142.076308 238.573,142.439308 C247.383,147.150308 241.795,157.205308 250.232,160.919308 C267.129,168.359308 285.564,160.769308 302.806,160.087308 C311.849,159.730308 322.869,164.217308 331.961,165.021308 C364.446,169.121308 388.849,166.149308 419.324,155.672308 C415.311,137.504308 419.946,126.980308 433.094,114.728308 Z" id="Path" fill="#B3C0CA"></path>
            <path d="M307.603,76.3263082 C326.346,63.6243082 345.375,71.4013082 359.865,86.1523082 L352.485,93.1643082 C343.53,79.9403082 327.176,83.2343082 314.061,82.2953082 C310.822,82.0633082 309.156,78.8403082 307.603,76.3263082 Z" id="Path" fill="#B3C0CA"></path>
            <path d="M262.666,120.755308 C261.621,97.5063082 271.631,88.2553082 293.949,84.3603082 C290.236,90.2373082 290.826,91.8763082 288.667,97.5333082 L288.535,97.8733082 C277.632,101.134308 272.557,110.175308 271.329,121.031308 L262.666,120.755308 Z" id="Path" fill="#B3C0CA"></path>
            <path d="M362.622,88.6353082 C379.331,80.7423082 388.297,88.3463082 397.804,102.184308 C394.205,102.787308 390.359,103.027308 387.948,105.856308 C388.199,103.765308 385.486,100.503308 383.93,99.2273082 C379.195,95.3403082 373.641,95.5513082 368.202,95.9243082 C366.582,94.1063082 364.324,90.7783082 362.622,88.6353082 Z" id="Path" fill="#B3C0CA"></path>
            <path d="M705.973,75.1603082 C725.709,62.9873082 742.633,70.1583082 758.032,84.9353082 C756.967,85.9513082 751.113,91.7023082 750.348,91.9973082 C749.581,93.8733082 749.303,94.1393082 749.778,95.9853082 L750.91,96.2163082 C754.156,94.5403082 758.236,90.1133082 761.011,87.3823082 C777.375,79.5273082 786.901,87.3813082 796.201,100.845308 C792.126,101.691308 789.943,101.840308 786.39,104.031308 C787.321,105.158308 787.709,106.184308 789.286,105.984308 C805.825,103.878308 817.239,102.288308 831.702,113.155308 C835.294,116.477308 836.212,117.501308 839.13,121.429308 C828.042,133.987308 824.395,143.870308 834.916,158.520308 C796.907,179.243308 747.388,181.871308 705.838,172.077308 C708.442,171.318308 713.194,170.266308 715.065,168.646308 L714.762,167.551308 C709.604,164.710308 668.851,179.722308 644.909,167.994308 C639.296,165.244308 634.509,160.583308 632.79,154.431308 C631.483,149.754308 632.254,144.638308 634.608,140.409308 C635.21,139.432308 635.839,138.471308 636.493,137.528308 C652.504,114.656308 673.725,128.906308 677.183,123.690308 C675.709,121.253308 671.866,120.496308 669.313,119.994308 C667.315,120.075308 662.88,119.706308 660.708,119.592308 C658.784,97.8453082 670.725,86.5583082 691.693,83.6733082 C688.667,89.1793082 687.972,91.9863082 686.616,97.9313082 C687.02,100.037308 687.043,100.461308 688.28,102.187308 C691.388,102.506308 691.749,91.7403082 693.06,88.6823082 C695.62,82.7133082 700.981,78.8923082 705.973,75.1603082 Z" id="Path" fill="#FEFEFE"></path>
            <path d="M831.702,113.155308 C835.294,116.477308 836.212,117.501308 839.13,121.429308 C828.042,133.987308 824.395,143.870308 834.916,158.520308 C796.907,179.243308 747.388,181.871308 705.838,172.077308 C708.442,171.318308 713.194,170.266308 715.065,168.646308 L714.762,167.551308 C709.604,164.710308 668.851,179.722308 644.909,167.994308 C639.296,165.244308 634.509,160.583308 632.79,154.431308 C631.483,149.754308 632.254,144.638308 634.608,140.409308 C635.329,141.186308 637.051,142.043308 638.038,142.492308 C646.714,146.445308 639.194,155.950308 648.457,159.735308 C666.151,166.966308 683.706,159.312308 701.523,158.499308 C709.815,158.121308 721.373,162.638308 729.88,163.302308 C759.541,167.057308 790.242,164.972308 818.186,154.002308 C814.87,135.244308 818.161,126.266308 831.702,113.155308 Z" id="Path" fill="#B3C0CA"></path>
            <path d="M705.973,75.1603082 C725.709,62.9873082 742.633,70.1583082 758.032,84.9353082 C756.967,85.9513082 751.113,91.7023082 750.348,91.9973082 C745.345,81.8653082 726.908,80.5863082 717.248,81.5273082 C711.186,82.1173082 708.598,80.4133082 705.973,75.1603082 Z" id="Path" fill="#B3C0CA"></path>
            <path d="M660.708,119.592308 C658.784,97.8453082 670.725,86.5583082 691.693,83.6733082 C688.667,89.1793082 687.972,91.9863082 686.616,97.9313082 C679.753,93.4333082 669.744,113.066308 669.313,119.994308 C667.315,120.075308 662.88,119.706308 660.708,119.592308 Z" id="Path" fill="#B3C0CA"></path>
            <path d="M761.011,87.3823082 C777.375,79.5273082 786.901,87.3813082 796.201,100.845308 C792.126,101.691308 789.943,101.840308 786.39,104.031308 C785.715,99.4643082 779.332,95.9363082 775.58,94.1653082 L765.98,94.7023082 C764.288,92.2863082 762.631,89.8463082 761.011,87.3823082 Z" id="Path" fill="#B3C0CA"></path>
            <path d="M1149.44,69.0763082 C1164.79,56.9463082 1176.87,59.1433082 1185.88,75.8333082 C1187.32,78.5053082 1189.47,87.8383082 1190.8,89.0093082 C1193.84,86.7303082 1190.84,79.1423082 1192.46,75.3183082 C1195.78,73.5493082 1200.08,75.6753082 1203.81,76.5033082 C1207.88,77.4043082 1212.65,82.6793082 1215.45,85.8523082 C1216.77,87.3703082 1216.82,87.5483082 1218.67,88.1033082 L1219.49,87.1583082 C1218.91,82.7003082 1216.99,81.0943082 1214.01,77.9213082 C1216.24,75.5773082 1219.03,73.1913082 1221.47,71.0083082 C1231.22,62.3953082 1242.58,59.0523082 1254.81,64.2273082 C1258.64,66.6633082 1260.04,67.6123082 1263.48,70.7213082 C1262.05,75.4683082 1261.24,79.0543082 1261.24,84.0893082 C1257.74,83.9693082 1254.12,83.7633082 1250.63,84.0083082 C1214.17,86.5783082 1197.47,122.578308 1236.51,139.470308 C1235.24,154.209308 1239.96,160.180308 1252.14,167.836308 C1225.4,173.780308 1197.49,169.320308 1171.99,161.124308 C1170.68,160.704308 1170,160.980308 1168.93,161.613308 C1168.44,164.766308 1173.84,165.822308 1176.49,166.809308 C1145.39,173.561308 1103.31,172.159308 1077.09,151.933308 C1086.98,136.871308 1088.77,121.817308 1080.78,105.255308 C1084.42,102.379308 1085.87,101.192308 1090.08,99.0563082 C1100.28,95.9733082 1107.02,97.1093082 1116.89,100.409308 C1116.98,98.6123082 1116.94,98.3673082 1116.42,96.6443082 C1114.83,94.7733082 1111.63,94.4043082 1109.12,93.8253082 C1111.44,89.8373082 1113.03,87.5663082 1115.75,83.8873082 C1119.41,79.9373082 1122.76,76.0223082 1128.61,75.5403082 C1136,74.9313082 1144.28,86.6183082 1147.98,87.9673082 C1148.14,82.5793082 1145.57,80.7623082 1142.1,77.2303082 C1144.59,74.0603082 1146.65,71.9383082 1149.44,69.0763082 Z" id="Path" fill="#FEFEFE"></path>
            <path d="M1221.47,71.0083082 C1231.22,62.3953082 1242.58,59.0523082 1254.81,64.2273082 C1258.64,66.6633082 1260.04,67.6123082 1263.48,70.7213082 C1262.05,75.4683082 1261.24,79.0543082 1261.24,84.0893082 C1257.74,83.9693082 1254.12,83.7633082 1250.63,84.0083082 C1214.17,86.5783082 1197.47,122.578308 1236.51,139.470308 C1235.24,154.209308 1239.96,160.180308 1252.14,167.836308 C1225.4,173.780308 1197.49,169.320308 1171.99,161.124308 C1170.68,160.704308 1170,160.980308 1168.93,161.613308 C1168.44,164.766308 1173.84,165.822308 1176.49,166.809308 C1145.39,173.561308 1103.31,172.159308 1077.09,151.933308 C1086.98,136.871308 1088.77,121.817308 1080.78,105.255308 C1084.42,102.379308 1085.87,101.192308 1090.08,99.0563082 C1096.97,116.141308 1098.11,127.641308 1092.91,145.565308 C1126.38,159.828308 1148.7,161.459308 1182.91,150.370308 C1199,155.482308 1209.63,157.052308 1226.33,156.805308 C1225.81,153.472308 1225.45,150.089308 1225.07,146.735308 C1199.42,131.815308 1195.57,107.985308 1215.45,85.8523082 C1216.77,87.3703082 1216.82,87.5483082 1218.67,88.1033082 L1219.49,87.1583082 C1218.91,82.7003082 1216.99,81.0943082 1214.01,77.9213082 C1216.24,75.5773082 1219.03,73.1913082 1221.47,71.0083082 Z" id="Path" fill="#B3C0CA"></path>
            <path d="M1221.47,71.0083082 C1231.22,62.3953082 1242.58,59.0523082 1254.81,64.2273082 C1252.82,67.2833082 1252.55,68.6113082 1251.53,72.1643082 C1241.35,72.9143082 1236.25,73.7003082 1226.88,78.4493082 C1225.13,75.8723082 1223.51,73.3783082 1221.47,71.0083082 Z" id="Path" fill="#FEFEFE"></path>
            <path d="M1115.75,83.8873082 C1120.34,85.3093082 1122.82,85.6483082 1125.14,90.1523082 C1128.75,97.1273082 1123.52,101.034308 1116.89,100.409308 C1116.98,98.6123082 1116.94,98.3673082 1116.42,96.6443082 C1114.83,94.7733082 1111.63,94.4043082 1109.12,93.8253082 C1111.44,89.8373082 1113.03,87.5663082 1115.75,83.8873082 Z" id="Path" fill="#B3C0CA"></path>
            <path d="M1149.44,69.0763082 C1155.79,76.9583082 1161.35,83.2823082 1147.98,87.9673082 C1148.14,82.5793082 1145.57,80.7623082 1142.1,77.2303082 C1144.59,74.0603082 1146.65,71.9383082 1149.44,69.0763082 Z" id="Path" fill="#B3C0CA"></path>
            <path d="M135.944,47.8053082 C151.011,29.3853082 170.229,27.4483082 189.863,41.1773082 C201.352,49.2103082 197.494,64.9483082 200.998,67.3473082 C202.287,66.4673082 202.886,64.4903082 203.173,62.9743082 C203.286,62.3693082 203.386,61.7623082 203.476,61.1533082 C202.847,57.3983082 202.075,52.6893082 200.77,49.1613082 C212.572,49.8073082 223.834,52.3423082 232.127,61.6113082 C237.434,67.4873082 240.143,75.2583082 239.639,83.1613082 C239.511,85.3183082 238.912,88.5353082 238.368,90.6713082 C230.066,90.5893082 225.471,90.8053082 217.248,92.2843082 C217.179,94.7703082 216.821,94.1373082 218.049,95.7353082 C228.97,96.8973082 235.094,91.4713082 250.558,98.3593082 C254.263,99.9433082 256.974,101.672308 260.389,103.743308 C258.428,111.128308 258.391,113.099308 259.233,120.711308 C240.738,125.215308 229.193,136.608308 230.943,156.346308 C208.255,156.636308 192.525,153.838308 170.745,147.925308 C193.018,128.967308 189.88,99.4863082 159.874,91.9413082 C163.616,69.2123082 149.575,62.1443082 129.88,58.1263082 C132.073,53.7413082 133.051,51.8153082 135.944,47.8053082 Z" id="Path" fill="#FEFEFE"></path>
            <path d="M135.944,47.8053082 C156.737,49.9443082 171.077,61.3033082 172.127,83.0103082 C194.74,93.3133082 202.853,115.062308 192.194,137.713308 C191.487,139.222308 190.723,140.704308 189.903,142.155308 C200.785,144.561308 210.338,145.440308 221.473,145.780308 C224.289,128.689308 229.344,118.816308 246.052,112.064308 C247.056,106.374308 247.559,103.478308 250.558,98.3593082 C254.263,99.9433082 256.974,101.672308 260.389,103.743308 C258.428,111.128308 258.391,113.099308 259.233,120.711308 C240.738,125.215308 229.193,136.608308 230.943,156.346308 C208.255,156.636308 192.525,153.838308 170.745,147.925308 C193.018,128.967308 189.88,99.4863082 159.874,91.9413082 C163.616,69.2123082 149.575,62.1443082 129.88,58.1263082 C132.073,53.7413082 133.051,51.8153082 135.944,47.8053082 Z" id="Path" fill="#B3C0CA"></path>
            <path d="M200.77,49.1613082 C212.572,49.8073082 223.834,52.3423082 232.127,61.6113082 C237.434,67.4873082 240.143,75.2583082 239.639,83.1613082 C239.511,85.3183082 238.912,88.5353082 238.368,90.6713082 C230.066,90.5893082 225.471,90.8053082 217.248,92.2843082 C217.233,90.6743082 216.189,88.6313082 215.915,86.8733082 C214.666,78.8733082 220.771,79.0253082 226.602,78.2993082 C221.141,66.1823082 216.363,62.3553082 203.476,61.1533082 C202.847,57.3983082 202.075,52.6893082 200.77,49.1613082 Z" id="Path" fill="#B3C0CA"></path>
            <path d="M1070.31,31.9853082 C1097.37,21.1003082 1134.32,20.9843082 1150.28,50.0473082 C1152.24,53.9403082 1152.84,56.5063082 1153.98,60.6483082 C1146.63,65.7733082 1144.81,67.7223082 1139.35,74.8793082 C1120.78,66.5013082 1113.9,79.5683082 1105.25,93.3703082 C1093.39,92.9583082 1087.61,94.2903082 1078.62,102.050308 C1067.36,89.2683082 1058.2,85.7753082 1041.96,83.9163082 C1030.29,63.2463082 1017.1,48.1403082 991.694,59.9593082 C987.733,56.4943082 984.402,54.1043082 980.114,51.0333082 C984.076,48.4963082 987.579,46.7093082 991.748,44.5533082 C1009.71,35.6553082 1026,28.8713082 1046.22,35.5113082 C1058.13,39.4223082 1066.33,46.6263082 1075.83,54.4013082 C1077.04,55.3863082 1077.72,55.0433082 1078.97,54.6483082 C1078.52,48.7393082 1064.54,40.3413082 1059.78,37.2713082 C1063.71,34.9603082 1066.17,33.8183082 1070.31,31.9853082 Z" id="Path" fill="#FEFEFE"></path>
            <path d="M991.748,44.5533082 C993.692,45.5903082 998.826,45.1603082 1001.07,44.8123082 C1021.95,41.5843082 1036.29,53.5593082 1045.43,72.0713082 C1061.2,74.4353082 1067.4,77.3683082 1079.59,87.5033082 C1086.72,81.2883082 1090.99,81.0173082 1100.25,81.6683082 L1101.35,81.7493082 C1111.75,66.0273082 1116.61,58.4843082 1136.59,61.4393082 C1142.08,54.6823082 1142.96,54.5183082 1150.28,50.0473082 C1152.24,53.9403082 1152.84,56.5063082 1153.98,60.6483082 C1146.63,65.7733082 1144.81,67.7223082 1139.35,74.8793082 C1120.78,66.5013082 1113.9,79.5683082 1105.25,93.3703082 C1093.39,92.9583082 1087.61,94.2903082 1078.62,102.050308 C1067.36,89.2683082 1058.2,85.7753082 1041.96,83.9163082 C1030.29,63.2463082 1017.1,48.1403082 991.694,59.9593082 C987.733,56.4943082 984.402,54.1043082 980.114,51.0333082 C984.076,48.4963082 987.579,46.7093082 991.748,44.5533082 Z" id="Path" fill="#B3C0CA"></path>
            <path d="M1059.78,37.2713082 C1063.71,34.9603082 1066.17,33.8183082 1070.31,31.9853082 C1077.42,39.4843082 1089.87,41.7073082 1078.97,54.6483082 C1078.52,48.7393082 1064.54,40.3413082 1059.78,37.2713082 Z" id="Path" fill="#B3C0CA"></path>
            <path d="M1158.97,41.8513082 C1174.91,34.9353082 1193.21,28.2023082 1210.5,34.9333082 C1217.43,37.6493082 1223.4,42.3663082 1227.64,48.4843082 C1229.93,52.4763082 1230.72,55.4043082 1231.97,59.7353082 C1221.95,64.3843082 1218.49,68.0093082 1211.12,75.8253082 C1201.94,70.6113082 1198.07,70.8503082 1188.04,71.7503082 C1179.44,59.6583082 1172.14,54.5993082 1157.45,59.4883082 C1155.67,53.7043082 1154.66,50.7383082 1151.95,45.3723082 L1158.97,41.8513082 Z" id="Path" fill="#FEFEFE"></path>
            <path d="M1151.95,45.3723082 L1158.97,41.8513082 C1165.99,50.3413082 1178.46,40.7593082 1191.35,59.3753082 C1199.34,59.1193082 1201.43,58.9383082 1209,61.8903082 C1218.14,53.1373082 1217.59,54.1463082 1227.64,48.4843082 C1229.93,52.4763082 1230.72,55.4043082 1231.97,59.7353082 C1221.95,64.3843082 1218.49,68.0093082 1211.12,75.8253082 C1201.94,70.6113082 1198.07,70.8503082 1188.04,71.7503082 C1179.44,59.6583082 1172.14,54.5993082 1157.45,59.4883082 C1155.67,53.7043082 1154.66,50.7383082 1151.95,45.3723082 Z" id="Path" fill="#B3C0CA"></path>
            <path d="M1238.19,42.9823082 C1255.65,35.3573082 1271.88,32.5683082 1290.59,35.8133082 C1297.45,37.2773082 1301.39,38.3843082 1307.78,41.5553082 C1306.57,43.9883082 1305.13,46.7103082 1304.02,49.1543082 C1293.88,47.7523082 1282.81,49.5803082 1274.53,55.8933082 C1270.58,58.8693082 1267.34,62.6913082 1265.06,67.0793082 C1254.68,57.8923082 1248.87,56.3643082 1235.39,58.3053082 C1233.87,53.7753082 1232.64,50.4013082 1230.76,46.0143082 L1238.19,42.9823082 Z" id="Path" fill="#B3C0CA"></path>
            <path d="M1238.19,42.9823082 C1255.65,35.3573082 1271.88,32.5683082 1290.59,35.8133082 C1289.92,36.9413082 1290.24,36.9943082 1288.96,37.2063082 C1276.26,39.3103082 1271.39,42.5593082 1261.74,50.4793082 C1258.81,49.0323082 1257.75,48.5573082 1254.68,47.5373082 C1249.63,45.8623082 1241.53,46.6253082 1238.19,42.9823082 Z" id="Path" fill="#FEFEFE"></path>
            <path d="M100.913,27.7273082 C112.518,27.4633082 117.299,27.5573082 128.43,31.5253082 C133.008,33.6413082 135.098,34.6843082 139.348,37.4463082 C132.421,44.3293082 129.394,49.3503082 125.147,57.9353082 C117.059,57.6533082 111.295,58.7233082 103.705,61.1193082 C99.9865,47.6143082 96.1324,42.1263082 86.5186,32.0843082 C91.5175,29.7363082 95.6029,28.8923082 100.913,27.7273082 Z" id="Path" fill="#B3C0CA"></path>
            <path d="M100.913,27.7273082 C112.518,27.4633082 117.299,27.5573082 128.43,31.5253082 C124.114,36.8133082 121.805,39.5603082 118.029,45.3483082 C115.859,45.6773082 112.942,45.7473082 110.678,45.8643082 C105.923,34.1723082 104.862,36.5653082 100.404,28.6253082 L100.913,27.7273082 Z" id="Path" fill="#FEFEFE"></path>
            <path d="M168.471,149.081308 C170.304,151.764308 173.747,152.443308 176.819,153.420308 C167.983,155.550308 160.313,157.269308 151.264,158.152308 C148.908,158.299308 146.875,158.629308 144.691,157.756308 C146.155,156.231308 158.223,154.176308 161.195,152.880308 C164.204,151.567308 165.553,150.844308 168.471,149.081308 Z" id="Path" fill="#B3C0CA"></path>
        </g>
    </g>
</svg>