<?xml version="1.0" encoding="UTF-8"?>
<svg width="1100px" height="1100px" viewBox="0 0 1100 1100" version="1.1" xmlns="http://www.w3.org/2000/svg" xmlns:xlink="http://www.w3.org/1999/xlink">
    <title>Würfel schwarz</title>
    <g id="Würfel-schwarz" stroke="none" fill="none" fill-rule="evenodd" stroke-width="1">
        <g id="box-dark" transform="translate(50, 50)" stroke="#262626">
            <line x1="996" y1="5" x2="845" y2="155" id="Line" stroke-width="10" stroke-linecap="square"></line>
            <polyline id="Line" stroke-width="10" stroke-linecap="square" points="-9.09494702e-13 155 845 155 845 990"></polyline>
            <polygon id="Rectangle-2" stroke-width="10" points="1000 0 1000 763 850 1000 0 1000 0 150 224.5 0"></polygon>
            <path d="M599.692271,89.605938 L599.264333,89.9401536 L599.632628,90.33914 L659.393705,155.080339 L489.556951,479.768251 L489.448813,479.974986 L489.537781,480.190665 L572.037781,680.190665 L572.118636,680.386679 L572.31575,680.464814 C735.465394,745.136745 735.465394,745.136745 839.287894,786.29161 C843.334949,787.895848 843.381518,787.914308 849.607056,790.382088 C864.236212,830.795627 874.213693,854.065036 879.621588,860.32681 C880.313847,860.480227 880.313847,860.480227 880.380761,860.326452 C880.423546,860.271767 880.423546,860.271767 880.439615,860.244874 C880.464523,860.20107 880.464523,860.20107 880.484224,860.161729 C880.509108,860.111478 880.542223,860.03999 880.584756,859.945009 C880.666533,859.762392 880.785254,859.488043 880.941428,859.120862 C881.252251,858.390083 881.712512,857.28901 882.322445,855.8171 C883.541577,852.875048 885.359208,848.450145 887.775449,842.542123 C892.607571,830.726956 899.83404,812.979553 909.454909,789.29978 C928.530363,742.349508 957.018727,672.077803 994.948838,578.413214 L994.948838,585.762426 L889.527616,889.836216 L889.483069,889.964706 L889.509739,890.098058 L895.471799,919.908507 L890.192304,928.707665 L880.485071,889.878732 C860.975852,839.426674 849.309083,809.426412 845.464238,799.814305 L845.36929,799.576934 L845.121268,799.514929 C807.166772,790.026305 776.907407,780.977401 708.900428,759.523165 C640.874089,738.062822 610.601974,729.010105 572.621268,719.514929 C571.077508,719.128989 557.037762,719.128989 529.993141,719.500047 L529.850863,719.52276 L209.850861,819.52276 L209.52106,819.625823 L209.500854,819.970762 L199.227165,995.358504 L190.227214,995.358504 L200.481286,810.351495 L236.109452,796.754135 L236.966024,796.427227 L236.227339,795.884153 L3.55651532,624.826977 L3.55651532,616.025218 L259.718626,790.413315 L259.9403,790.564225 L260.188647,790.463046 L530.188648,680.463046 L530.629014,680.283638 L530.471929,679.834825 L460.545937,480.046274 L640.437396,155.24225 L640.606481,154.936957 L640.37822,154.672968 L583.235489,88.5861594 L698.633937,5.39362922 L707.519957,5.39362922 Z" id="Path-31" fill="#262626"></path>
        </g>
    </g>
</svg>