<?xml version="1.0" encoding="UTF-8"?>
<svg width="3120px" height="1100px" viewBox="0 0 3120 1100" version="1.1" xmlns="http://www.w3.org/2000/svg" xmlns:xlink="http://www.w3.org/1999/xlink">
    <title>Logo Querformat</title>
    <g id="Logo-Querformat" stroke="none" fill="none" fill-rule="evenodd" stroke-width="1">
        <g id="Group" transform="translate(0, 50)" stroke="#262626">
            <g id="landscape---dark" transform="translate(50, 0)">
                <g id="schrift" transform="translate(1060, 0)" fill="#262626" stroke-width="2">
                    <rect id="Rectangle-2" x="1" y="1" width="1698" height="98"></rect>
                    <path d="M1450.01764,290.955148 L1451.78518,288.838675 L1558.54773,161 L1675.61182,161 L1569.12602,282.742795 L1568.63777,283.301001 L1569.03017,283.930287 L1678.19794,459 L1566.52751,459 L1504.32562,349.621938 L1503.74115,348.5942 L1502.82463,349.341078 L1450.38592,392.073636 L1450.01764,392.373754 L1450.01764,459 L1355.44302,459 L1355.44302,161 L1450.01764,161 Z M1316.74256,459 L1216.66173,459 L1204.20267,417.416478 L1203.98905,416.703488 L1097.18603,416.703488 L1096.97241,417.416478 L1084.51334,459 L987.928432,459 L1096.8815,161 L1207.78948,161 Z M957.967756,230.947676 L795.533782,230.947674 L794.533782,230.947674 L794.533782,274.372093 L934.370338,274.372094 L934.370338,341.26744 L794.533782,341.267442 L794.533782,389.052326 L961.02668,389.052324 L961.02668,459 L699.959161,459 L699.959161,161 L957.967756,161 Z M597.756844,173.30661 C612.885733,181.501718 624.252438,192.556757 631.878177,206.483191 C639.517082,220.433667 643.335505,235.60252 643.335505,252.005814 C643.335505,270.123488 638.440854,286.499563 628.646374,301.159587 C618.862781,315.803317 604.614374,326.574278 585.87022,333.480266 L584.794483,333.876604 L585.333241,334.88855 L651.409998,459 L545.327181,459 L492.288288,350.114409 L492.014493,349.552326 L454.556154,349.552326 L454.556155,459 L359.981533,459 L359.981533,161 L542.954002,161 C564.354108,161 582.617378,165.105773 597.756844,173.30661 Z M255.677883,168.098861 L260.435131,170.271858 C272.949446,176.443751 282.863392,185.117661 290.193279,196.303891 C297.514574,207.47701 301.172932,219.931541 301.172932,233.69186 C301.172932,270.172978 284.708767,293.030225 251.643894,302.497937 L250.919169,302.705453 L250.919169,306.000752 L251.696398,306.178359 C289.3968,314.793413 308.16476,339.382154 308.16476,380.203488 C308.16476,395.714621 304.356836,409.407909 296.742248,421.306916 C289.120626,433.216915 278.697644,442.46977 265.456384,449.076117 C252.196484,455.691764 237.637605,459 221.766912,459 L20.0039062,459 L20.0039062,161 L219.144976,161 C232.268501,161 244.443359,163.366507 255.677883,168.098861 Z M114.578527,337.77907 L114.578527,391.232558 L188.992719,391.232558 C195.675487,391.232558 201.257042,388.867422 205.672361,384.157781 C210.074354,379.462353 212.27917,373.620816 212.27917,366.686047 L212.27917,362.325581 C212.27917,355.390812 210.074354,349.549275 205.672361,344.853847 C201.257042,340.144206 195.675487,337.77907 188.992719,337.77907 Z M1149.18703,242.72093 L1148.97386,243.43481 L1117.07365,350.266206 L1116.68961,351.552326 L1184.48022,351.552326 L1184.1025,350.26981 L1152.63927,243.438415 L1152.42797,242.72093 Z M454.556154,227.459302 L454.556154,284.837209 L518.919594,284.837209 C526.76307,284.837209 533.43054,282.039889 538.863093,276.468477 C544.291383,270.901438 547.012927,264.03682 547.012927,255.930233 C547.012927,247.819949 544.288503,241.023585 538.853463,235.60027 C533.420909,230.179435 526.75732,227.459302 518.919594,227.459302 Z M114.578527,224.843023 L114.578527,277.860465 L182.000891,277.860465 C188.68366,277.860465 194.265214,275.495329 198.680533,270.785688 C203.082527,266.09026 205.287342,260.248723 205.287342,253.313953 L205.287342,248.953488 C205.287342,242.29954 203.002176,236.598949 198.450355,231.905548 C193.893446,227.2069 188.391281,224.843023 182.000891,224.843023 Z" id="BREAK"></path>
                    <path d="M617.097826,702.168605 L515.467391,702.168605 L515.467391,729.023256 L602.423913,729.023256 L602.423913,768.360465 L515.467391,768.360465 L515.467391,797.831395 L619,797.831395 L619,839 L457.413043,839 L457.413043,661 L617.097826,661 Z M289.108696,726.668605 L357.141304,726.668605 L357.141304,661 L415.195652,661 L415.195652,839 L357.141304,839 L357.141304,770.715116 L289.108696,770.715116 L289.108696,839 L231.054348,839 L231.054348,661 L289.108696,661 Z M201.608696,705.046512 L140.467391,705.046512 L140.467391,839 L82.4130438,839 L82.4130435,705.046512 L21.0000005,705.046512 L21.0000005,661 L201.608696,661 Z" id="THE"></path>
                    <path d="M1304.45475,579.080363 C1332.15937,604.437602 1346.02208,641.386598 1346.02208,690 C1346.02208,738.613402 1332.15937,775.562398 1304.45475,800.919637 C1276.72825,826.296913 1237.38046,839 1186.36347,839 C1135.34622,839 1096.07024,826.366798 1068.48801,801.130196 C1040.92822,775.914127 1027.13675,738.894837 1027.13675,690 C1027.13675,641.105163 1040.92822,604.085873 1068.48801,578.869804 C1096.07024,553.633202 1135.34622,541 1186.36347,541 C1237.38046,541 1276.72825,553.703087 1304.45475,579.080363 Z M941.27026,555.015916 C953.636568,560.97898 963.432073,569.358388 970.673484,580.163464 C977.904414,590.952902 981.517071,602.977926 981.517071,616.264045 C981.517071,651.495523 965.254865,673.569562 932.581509,682.716801 L931.851104,682.921286 L931.851104,686.1664 L932.633056,686.341107 C969.888369,694.664844 988.427119,718.412339 988.427119,757.837079 C988.427119,772.815357 984.666471,786.037452 977.145638,797.528203 C969.615953,809.032478 959.317447,817.971214 946.232772,824.354042 C933.127643,830.746848 918.737927,833.94382 903.051524,833.94382 L703.660144,833.94382 L703.660144,546.05618 L900.460256,546.05618 C915.284474,546.05618 928.883904,549.043185 941.27026,555.015916 Z M1515.4629,619.731544 L1515.7548,620.213483 L1518.60641,620.213483 L1518.89889,619.735175 L1563.95359,546.05618 L1668.14095,546.05618 L1572.94006,681.419109 L1572.53797,681.990825 L1572.93672,682.564876 L1678.0878,833.94382 L1564.81889,833.94382 L1510.26255,744.255588 L1509.97039,743.775281 L1507.1185,743.775281 L1506.82634,744.255588 L1452.27,833.94382 L1347.63565,833.94382 L1452.79047,682.142469 L1453.18765,681.569099 L1452.78677,680.998304 L1358.01581,546.05618 L1470.83949,546.05618 Z M1138.97067,626.97899 C1128.14468,639.2538 1122.74117,655.781496 1122.74117,676.516854 L1122.74117,703.483146 C1122.74117,724.218504 1128.14468,740.7462 1138.97067,753.02101 C1149.82783,765.331154 1165.65102,771.477528 1186.36347,771.477528 C1207.07411,771.477528 1222.96721,765.33245 1233.96779,753.025993 C1244.9404,740.750833 1250.41766,724.220926 1250.41766,703.483146 L1250.41766,676.516854 C1250.41766,655.779074 1244.9404,639.249167 1233.96779,626.974007 C1222.96721,614.66755 1207.07411,608.522472 1186.36347,608.522472 C1165.65102,608.522472 1149.82783,614.668846 1138.97067,626.97899 Z M797.105176,716.808989 L797.105176,768.52809 L870.660676,768.52809 C877.263748,768.52809 882.779911,766.242722 887.146019,761.689295 C891.502921,757.145469 893.686452,751.489171 893.686452,744.775281 L893.686452,740.561798 C893.686452,733.847908 891.502921,728.191609 887.146019,723.647783 C882.779911,719.094357 877.263748,716.808989 870.660676,716.808989 Z M797.105176,607.679775 L797.105176,658.977528 L863.750628,658.977528 C870.353701,658.977528 875.869864,656.69216 880.235972,652.138733 C884.592873,647.594908 886.776405,641.938609 886.776405,635.224719 L886.776405,631.011236 C886.776405,624.568183 884.51319,619.048096 880.008202,614.506439 C875.50238,609.963942 870.064641,607.679775 863.750628,607.679775 Z" id="BOX"></path>
                    <rect id="Rectangle-3" x="21" y="541" width="598" height="58"></rect>
                    <rect id="Rectangle-2" x="1701" y="1" width="298" height="98"></rect>
                    <rect id="Rectangle-2" x="1701" y="901" width="298" height="98"></rect>
                    <path d="M1919.4,742.744666 L1876.228,742.744666 L1876.228,795.31506 L1919.4,795.315059 L1919.4,839.307064 L1803.064,839.307064 L1803.064,795.315059 L1847.956,795.31506 L1847.956,742.744666 L1803.064,742.744666 L1803.064,698.752662 L1919.4,698.752662 Z M1919.4,631.157905 C1919.4,638.245893 1918.19123,644.74226 1915.77626,650.654117 C1913.3739,656.535103 1910.00751,661.180463 1905.67557,664.607515 C1901.37849,668.006974 1896.60862,669.698542 1891.332,669.698542 C1877.25318,669.698542 1868.46627,662.057095 1864.78501,646.535286 L1864.60257,645.766052 L1862.29552,645.766052 L1862.14144,646.580081 C1858.78698,664.303003 1849.31862,673.02828 1833.54,673.02828 C1827.56751,673.02828 1822.30757,671.262305 1817.72539,667.722071 C1813.11028,664.156404 1809.51707,659.269617 1806.9442,653.043607 C1804.35824,646.785945 1803.064,639.909388 1803.064,632.406557 L1803.064,536.844159 L1919.4,536.844159 Z M1828.584,580.836164 L1828.584,616.798411 C1828.584,620.086521 1829.55571,622.855128 1831.50059,625.056476 C1833.46679,627.281976 1835.9465,628.41195 1838.872,628.41195 L1840.592,628.41195 C1843.5175,628.41195 1845.99721,627.281976 1847.96341,625.056476 C1849.90829,622.855128 1850.88,620.086521 1850.88,616.798411 L1850.88,580.836164 Z M1873.304,580.836164 L1873.304,613.468673 C1873.304,616.756783 1874.27571,619.52539 1876.22059,621.726739 C1878.18679,623.952238 1880.6665,625.082212 1883.592,625.082212 L1885.312,625.082212 C1888.13436,625.082212 1890.55935,623.90858 1892.52242,621.610014 C1894.45713,619.344658 1895.428,616.616344 1895.428,613.468673 L1895.428,580.836164 Z M1919.4,400.673925 L1851.81385,422.096028 L1851.116,422.31722 L1851.116,424.615925 L1851.8165,424.83582 L1919.4,446.051113 L1919.4,506.957605 L1803.064,506.957605 L1803.064,463.381819 L1844.72,463.381818 C1849.96523,463.381818 1855.35418,463.62331 1860.88702,464.106408 C1866.43034,464.590422 1871.08427,465.108607 1874.84689,465.660429 C1878.63525,466.216024 1881.04525,466.56316 1882.08276,466.70264 L1883.216,466.854989 L1883.216,464.155904 L1882.52916,463.929421 L1803.064,437.72611 L1803.064,403.167485 L1882.35999,376.757396 L1883.044,376.529582 L1883.044,373.832766 L1881.91076,373.985116 C1880.86393,374.125848 1878.47904,374.508272 1874.74077,375.134542 C1871.03842,375.754794 1866.41562,376.341744 1860.8747,376.894662 C1855.34588,377.446375 1849.96104,377.722155 1844.72,377.722155 L1803.064,377.722155 L1803.064,337.476106 L1919.4,337.476106 Z M1904.14048,178.489325 L1906.10458,180.899265 C1916.33213,194.231081 1921.464,213.270406 1921.464,238.040731 C1921.464,251.678553 1919.758,263.925829 1916.34989,274.78461 C1912.95768,285.592717 1907.96862,294.152856 1901.38881,300.480936 C1895.10526,306.524093 1887.5205,309.647859 1878.572,309.836221 L1878.572,267.932903 C1883.42734,267.595514 1887.38903,264.769897 1890.39239,259.559063 C1893.52383,254.126023 1895.084,247.572488 1895.084,239.913708 C1895.084,228.872532 1892.63848,220.459235 1887.70513,214.705951 C1882.7461,208.922724 1875.72927,206.032547 1866.736,206.032547 L1855.728,206.032547 C1846.73473,206.032547 1839.7179,208.922724 1834.75887,214.705951 C1829.82552,220.459235 1827.38,228.872532 1827.38,239.913708 C1827.38,247.566891 1828.88004,254.114951 1831.8915,259.544718 C1834.9793,265.112146 1839.04753,267.967828 1844.032,267.967828 L1845.032,267.967828 L1845.032,235.502885 L1867.112,235.502885 L1867.112,309.878747 L1803.064,309.878747 L1803.064,287.836802 L1814.12452,283.507172 L1815.31093,283.042749 L1814.57792,282.000649 C1805.53294,269.141651 1801,252.276624 1801,231.381255 C1801,207.87619 1806.06576,190.276038 1816.15214,178.549436 C1826.2095,166.856567 1841.20912,161 1861.232,161 C1879.76575,161 1894.04163,166.828454 1904.14048,178.489325 Z" id="GMBH"></path>
                    <rect id="Rectangle-3" x="1741" y="161" width="18" height="678"></rect>
                    <rect id="Rectangle-3" x="1961.464" y="161" width="18" height="678"></rect>
                    <rect id="Rectangle-2" x="1" y="901" width="1698" height="98"></rect>
                </g>
                <g id="box">
                    <line x1="990" y1="10" x2="845" y2="155" id="Line" stroke-width="10" stroke-linecap="square"></line>
                    <polyline id="Line" stroke-width="10" stroke-linecap="square" points="15 155 845 155 845 990"></polyline>
                    <path d="M995,761.550667 L847.247258,995 L5.00000021,995 L5.00000021,152.672617 L226.016682,5.00000021 L995,5.00000021 Z" id="Rectangle-2" stroke-width="10"></path>
                    <path d="M599.688632,89.6088072 L599.26774,89.9438454 L599.632628,90.33914 L659.393704,155.080339 L489.556951,479.768251 L489.448813,479.974986 L489.537781,480.190665 L572.037781,680.190665 L572.118636,680.386679 L572.31575,680.464814 C735.465394,745.136745 735.465394,745.136745 839.287894,786.29161 C843.334949,787.895848 843.381518,787.914308 849.607056,790.382088 C864.236212,830.795627 874.213693,854.065036 879.621588,860.32681 C880.292919,860.490182 880.292919,860.490182 880.37409,860.33408 C880.419978,860.277411 880.419978,860.277411 880.436785,860.249847 C880.462376,860.205691 880.462376,860.205691 880.481786,860.167409 C880.506012,860.119091 880.537945,860.050788 880.578854,859.960123 C880.657178,859.786537 880.770642,859.525877 880.919787,859.176985 C881.216463,858.482973 881.655469,857.437121 882.237053,856.038857 C883.399447,853.244191 885.131954,849.040402 887.434692,843.427207 C892.039789,832.201741 898.925712,815.338907 908.092519,792.838564 C926.259845,748.246036 953.386088,681.510348 989.5,592.560431 L989.5,599.916213 L889.527343,889.837005 L889.483157,889.965145 L889.509739,890.098058 L895.4718,919.908507 L890.192304,928.707666 L880.485071,889.878732 C860.975852,839.426674 849.309083,809.426412 845.464238,799.814305 L845.36929,799.576934 L845.121268,799.514929 C807.166772,790.026305 776.907407,780.977401 708.900428,759.523165 C640.874089,738.062822 610.601974,729.010105 572.621268,719.514929 C571.077508,719.128989 557.037762,719.128989 529.993141,719.500047 L529.850863,719.52276 L209.850863,819.52276 L209.521148,819.625796 L209.500863,819.970639 L199.528547,989.5 L190.528549,989.5 L200.481243,810.351512 L236.109452,796.754135 L236.965484,796.427433 L236.227553,795.88431 L10.5,629.747175 L10.5,620.944649 L259.718845,790.413463 L259.940459,790.564161 L260.188648,790.463046 L530.188648,680.463046 L530.629014,680.283638 L530.471929,679.834825 L460.545937,480.046274 L640.437396,155.24225 L640.606481,154.936957 L640.37822,154.672968 L583.233308,88.5836357 L690.163155,10.5 L699.069071,10.5 Z" id="Path-31" fill="#262626"></path>
                </g>
            </g>
        </g>
    </g>
</svg>