<?xml version="1.0" encoding="UTF-8"?>
<svg width="234px" height="191px" viewBox="0 0 234 191" version="1.1" xmlns="http://www.w3.org/2000/svg" xmlns:xlink="http://www.w3.org/1999/xlink">
    <title>this_is_my_world</title>
    <defs>
        <linearGradient x1="49.9694013%" y1="49.9260393%" x2="50.1031981%" y2="49.9678964%" id="linearGradient-1">
            <stop stop-color="#C4C2C3" offset="0%"></stop>
            <stop stop-color="#FFFFFF" offset="100%"></stop>
        </linearGradient>
    </defs>
    <g id="Redesign-Webseite" stroke="none" stroke-width="1" fill="none" fill-rule="evenodd">
        <g id="this_is_my_world" transform="translate(0.8156, 0.8505)">
            <path d="M3.58251791,135.07067 C3.68113367,131.336494 3.52467068,126.696044 3.46709892,122.943136 L3.26821463,104.571131 L2.89193217,38.991655 L2.89854328,16.7645456 C2.91121458,13.1055705 2.85915207,9.29040798 3.12827943,5.66145842 C3.27840676,3.63515259 6.89027762,1.59645093 8.71384268,1.36258284 C10.7729286,1.09841383 12.8325655,1.0130203 14.9048736,0.922943894 C18.9979783,0.760420724 23.0924604,0.63976793 27.1880442,0.560985512 C41.6939258,0.342818816 56.2009092,0.203985464 70.7081681,0.145036382 C103.644728,-0.0725793879 136.582665,-0.0453085509 169.51895,0.226848893 C183.846607,0.272300288 198.173989,0.427385957 212.499166,0.6921059 C214.964836,0.75546239 229.524983,0.855455459 230.84087,1.93499496 C231.492065,2.46939318 231.734748,3.53956693 231.840525,4.34364343 C232.46803,9.11989639 232.36969,14.4401888 232.38181,19.2596894 L232.389248,38.7666018 C232.377403,58.9770466 232.179345,79.1869405 231.79535,99.3938044 L231.472507,121.47299 C231.424301,125.588132 231.269215,129.733575 231.406947,133.837698 C231.473058,135.812217 231.569745,136.71546 230.107863,138.25943 C229.759127,138.627724 229.158618,139.050284 228.660305,139.12218 C226.52712,139.429597 223.971098,139.489648 221.823313,139.575868 C214.918558,139.837282 208.00967,139.971983 201.099957,139.979972 C201.297188,140.565882 201.47982,141.170523 201.689172,141.749822 C204.768848,150.274851 203.238376,159.352458 202.078677,168.159837 L200.267783,182.166855 C211.282997,190.979192 196.499173,190.456914 193.021178,186.520548 C190.246163,183.379443 189.546763,172.758141 188.724781,168.3758 L188.262003,168.499207 C188.07882,172.770812 188.190658,177.675155 187.664524,181.891116 C187.431482,182.756346 187.076135,184.078293 186.217242,184.500026 C183.63698,185.766054 179.978005,186.082561 177.18178,186.282823 C175.721826,186.387499 172.256501,186.397691 171.628721,185.02864 C170.576177,182.732931 177.566051,180.411329 178.629338,180.008051 C177.556409,175.791539 176.915131,171.003992 176.139152,166.694374 C175.159055,161.252877 174.133506,155.632055 173.854187,150.113429 C173.798543,149.012955 174.157196,147.717728 173.567981,146.807047 L173.511511,146.721378 C173.516194,145.151514 174.649448,141.591706 175.155198,140.002009 C172.511855,139.832048 168.175517,139.959588 165.435762,139.959588 L146.807577,139.962893 L52.7025291,139.870062 L19.2194506,139.871439 C14.9034963,139.867307 10.6346462,139.865379 6.25809003,139.930939 C3.61750171,139.970331 1.24989723,138.98252 0.0491540117,136.378293 C-0.102626101,136.048839 0.130966523,135.716631 0.291285989,135.444198 C1.31793659,134.721934 2.32585571,134.974258 3.58251791,135.07067 Z" id="Path" fill="#FFFFFF"></path>
            <path d="M83.3128041,43.4844566 C83.0001536,42.5668893 81.8646951,41.8575721 82.8916212,40.7664631 C84.102832,40.5653752 85.1473877,41.6997318 85.8916887,42.4974726 C86.5618902,41.8556438 87.3623857,40.950197 88.3562562,41.0832456 C89.5423998,41.2421877 88.9055294,42.7610907 88.6041729,43.3233107 C90.1161893,43.343695 92.995604,43.2971417 94.3963334,43.4458917 C103.364031,43.4362505 112.331454,43.4899658 121.298325,43.6070376 C123.267335,43.6312783 134.092755,43.4808755 134.933744,44.1196742 C135.415804,45.0785609 135.279725,46.9194802 135.266503,48.0425428 C136.146332,48.6802397 136.847661,49.5256356 137.5253,50.3765408 C139.275041,50.4005061 140.681555,50.8128742 141.84759,49.4319782 C142.366562,49.3490638 142.4784,49.3672444 142.994067,49.7457306 C143.453539,50.0837237 143.888771,50.453395 144.296731,50.8522654 C145.588377,48.6149549 148.419586,41.9107364 150.879746,46.9401399 C151.77445,48.7689388 156.503048,54.9877914 155.554353,56.7163218 C154.022228,58.0682942 143.342527,58.0418497 141.808474,56.7554375 C141.121745,55.3169697 142.649463,54.715634 142.359125,53.882083 C141.337157,53.6559278 141.286747,53.7972404 141.04434,52.6689439 C140.387911,52.4273629 138.285578,52.5226731 137.500508,52.5361707 C136.786233,53.5432635 136.197293,54.3096015 135.213614,55.0814489 C135.218297,57.2972732 134.826038,62.9938481 136.179388,64.4684015 C137.236339,64.9846192 139.511388,64.2609779 139.932846,65.6523415 C140.076087,66.1253115 140.180212,67.2257861 140.265881,67.7805686 C141.606284,68.0932191 142.432949,68.1866011 143.768944,68.2970617 C145.617576,68.4502192 150.318352,67.7359436 151.675834,68.80171 C152.162853,70.0751754 151.976364,72.7524003 151.949369,74.2349422 L155.791802,74.2404514 C155.77858,73.1744096 155.582175,70.4352056 156.13255,69.6520642 C158.054455,68.7967516 168.774098,70.0027286 169.651448,69.1636683 C169.53658,70.0032796 169.529418,70.7081894 169.508207,71.5530344 C169.643184,74.9764886 169.09088,78.0434936 169.178753,81.3956029 C168.281019,82.9731795 167.876915,84.186594 168.127035,86.0368789 C168.277989,86.8191939 168.438309,87.5995805 168.608545,88.3777635 C169.229714,89.6988841 169.371577,91.0200046 169.963823,91.8742154 C170.448362,101.337747 169.736566,111.711408 170.181989,121.166951 C169.981728,121.648736 169.606547,122.486969 169.461654,122.950849 C169.14129,123.719115 169.004385,124.251035 168.788698,125.052081 C167.824577,125.036655 167.009207,124.979634 166.143151,125.177968 C163.18881,125.854505 164.825611,127.194081 163.964514,128.970818 C163.785463,129.340213 163.00425,129.65369 162.458558,129.68041 C156.75427,129.956975 150.945582,129.682889 145.234683,129.515408 C144.228416,129.485933 143.574467,127.973642 143.569233,127.165709 C143.55546,125.093125 143.179178,119.918552 144.408018,118.312328 C145.750074,117.457015 150.735954,117.708513 152.563376,117.709064 C152.587066,116.956223 152.647117,115.584693 152.382397,114.926612 C151.986832,113.943485 151.903091,114.090857 151.740568,112.964214 C149.443757,112.954297 146.190815,113.252072 143.941935,112.831716 C143.502571,112.719878 143.230414,112.368663 143.106456,111.962079 C142.551949,110.142646 145.758889,110.090859 146.882227,109.920072 L147.084968,109.624225 C147.022713,109.160896 147.060727,109.320389 146.750556,108.912979 C146.024986,108.535319 133.471311,108.673602 131.62626,108.656523 C130.995449,109.688132 130.930991,109.758926 129.742919,109.615961 C128.716819,111.635105 131.425172,114.185892 124.433645,113.590066 C121.699124,113.357024 111.268167,113.90795 109.544595,112.803343 C108.795886,111.789915 108.988435,110.421966 108.997801,109.139685 C107.390474,109.846248 107.261006,109.749836 106.349499,108.279139 C105.717036,107.815535 98.6472784,108.002023 97.4211926,108.005053 L77.9228196,108.124604 C77.9390719,109.280998 78.0715696,110.606801 77.8470672,111.739781 C77.7258635,112.349656 77.4650001,112.930883 76.9113194,113.258959 C76.0438865,113.772422 66.1743226,113.684825 64.7854382,113.36694 C64.3973108,113.277966 64.0604196,113.148498 63.8571279,112.792049 C62.9450699,111.19216 63.141475,104.511631 63.7364751,102.742333 C64.4083293,100.744675 67.939765,102.337953 69.3911795,101.552057 C68.471684,98.9728969 70.0751542,99.7491516 70.6613394,98.7448135 L70.515344,98.2360334 C69.8754435,97.6181699 66.7866769,98.0335681 65.6660934,97.9933505 C60.5157617,97.8085148 60.505845,99.0095335 60.554051,93.6608684 C59.9163542,93.1107688 59.1935393,92.3320349 58.5908262,91.7163751 C54.6944021,91.8877131 55.4268582,88.9179465 55.4758906,86.0192493 L52.9526496,85.9715942 C52.204492,87.1654509 51.6370383,87.6789139 50.5663136,88.5807798 C50.522515,90.2297013 50.0520242,91.743095 51.6331818,92.5424886 C51.8485938,93.0182132 51.7012211,93.4655651 51.6152767,94.0068499 C52.4182513,94.0236532 53.5090848,93.9707643 54.1883766,94.3360282 C55.1786661,95.7103131 55.0494739,101.455645 54.2715664,103.089967 C54.0718557,103.509222 53.3614366,103.646953 52.9655963,103.727388 C50.7715335,103.583872 45.3013893,103.630976 43.1197223,103.715543 C40.7537706,103.691303 41.1749535,101.67271 41.1322568,99.8235266 C39.5902149,99.8238021 35.3916078,100.014698 34.1591864,99.2965659 C33.1490636,96.3188109 34.1142859,85.8071428 33.8079711,82.1814988 C33.6619757,80.4524176 33.7630706,72.914648 34.1029919,71.4494603 C34.984749,70.4754232 35.4626773,71.105407 36.8749761,70.7927565 C38.0286151,70.0426708 37.1925849,68.1769599 39.8293168,70.7269209 C40.5369812,69.8200967 41.0416294,69.3055318 41.8448795,68.4970479 C41.3294883,67.8687168 40.464259,66.9544551 40.9264859,66.1594689 C41.4504165,65.9355175 41.5779559,65.9085221 42.0010671,65.5454618 C42.2346597,64.8821469 42.1635902,63.8070148 42.1545,63.0693249 C40.4496594,63.0740078 36.1714436,63.2563643 34.7233346,62.5919476 C34.0085081,61.9289081 34.1007882,60.7008941 34.0509294,59.7031671 C32.5413922,60.6000746 32.5251399,60.4314912 31.7800124,59.1715235 C31.1445193,58.7459332 30.3385146,58.9671299 29.3922992,58.7280281 C29.0862598,58.2644238 29.0686301,58.0476344 29.1490653,57.4438195 C29.3013964,56.2967916 30.99026,56.9534954 31.6282323,56.6025555 C32.0890819,56.3488541 31.6720309,55.9172036 32.4447047,55.4252267 C33.0333691,55.4075971 33.1909339,55.5599281 33.6975104,55.8700994 L33.8724294,55.9783564 C34.1112558,55.6698378 34.0801285,55.50456 34.1156632,55.1335114 C34.1627674,54.6440136 34.2098716,54.0625112 34.5767883,53.6955945 C35.6505431,52.6212888 40.3678469,53.6909116 40.9950762,53.0501847 C41.2446457,52.795106 41.0567799,52.3904508 42.0633217,51.5544206 C42.1137314,49.6848532 41.6950277,44.7612276 42.6484051,43.548364 C44.0640095,43.1145098 54.7412308,43.268769 57.0055367,43.3012737 C65.6523202,43.4263339 74.703759,43.1932922 83.3128041,43.4844566 Z" id="Path" fill="#272627"></path>
            <path d="M44.2061484,45.5044267 L77.2096459,45.5705379 C78.4054308,45.6658481 81.8184173,45.476605 82.4258132,45.9856606 C82.6269012,46.6616468 82.580348,46.9079107 83.0334846,47.3456214 C84.0717047,47.4296376 85.0063506,46.3228273 85.7310938,45.6449129 C87.0891264,46.9814593 87.9447144,48.3348091 88.964203,46.0399268 C89.5826174,45.4664128 94.1098518,45.7721768 95.3497108,45.6796212 L133.088142,45.8757509 L133.119545,48.0290451 C132.047994,48.733955 131.64141,49.1868161 130.883336,50.2321982 C129.764681,49.4052583 129.182352,48.901161 128.277456,50.2531334 C127.481368,50.3914158 123.647474,50.3013394 122.672059,50.2939019 L110.103234,50.1895014 C103.082508,50.1357862 103.844163,49.7556472 104.030652,56.8821505 L100.057098,56.878294 C98.7946511,56.5796921 98.0555839,52.519092 96.0772086,53.6041408 C95.1687316,54.8850437 96.2581878,55.85853 97.0429819,56.8471667 C97.444056,57.3336343 98.9271488,59.2613244 99.0037275,59.8161069 L97.8060144,59.9097643 C98.3784265,59.9428199 98.6662853,59.9397898 99.2323618,60.1001093 C99.3819382,60.3593199 99.3623803,60.265938 99.4114127,60.5482876 C99.4510794,61.8867623 99.3411697,61.7358086 100.487371,62.4448503 C101.02232,63.3100796 101.057304,75.2648983 101.133883,77.080475 C97.9192297,80.0934893 97.123968,80.6931722 100.450735,84.1292977 C99.4455702,85.4465617 94.9863751,90.0156665 96.1788544,91.3235648 C96.5308962,91.4417385 96.9066277,91.6508149 97.2112898,91.4662547 C98.5409497,90.6610763 99.7050563,88.1689626 100.91186,87.3929833 C101.045459,88.5176987 100.997529,90.6888981 100.999732,91.9036899 C95.3734006,91.8144399 98.2720978,92.6774655 96.8975374,94.4613639 C96.5600952,94.4963477 95.9207456,94.3668801 95.5629192,94.3104102 C94.9968427,94.5552968 95.0538635,94.695232 94.6874978,95.3018015 C94.0550347,95.5866302 74.6439835,95.7045284 72.760643,95.7317992 L72.7229045,93.4096461 C73.7941801,92.5460696 74.3291293,91.9901853 75.0717775,90.8442592 C76.5818657,90.9277245 81.955047,91.352213 82.8321212,90.3200531 C83.0026328,89.4969697 83.086649,88.657083 83.0921582,87.8160945 C83.1541374,78.256702 83.2274106,68.6895965 83.1362323,59.1310304 C83.1298967,58.4387919 82.9668226,57.3104955 82.6902577,56.6744514 C80.3670028,55.5389929 58.6337985,56.9325602 54.4723789,56.4229537 C53.6385524,56.3210324 53.7889552,56.1623657 53.3644667,55.4591086 C52.8121634,55.1481109 52.5703069,55.2728956 51.8532767,55.2869443 C51.4373276,54.7803678 51.6105938,54.6197729 51.36736,53.8586686 C50.2914015,52.7857402 46.7712598,53.6154348 45.2595189,53.0361361 C43.8023196,50.8291265 44.1783266,48.1472188 44.2061484,45.5044267 Z" id="Path" fill="#FFFFFF"></path>
            <path d="M97.0429819,56.8471667 C97.444056,57.3336343 98.9271488,59.2613244 99.0037275,59.8161069 L97.8060144,59.9097643 C96.2446901,59.9089379 93.1831943,60.1857783 92.5245623,58.3677225 C93.0281086,56.6846435 95.6158081,56.8510232 97.0429819,56.8471667 Z" id="Path" fill="#272627"></path>
            <path d="M123.444182,88.5314719 C130.632114,88.3543492 125.785342,91.4070301 130.934572,91.5915903 C132.890359,91.6618334 137.153425,92.0215881 138.94724,91.0968588 C139.596506,90.6619027 139.757376,89.2041525 139.815775,88.4314788 C140.905782,88.4584742 147.849378,88.2830043 148.337223,88.7769094 C148.715158,89.1595275 148.720392,89.3553817 149.254514,89.5663864 C149.936285,89.4228701 150.202658,89.3179187 150.831265,89.0702775 C151.429295,89.6289165 151.977466,90.2382406 152.551806,90.7698842 C152.200316,91.2979468 151.925404,91.5935186 151.870311,92.2185441 C151.995371,92.8215326 152.148529,92.9198729 152.594779,93.3606137 L152.641332,109.908227 L149.116507,109.93357 C149.147635,108.780206 149.366077,107.562384 148.641058,106.718916 C146.930984,106.231898 134.018931,106.530224 131.594581,106.53656 C131.300662,106.027229 131.213065,105.755071 130.696297,105.481812 L129.791401,105.388155 C129.419526,104.222671 130.021963,102.545101 128.783206,102.080395 C126.765715,101.323147 122.219749,101.612108 119.987948,101.625055 C120.647131,100.115793 119.92404,95.9039636 120.360098,94.1429287 C120.38792,94.0310907 120.93196,93.6930976 121.071895,93.6035721 C121.6848,92.5678312 121.028096,91.9419793 120.408029,91.0591204 L121.528062,90.0600161 C122.41037,90.9255208 122.817779,92.2135858 124.116587,92.2100048 C124.568347,91.9678728 124.573856,91.9485904 124.817641,91.4794769 C124.94518,90.3831342 124.098682,89.4831965 123.444182,88.5314719 Z" id="Path" fill="#FFFFFF"></path>
            <path d="M157.338802,88.329282 C161.095291,88.307245 164.852056,88.3234973 168.608545,88.3777635 C169.229714,89.6988841 169.371577,91.0200046 169.963823,91.8742154 C170.448362,101.337747 169.736566,111.711408 170.181989,121.166951 C169.981728,121.648736 169.606547,122.486969 169.461654,122.950849 C168.420679,122.820831 166.780848,122.986384 165.974017,122.693016 C165.219248,121.19009 165.159473,122.152006 164.431424,121.458391 C164.042746,121.087893 164.678514,119.043407 163.932285,118.421411 C162.529627,117.252071 156.534726,117.713471 154.712814,117.735233 L154.735126,114.8897 C156.317937,113.813466 155.533418,113.17026 155.964793,112.993413 C157.664951,112.295665 163.677757,113.367216 164.846547,112.165646 C165.102176,111.901477 165.240459,111.545304 165.230542,111.177836 C165.223104,110.823591 165.08069,110.485322 164.819827,110.242915 C163.912452,109.400824 156.548775,109.889496 154.831814,109.903544 C154.840078,107.454954 154.708406,96.5033711 154.893242,93.4696971 C154.922992,92.9801993 156.501119,93.1226137 155.124631,90.7886157 C156.151832,89.967185 156.627557,89.41681 157.338802,88.329282 Z" id="Path" fill="#FFFFFF"></path>
            <path d="M105.527793,81.8798668 C107.891817,81.7884131 110.496319,81.8630636 112.878523,81.8856515 C112.886787,83.728499 112.407757,89.2796294 114.826047,89.2198539 C116.931135,89.1677914 115.978859,88.7507404 118.044006,90.7139652 C117.348461,91.4668056 116.672751,91.9901853 116.687075,93.0041646 C116.958681,93.7242249 117.211556,93.8479078 117.924179,94.173505 L118.045107,94.2274958 C118.04676,95.733452 117.912885,100.440013 118.337649,101.632768 C116.898906,101.629187 115.42022,101.602191 113.984232,101.609078 C110.799329,101.624504 109.140766,101.387606 109.023694,105.073576 C108.389578,104.833923 107.786314,104.547442 107.130988,104.6265 C106.603752,104.932814 106.353356,105.854789 106.250333,105.856166 C96.9380305,105.985358 87.2420083,105.859196 77.9555997,106.026402 C77.9586298,104.958432 78.0941576,102.910916 77.5804191,102.061113 C77.1107547,101.748462 75.0651664,101.750115 74.0459533,101.510462 C74.0944348,100.936673 74.2239024,100.244159 74.021988,99.738684 C73.5886847,99.3287951 73.4404856,99.2935358 72.8865295,99.0351515 C72.6474277,98.6376584 72.5975689,98.3120612 72.9347356,97.9225565 C73.6724255,97.7782139 74.5897173,97.8140241 75.3508215,97.8470796 C81.533864,98.1159315 88.5094136,97.2402346 94.6178056,97.7198157 C94.8960232,97.9991352 94.9461575,98.2503574 95.0786552,98.6216816 C96.1127433,99.2150289 96.7680698,98.3250079 96.930042,99.2982187 C97.0498684,100.019105 96.9272874,99.8138854 97.3542551,100.298149 C98.7698594,100.908024 106.394124,100.944661 107.788243,100.401999 C108.76531,99.3927025 108.683773,93.6647249 107.982444,92.580778 C107.440057,91.7422686 104.393712,92.0248936 103.20867,91.9788913 C103.206742,91.1020926 103.037057,87.6582542 103.622691,86.9919092 C104.482687,86.0134646 103.858212,85.2479529 103.308939,84.3025639 C104.051862,83.8417143 105.004964,82.5946933 105.527793,81.8798668 Z" id="Path" fill="#FFFFFF"></path>
            <path d="M120.424281,58.3087734 L120.649059,58.2646993 C121.812339,56.8984028 124.603881,51.9937841 126.247569,53.1625736 C127.374488,55.3971295 115.63095,66.8718162 115.299568,69.0229068 C115.608086,69.2005804 115.592385,69.2044369 115.939193,69.2691707 C114.316991,69.3743975 114.147306,70.1137402 113.268303,71.4064881 L118.316714,71.3841756 C118.564355,73.7088078 118.393568,79.4635054 118.389436,82.0434918 C119.99814,84.0934875 121.807381,86.5721036 123.444182,88.5314719 C124.098682,89.4831965 124.94518,90.3831342 124.817641,91.4794769 C124.573856,91.9485904 124.568347,91.9678728 124.116587,92.2100122 C122.817779,92.2135858 122.41037,90.9255208 121.528062,90.0600161 C121.11652,89.5947591 120.663108,88.9970043 120.26892,88.5022728 C119.934508,87.6601824 119.25439,86.8977008 118.658839,86.2354878 C118.249225,85.6515062 117.750637,85.039152 117.307142,84.4730755 C116.944633,83.7527398 115.714415,82.0189756 115.118038,81.5090936 L114.961024,81.6696885 C114.602646,80.7860032 114.431033,80.5901491 113.850908,79.8249128 C111.482752,79.6513711 109.274916,79.6444846 106.905659,79.6257531 C106.433791,80.0896328 105.645416,81.0397047 105.329184,81.6055057 L105.527793,81.8798668 C105.004964,82.5946933 104.051862,83.8417143 103.308939,84.3025639 C102.847814,84.7353163 101.04298,86.881724 100.91186,87.3929833 C99.7050563,88.1689626 98.5409497,90.6610763 97.2112898,91.4662547 C96.9066277,91.6508149 96.5308962,91.4417385 96.1788544,91.3235648 C94.9863751,90.0156665 99.4455702,85.4465617 100.450735,84.1292977 C97.123968,80.6931722 97.9192297,80.0934893 101.133883,77.080475 C101.057304,75.2648983 101.02232,63.3100796 100.487371,62.4448503 C99.3411697,61.7358086 99.4510794,61.8867623 99.4114127,60.5482876 C99.3623803,60.265938 99.3819382,60.3593199 99.2323618,60.1001093 C98.6662853,59.9397898 98.3784265,59.9428199 97.8060144,59.9097643 L99.0037275,59.8161069 C98.9271488,59.2613244 97.444056,57.3336343 97.0429819,56.8471667 C96.2581878,55.85853 95.1687316,54.8850437 96.0772086,53.6041408 C98.0555839,52.519092 98.7946511,56.5796921 100.057098,56.878294 C100.365341,57.8997108 103.096281,61.405253 103.928455,62.0242183 C104.078031,61.1598154 104.052689,60.8047436 104.018807,59.9218847 C105.609881,59.9169264 109.561122,59.8111486 110.959924,60.0193986 L111.067079,60.2240676 L111.007028,60.4050468 C110.831833,60.943026 110.733493,61.1063756 110.882794,61.6479359 C111.161287,62.1112646 111.349979,62.1297206 111.877215,62.3597322 C112.086016,63.0123041 111.985472,64.971397 111.974178,65.7611494 C112.024313,67.0373695 112.005306,68.1381196 111.974178,69.408555 C112.575514,68.5923581 113.844572,66.9935708 114.178158,66.1175985 L114.46216,66.0159526 C115.302047,65.0989363 119.085531,60.5615098 119.297638,59.6767226 C119.628469,59.3728869 120.128985,58.6872595 120.424281,58.3087734 Z" id="Path" fill="#647D93"></path>
            <path d="M104.018807,59.9218847 C105.609881,59.9169264 109.561122,59.8111486 110.959924,60.0193986 L111.067079,60.2240676 L111.007028,60.4050468 C110.831833,60.943026 110.733493,61.1063756 110.882794,61.6479359 C111.161287,62.1112646 111.349979,62.1297206 111.877215,62.3597322 C112.086016,63.0123041 111.985472,64.971397 111.974178,65.7611494 C111.827907,66.7271981 111.843884,68.4138581 111.823776,69.4399577 C111.408928,70.100518 110.967086,70.6272033 110.479241,71.2329464 C109.596382,70.0974879 103.962612,62.7087439 103.928455,62.0242183 C104.078031,61.1598154 104.052689,60.8047436 104.018807,59.9218847 Z" id="Path" fill="#FFFFFF"></path>
            <path d="M99.4114127,60.5482876 C100.152959,60.8000607 102.225267,63.9764246 102.878941,64.8741585 C102.899325,65.648485 102.895744,66.9034944 103.048902,67.613638 C103.14614,70.8197519 103.208946,74.0264167 103.237043,77.2339079 C103.772267,77.6369102 104.323744,78.0297205 104.81517,78.4831326 C104.30336,79.2847299 104.034233,79.5571628 103.372846,80.2502277 C102.87536,80.9733181 102.406522,81.7165173 101.769101,82.3181284 C101.323401,83.0505846 100.991469,83.4599226 100.450735,84.1292977 C97.123968,80.6931722 97.9192297,80.0934893 101.133883,77.080475 C101.057304,75.2648983 101.02232,63.3100796 100.487371,62.4448503 C99.3411697,61.7358086 99.4510794,61.8867623 99.4114127,60.5482876 Z" id="Path" fill="#272627"></path>
            <path d="M102.053378,79.0756535 L103.372846,80.2502277 C102.87536,80.9733181 102.406522,81.7165173 101.769101,82.3181284 L100.512163,80.8708458 C100.991744,80.1620795 101.466642,79.6937924 102.053378,79.0756535 Z" id="Path" fill="#FFFFFF"></path>
            <path d="M103.008409,64.9011539 C104.858418,67.3409297 107.441435,70.5872611 109.097243,73.0716619 C108.534196,73.8088009 105.306321,78.0608478 104.81517,78.4831326 C104.323744,78.0297205 103.772267,77.6369102 103.237043,77.2339079 C103.208946,74.0264167 103.14614,70.8197519 103.048902,67.613638 C103.056339,66.6787166 103.063777,65.8338716 103.008409,64.9011539 Z" id="Path" fill="#FFFFFF"></path>
            <path d="M113.268303,71.4064881 L118.316714,71.3841756 C118.096619,74.195 118.249776,78.8836558 118.270161,81.8435057 C116.109704,78.9384729 113.974591,76.0147086 111.865095,73.0724883 C112.384618,72.3675785 112.661734,72.0375738 113.268303,71.4064881 Z" id="Path" fill="#FFFFFF"></path>
            <path d="M110.476486,74.9450858 C111.00262,75.6455882 113.715931,79.1684845 113.850908,79.8249128 C111.482752,79.6513711 109.274916,79.6444846 106.905659,79.6257531 C107.223543,78.8583132 109.795266,75.7767086 110.476486,74.9450858 Z" id="Path" fill="#FFFFFF"></path>
            <path d="M105.329184,81.6055057 L105.527793,81.8798668 C105.004964,82.5946933 104.051862,83.8417143 103.308939,84.3025639 C103.683293,83.4877443 104.718758,82.3164757 105.329184,81.6055057 Z" id="Path" fill="#272627"></path>
            <path d="M106.146208,52.4166198 C108.319886,52.4144161 127.204528,52.2926614 128.136143,52.6518652 C128.405822,53.1353028 128.551266,53.5462936 129.021757,53.792282 C129.903514,53.9170668 130.245088,53.5592403 130.951375,53.0372379 C131.731762,53.9922682 132.021274,54.3388006 133.014042,55.0685021 C133.042966,57.7625302 133.024785,60.652688 133.119545,63.3296375 C132.039179,64.0100311 132.406095,64.3381075 131.881063,64.5661909 C130.76351,64.9722233 128.868324,64.1361931 128.632252,65.9479133 C128.38103,67.8758788 128.007227,71.061333 128.880444,72.86231 C129.237995,73.6 132.136142,73.5129537 132.936913,73.5333379 C132.954818,74.7979885 133.114035,79.8670587 132.891737,80.7780148 C132.501406,81.0589871 132.32869,81.0719338 131.853517,81.2014014 C131.253007,81.852596 131.403686,81.9952858 131.516625,82.8745637 C130.782516,83.442293 129.861644,82.8616169 128.90441,83.3648878 C127.965081,83.8585175 128.282965,85.1975432 127.99428,85.440777 C126.843396,86.4104068 124.130911,86.2754299 122.873147,86.2456799 C122.099647,85.0554043 121.669374,84.6598394 120.489842,83.8618231 C120.352661,79.5546836 120.617932,75.1538867 120.406652,70.8495019 C120.382962,70.3693699 120.221816,69.8335944 119.867295,69.4956013 C118.76379,69.09921 117.147373,69.237217 115.939193,69.2691707 C115.592385,69.2044369 115.608086,69.2005804 115.299568,69.0229068 C115.63095,66.8718162 127.374488,55.3971295 126.247569,53.1625736 C124.603881,51.9937841 121.812339,56.8984028 120.649059,58.2646993 L120.424281,58.3087734 C120.255973,57.8988844 119.950209,57.1454931 119.502307,57.0843403 C115.849943,56.5874051 109.731634,56.852676 106.100205,56.8647963 L106.146208,52.4166198 Z" id="Path" fill="#FFFFFF"></path>
            <path d="M157.935455,71.5411895 L169.508207,71.5530344 C169.643184,74.9764886 169.09088,78.0434936 169.178753,81.3956029 C168.281019,82.9731795 167.876915,84.186594 168.127035,86.0368789 C167.530933,86.3255642 158.632377,86.1437586 157.255613,86.1310873 C156.407738,85.2526358 155.723212,84.4940107 154.730168,83.7678902 C154.708682,82.6844942 154.605108,80.4648134 154.986624,79.5367785 C155.364284,79.2379012 155.433976,79.1905215 155.727068,78.8158919 C155.741943,78.1583617 155.588786,77.950938 155.312497,77.3570398 C156.768043,77.3647528 161.651727,77.586225 162.235433,76.763968 C164.39644,73.7173472 158.490789,74.2029885 157.839319,74.210426 C157.887249,73.33528 157.904879,72.4204674 157.935455,71.5411895 Z" id="Path" fill="#FFFFFF"></path>
            <path d="M83.3128041,43.4844566 C83.0001536,42.5668893 81.8646951,41.8575721 82.8916212,40.7664631 C84.102832,40.5653752 85.1473877,41.6997318 85.8916887,42.4974726 C86.5618902,41.8556438 87.3623857,40.950197 88.3562562,41.0832456 C89.5423998,41.2421877 88.9055294,42.7610907 88.6041729,43.3233107 C90.1161893,43.343695 92.995604,43.2971417 94.3963334,43.4458917 C93.0460137,43.5183385 88.230645,43.1751116 87.5216033,44.0629289 C87.5882653,44.5606905 88.3854552,45.1165748 88.8537423,45.5567647 C90.4536314,45.5600703 93.8806666,45.4903781 95.3497108,45.6796212 C94.1098518,45.7721768 89.5826174,45.4664128 88.964203,46.0399268 C87.9447144,48.3348091 87.0891264,46.9814593 85.7310938,45.6449129 C85.0063506,46.3228273 84.0717047,47.4296376 83.0334846,47.3456214 C82.580348,46.9079107 82.6269012,46.6616468 82.4258132,45.9856606 C81.8184173,45.476605 78.4054308,45.6658481 77.2096459,45.5705379 C78.5960511,45.443274 81.2352621,45.5226073 82.714223,45.5231582 C83.2042717,45.1143711 83.6791699,44.791253 83.9854847,44.2430817 C83.8898991,43.7439427 83.8846653,43.8866325 83.3128041,43.4844566 Z" id="Path" fill="#647D93"></path>
            <path d="M119.297638,59.6767226 C119.085531,60.5615098 115.302047,65.0989363 114.46216,66.0159526 L114.178158,66.1175985 C114.245095,65.0325497 114.110669,63.2059546 114.3225,62.2349475 C116.436128,61.3377645 114.801806,60.9534936 115.282764,59.9428199 C115.689072,59.8422759 118.386957,59.7940699 119.297638,59.6767226 Z" id="Path" fill="#FFFFFF"></path>
            <path d="M114.961024,81.6696885 L115.118038,81.5090936 C115.714415,82.0189756 116.944633,83.7527398 117.307142,84.4730755 C116.864473,85.2005733 116.77963,85.3920201 115.975554,85.6068812 C114.741755,85.1713742 115.004547,82.8040452 114.961024,81.6696885 Z" id="Path" fill="#FFFFFF"></path>
            <path d="M118.658839,86.2354878 C119.25439,86.8977008 119.934508,87.6601824 120.26892,88.5022728 C119.878865,88.7416501 119.793471,88.8383377 119.332346,88.8240136 C118.64176,88.5314719 118.213966,87.8890922 117.710144,87.2951939 L118.658839,86.2354878 Z" id="Path" fill="#FFFFFF"></path>
            <path d="M53.9536821,58.6148128 C62.9549865,58.55366 71.9565665,58.5407132 80.9578709,58.5765234 L80.9341811,88.7107983 L75.1183308,88.7276015 C74.1561385,87.3927078 73.4493005,86.6040573 73.1655736,84.8292492 C73.4206523,84.1838393 75.1312775,84.6948232 75.6260091,84.0047884 C77.9520187,80.7598343 69.7779296,81.5633598 68.598397,81.5785103 C69.8765453,78.8894405 68.0973298,79.7557716 68.1637164,76.827049 L71.7306868,76.7967481 C70.8574691,76.1609795 69.994719,75.5106113 69.1435383,74.8456436 L64.6656118,74.8773219 C63.8122274,75.5516553 62.9508546,76.2157966 62.0817688,76.8697458 C63.1235699,76.8253962 65.0319776,76.6835328 65.9944453,76.8366902 C66.0057393,77.7184473 66.1324522,78.5035168 65.64323,79.1877669 C63.9372876,79.8122415 64.4727877,80.3080749 65.3531674,81.6022001 C64.064276,81.5823668 59.8050671,81.111876 59.3287916,82.7652049 C59.0949235,83.5775453 59.9640093,83.9645708 60.3441482,84.5157723 C59.4725833,85.6385595 59.4031666,85.4338904 59.9686922,86.6993675 C59.590206,87.3737009 58.3756896,88.4554441 57.769671,89.0430067 C57.5738168,84.0496889 58.3668748,83.8430916 52.971932,83.8001194 C50.1057394,79.950524 49.2567625,80.0326119 46.2360352,83.3690198 C45.642137,82.9610591 44.8496299,82.5682489 44.2006391,82.2239201 C44.0736507,81.2592487 44.1480257,76.86038 44.1516067,75.6836021 C47.823804,72.3320438 47.8739382,72.2466502 44.4799586,68.5783095 C45.0413522,68.0160895 45.9107134,67.1302005 45.5297481,66.3109735 C43.8444655,65.3688901 44.182734,64.9096932 44.1887942,63.0786907 C45.8735259,63.1227648 49.5724431,63.4734292 50.9514109,62.5318966 C51.8353716,61.9280817 51.5813947,60.898401 51.7532836,59.8381439 C52.6689227,59.2318499 52.9176657,60.3422412 53.9536821,58.6148128 Z" id="Path" fill="#FFFFFF"></path>
            <path d="M68.1868553,66.8654805 C69.7795824,66.7610801 72.1193651,66.3746055 73.4391083,67.1492074 C74.2093029,68.3794252 73.9881061,73.7479236 73.7363329,75.3340395 C73.6625088,75.7979192 73.3685898,76.1359123 73.0567657,76.4747318 C72.5485364,76.8182342 72.3810549,76.8028083 71.7306868,76.7967481 C70.8574691,76.1609795 69.994719,75.5106113 69.1435383,74.8456436 L64.6656118,74.8773219 C63.8122274,75.5516553 62.9508546,76.2157966 62.0817688,76.8697458 C63.1235699,76.8253962 65.0319776,76.6835328 65.9944453,76.8366902 C64.7449451,77.0603662 61.7735257,77.2190329 60.8058242,76.3295628 C60.5496436,75.8359331 60.5551529,75.766241 60.6375163,75.2131113 C61.4115674,74.7059839 61.7589262,74.3988427 62.4522666,73.774368 L62.4409726,69.8537032 C61.9321924,69.2446545 61.1548358,69.0143674 61.0658613,68.0480432 C61.2124076,67.4337607 61.4754748,67.2263371 61.8999633,66.7743023 L62.1476045,66.8756727 L68.1868553,66.8654805 Z" id="Path" fill="#647D93"></path>
            <path d="M71.7397771,69.3581452 C72.7325457,68.5686683 72.8069207,68.2474784 73.4391083,67.1492074 C74.2093029,68.3794252 73.9881061,73.7479236 73.7363329,75.3340395 C73.6625088,75.7979192 73.3685898,76.1359123 73.0567657,76.4747318 C73.1911916,75.0109214 72.8677981,74.8183728 71.7226984,74.0928033 L71.7397771,69.3581452 Z" id="Path" fill="#272627"></path>
            <path d="M62.1476045,66.8756727 L68.1868553,66.8654805 C69.0256401,66.9547306 70.3784389,66.9142375 71.2585432,66.913962 C70.3539227,67.5742468 69.4597698,68.2480293 68.5760845,68.9358604 C67.4563274,68.9554183 66.2894662,68.9441243 65.1658526,68.9474299 C64.1086256,68.3317701 63.137343,67.595182 62.1476045,66.8756727 Z" id="Path" fill="#272627"></path>
            <path d="M68.6562443,71.7767104 C69.7098902,70.9067982 70.6255292,70.1534069 71.7397771,69.3581452 L71.7226984,74.0928033 C70.7194621,73.3735694 69.648462,72.527898 68.6562443,71.7767104 Z" id="Path" fill="#FFFFFF"></path>
            <path d="M62.4409726,69.8537032 C63.3117111,70.4572426 64.131489,71.0246964 64.9716512,71.6745136 C63.9910029,72.6199026 63.5924079,72.9917777 62.4522666,73.774368 L62.4409726,69.8537032 Z" id="Path" fill="#FFFFFF"></path>
            <path d="M66.9277139,73.0832314 C67.4207927,73.376324 68.3424919,74.0005232 68.5609341,74.5145371 C68.1042164,74.8225048 67.6954293,74.7037802 67.0472649,74.7057084 L64.9460331,74.7062594 C65.5702323,74.1399074 66.26495,73.6079884 66.9277139,73.0832314 Z" id="Path" fill="#FFFFFF"></path>
            <path d="M65.4181767,69.0881915 C66.0941629,69.0967308 67.5946099,68.9972887 68.0940243,69.233085 L67.8615335,69.5749346 C67.4499918,69.9236708 67.4070195,69.9955666 66.9062278,70.1465203 C66.3211444,70.0691152 65.8826073,69.5242494 65.4181767,69.0881915 Z" id="Path" fill="#FFFFFF"></path>
            <path d="M50.8257997,70.7305019 C50.4616376,69.8501221 50.0247533,68.9810364 51.0525058,68.3725386 C52.2964967,68.403115 53.0518162,69.3085619 53.9010687,70.1578143 C54.7817239,69.2666915 55.5822193,68.0764159 56.9374973,68.663703 C57.472171,69.348504 57.0487844,70.0660851 56.6595551,70.7528144 L56.6664417,70.9150621 C56.1477449,71.1263422 56.0237865,71.1282705 55.7240828,71.5657057 C55.7590666,72.4248748 56.4466222,72.792067 57.2347219,72.918229 L56.9636663,73.1592592 C56.9146339,73.971875 56.9127056,74.9337918 56.105599,75.297403 C55.1243998,75.0764816 54.3916683,74.0999653 53.7132029,73.3490532 C52.7617537,74.3280487 52.5256819,74.7514353 51.2216401,75.1040279 C50.6192025,74.9866807 50.8547233,75.1362571 50.492765,74.63822 C50.3354756,73.9677431 50.5145265,73.5608842 50.7034942,72.9077614 C51.3582697,72.5121966 51.8962489,72.3521526 51.8615406,71.518877 C51.5296077,71.0508654 51.3527604,71.0106478 50.8257997,70.7305019 Z" id="Path" fill="#647D93"></path>
            <path d="M60.4810533,70.2079486 C60.5708543,68.6152215 60.2620603,67.4012561 61.8999633,66.7743023 C61.4754748,67.2263371 61.2124076,67.4337607 61.0658613,68.0480432 C61.1548358,69.0143674 61.9321924,69.2446545 62.4409726,69.8537032 L62.4522666,73.774368 C61.7589262,74.3988427 61.4115674,74.7059839 60.6375163,75.2131113 C60.614102,74.8079052 60.624845,74.6960672 60.4810533,74.3035325 C59.6783542,74.0490047 59.024405,75.1759238 58.0533979,74.567426 C57.0724742,73.9525926 58.0087729,73.6677639 57.2347219,72.918229 C56.4466222,72.792067 55.7590666,72.4248748 55.7240828,71.5657057 C56.0237865,71.1282705 56.1477449,71.1263422 56.6664417,70.9150621 C56.9708283,70.8979834 57.0303283,70.8685089 57.3261756,70.7820135 C58.2475993,68.8108002 59.0497476,68.8446822 60.4810533,70.2079486 Z" id="Path" fill="#272627"></path>
            <path d="M50.8257997,70.7305019 C51.3527604,71.0106478 51.5296077,71.0508654 51.8615406,71.518877 C51.8962489,72.3521526 51.3582697,72.5121966 50.7034942,72.9077614 L48.4466258,72.9523864 C48.4317508,72.23756 48.4488295,71.4657126 48.4507577,70.7453769 C49.2264615,70.7244417 50.045964,70.7340829 50.8257997,70.7305019 Z" id="Path" fill="#272627"></path>
            <path d="M146.682241,70.4690875 L149.752551,70.4376847 L149.790014,74.2109769 C148.931947,74.2095996 148.041926,74.2357686 147.180829,74.2487153 C143.198185,78.2393478 149.90323,77.3465722 152.313806,77.3683338 C152.216568,77.6030283 151.909978,78.3773548 151.989311,78.5955215 C152.648494,80.4138527 152.649045,81.9498344 152.618744,83.8601703 C152.000605,84.3336912 151.246387,85.2369344 150.749452,85.7283604 C150.630727,85.8459831 149.696082,85.3534552 148.934702,85.5887006 C148.272764,86.5941406 148.080216,86.3313489 146.956051,86.3520086 C146.323863,86.3635781 145.673771,86.3255642 145.040757,86.3087609 C143.282752,86.2809392 141.524196,86.2977424 139.767018,86.3588952 C139.75655,81.6358066 138.497409,83.8673324 136.173052,82.8613415 C136.485702,82.3393391 136.585145,82.2671678 136.535561,81.6964085 C136.182693,80.9168482 135.535355,80.8766306 135.426547,80.6802255 C134.860195,79.6577068 135.077536,74.6654908 135.075883,73.4991805 C136.411052,73.5264513 139.268154,73.8173403 139.928714,72.7097035 C140.21189,72.2348053 139.829823,71.9651271 140.421793,71.5172242 C141.61262,71.425495 141.444863,71.4513886 142.105423,70.5511755 C143.631488,70.5442889 145.157278,70.5170181 146.682241,70.4690875 Z" id="Path" fill="#FFFFFF"></path>
            <path d="M36.909409,72.9030786 C37.4074461,73.5597824 36.9920479,74.1492732 38.353386,74.280669 C38.997694,74.0751736 39.2816963,73.7845602 39.794333,73.3606226 C40.5471733,74.3354862 41.0584327,74.9467386 42.0523032,75.6676252 C42.0710347,78.159739 42.0225532,80.6620449 42.0137384,83.1475475 C42.0107083,83.981374 41.8619582,85.4562029 42.7189236,85.8523187 C43.3103427,86.125578 43.3811367,86.8340689 43.8530048,87.2227472 C44.7606554,87.9706292 45.6426879,86.9982448 46.1839727,86.393879 C46.9924566,87.3439509 47.4453178,87.7888236 48.4141212,88.5609464 C48.4190795,89.3394049 48.5397323,91.054162 48.2460887,91.6965417 C47.2073178,92.2265326 46.9497599,92.7328336 47.156908,93.8068638 C46.8718038,94.0826023 46.8004589,93.9839865 46.2646834,94.0057481 C42.437125,93.9961069 41.2741202,93.373836 41.1226156,97.5897972 L35.9849551,97.5250634 C35.9317908,91.7808334 35.9345454,79.5712114 36.1191056,73.2463055 C36.1229621,73.1118795 36.6923441,72.9755253 36.909409,72.9030786 Z" id="Path" fill="#FFFFFF"></path>
            <path d="M152.690089,119.854094 C155.851578,119.832333 159.013342,119.854645 162.17428,119.920756 C162.19797,122.484766 162.170423,125.048775 162.091641,127.611408 C159.874439,127.626283 157.613439,127.59185 155.392105,127.580831 C152.184614,127.543093 148.977399,127.487174 145.770458,127.41335 C145.752278,125.148493 145.696083,122.204895 145.880644,119.993478 L152.690089,119.854094 Z" id="Path" fill="#FFFFFF"></path>
            <path d="M111.242824,103.880546 C116.672751,103.789367 122.103504,103.778349 127.533706,103.848041 C127.605051,106.22446 127.4709,108.944933 127.397352,111.340635 C122.858823,111.583593 115.920186,111.280584 111.221889,111.197394 C111.177539,108.758445 111.184701,106.318944 111.242824,103.880546 Z" id="Path" fill="#FFFFFF"></path>
            <path d="M72.9449277,103.770085 C73.8817774,103.735928 74.8728932,103.756863 75.8144258,103.760995 C75.7810947,106.314537 75.8031318,108.762852 75.7276549,111.334299 L68.2102697,111.354408 L65.5523272,111.357989 C65.4936536,108.880199 65.5229341,106.401308 65.6396489,103.925997 C67.9775034,103.819668 70.5880663,103.816638 72.9449277,103.770085 Z" id="Path" fill="#FFFFFF"></path>
            <path d="M36.2135894,55.4001596 C40.5565391,55.4425809 45.1369379,55.2574697 49.4669407,55.5381665 C49.5187278,57.2523728 49.4460056,59.1569239 49.4143273,60.8860052 L36.2323209,60.879945 C36.1967862,59.0786925 36.2182723,57.2074723 36.2135894,55.4001596 Z" id="Path" fill="#FFFFFF"></path>
            <path d="M62.9819819,84.5953811 C65.441591,84.685182 67.9034039,84.6950987 70.3638394,84.6245801 C69.2360939,85.8600317 70.0390685,85.6476497 69.7539643,86.6271962 C69.6421263,87.0111916 68.0314942,88.9964534 67.7069988,89.5864952 L67.6130659,89.7600369 C68.1835497,91.1431366 69.3873231,92.602815 70.5944019,93.4903568 C70.6070732,94.2525629 70.5850362,94.9974149 70.5660292,95.7590701 L62.694674,95.8634705 L62.6825536,93.5126693 C63.4706533,93.146579 65.2360956,91.5155626 65.5021929,90.7026712 C65.9437601,89.3537289 64.1378247,87.8180227 63.4491672,86.4751406 C63.4656949,86.3555896 63.4805699,86.2357632 63.4940676,86.1156614 C63.5822158,85.2895478 63.5340098,85.2801821 62.9819819,84.5953811 Z" id="Path" fill="#FFFFFF"></path>
            <path d="M43.3662617,96.2513225 C46.2712945,96.1149683 49.7063181,96.183834 52.625124,96.2105539 C52.6474365,98.004369 52.6281541,99.798184 52.5675523,101.591173 C49.5008227,101.612108 46.4338177,101.609629 43.3670881,101.583735 C43.3260441,99.7665058 43.2756344,98.0660727 43.3662617,96.2513225 Z" id="Path" fill="#FFFFFF"></path>
            <path d="M130.554709,66.899638 C132.97713,66.7514389 135.663721,66.8252629 138.096335,66.8899967 C138.111485,68.3389321 138.045098,69.9189879 138.008186,71.377289 C135.50285,71.3877566 132.99779,71.3569048 130.493556,71.2841825 C130.485292,69.8223004 130.505676,68.3606937 130.554709,66.899638 Z" id="Path" fill="#FFFFFF"></path>
            <path d="M99.0321002,94.1316347 L106.239039,94.1536717 C106.266585,95.5858038 106.230499,97.1157253 106.220307,98.5555704 C103.798712,98.5652117 101.377117,98.5536422 98.9557969,98.5208621 L99.0321002,94.1316347 Z" id="Path" fill="#FFFFFF"></path>
            <path d="M130.266023,85.2407909 C132.698913,85.2250895 135.131802,85.2264668 137.564416,85.2451983 C137.612622,86.6979901 137.583147,87.9833005 137.542103,89.4355414 C135.393216,89.5396665 132.483225,89.4044141 130.280898,89.3650229 C130.224704,88.0339857 130.259963,86.5817448 130.266023,85.2407909 Z" id="Path" fill="#FFFFFF"></path>
            <path d="M150.359121,50.4095964 C150.962109,50.8955131 153.013482,54.5192289 153.290598,55.3615947 L150.151973,55.4698517 C150.26326,53.8639024 150.274003,52.0593443 150.359121,50.4095964 Z" id="Path" fill="#FFFFFF"></path>
            <path d="M146.644778,50.9428927 C146.912252,51.2481058 146.960183,54.7809187 146.984975,55.4367961 L144.774935,55.4161364 L144.587896,55.3775716 L144.496166,55.1194628 C144.899444,54.034414 146.048676,52.0397864 146.644778,50.9428927 Z" id="Path" fill="#FFFFFF"></path>
            <path d="M43.0635279,70.3393444 C43.6378682,70.6024116 44.3281785,71.5296201 44.7419239,72.0301363 C44.2697803,72.6149443 43.6979191,73.145486 43.1602154,73.6752014 L42.9855718,73.663081 C42.3335509,73.2286758 41.9283448,72.6667313 41.4292059,72.0631919 C41.8768332,71.4836177 42.534088,70.8665806 43.0635279,70.3393444 Z" id="Path" fill="#FFFFFF"></path>
            <path d="M49.4085426,83.2318392 C49.9950033,83.5081286 50.7134108,84.4086172 51.1486424,84.9107862 C50.6798043,85.4914622 50.1489871,86.0120873 49.6272602,86.54621 C48.8948041,86.4630202 48.2863063,85.4900849 47.8692553,84.9377816 C48.2937438,84.3477398 48.895355,83.7640337 49.4085426,83.2318392 Z" id="Path" fill="#FFFFFF"></path>
            <path d="M134.01838,49.8391125 C134.429647,50.1547931 135.301212,51.0687793 135.708897,51.4759137 C135.052468,52.2967934 134.808684,52.5444346 134.01838,53.2399787 C133.512355,52.8229277 132.872179,52.028217 132.424827,51.5084183 C132.929751,50.952534 133.495276,50.3839783 134.01838,49.8391125 Z" id="Path" fill="#FFFFFF"></path>
            <path d="M153.688642,85.7864831 C154.277031,86.0746174 154.947508,86.8404045 155.437006,87.3387171 C154.853851,88.1474765 154.652487,88.3496663 153.917277,89.0314372 C153.206582,88.7948145 152.627283,87.9359209 152.178279,87.3522148 C152.614887,86.8357216 153.202175,86.2754299 153.688642,85.7864831 Z" id="Path" fill="#FFFFFF"></path>
            <path d="M71.5205085,88.2017427 C72.3614971,88.6716825 72.6435712,89.0672474 73.2614347,89.7936433 C72.8215203,90.3947036 72.2188072,90.9511389 71.6871636,91.4800278 C71.1714969,91.236794 70.429675,90.3076573 70.0409968,89.8600299 C70.4795339,89.2790785 71.0202677,88.7342126 71.5205085,88.2017427 Z" id="Path" fill="#FFFFFF"></path>
            <path d="M61.6035651,88.3386478 C62.4004795,88.9171201 62.679799,89.2642035 63.3378801,90.0079536 C62.8797851,90.5244467 62.278174,91.0715162 61.7710466,91.556882 C61.3391206,91.5425579 60.3887732,90.42528 60.0281922,90.049273 C60.483808,89.494766 61.1030488,88.8697404 61.6035651,88.3386478 Z" id="Path" fill="#FFFFFF"></path>
            <path d="M179.048042,54.9632752 C179.517706,53.1377819 182.115873,47.6042812 184.374394,48.115816 C184.879593,48.8336726 184.305804,50.1319297 184.011334,50.8894529 C185.043494,50.3525755 186.139836,49.9043972 187.191554,49.4424458 C188.668587,48.7937304 195.305592,47.6282465 196.515977,48.6683948 C196.737449,49.6545523 195.006715,50.535483 194.237071,51.0853071 C196.620102,50.5718441 204.146853,50.1277977 205.872904,51.9596267 C205.967939,52.9072194 204.677119,53.2967241 203.90417,53.5873375 C206.838126,54.3558793 209.506812,55.3368031 211.909676,57.2534746 C212.970759,58.099697 215.270049,59.6356786 215.269498,61.1014173 C214.643095,62.0817901 213.34346,61.4953294 212.406611,61.2341904 C214.022201,63.7610125 215.506396,66.2352212 216.138859,69.2248211 C216.401375,70.4668838 216.809611,73.0912198 215.912428,74.1470695 C215.304482,74.3409954 214.508944,73.7840092 214.488009,74.0310996 C214.014213,79.6034406 212.668852,83.5811263 210.294361,88.6548793 C213.518655,92.7152039 210.285821,97.1655841 206.371767,99.1255034 C206.189962,99.2164062 205.769881,99.9372929 205.56411,100.056568 C204.49008,100.582427 203.458746,99.5640405 202.915809,98.8751075 C200.068072,103.107872 197.897975,104.954576 193.207391,106.951683 L193.29058,109.954229 C195.351595,110.460806 197.410405,110.944519 199.447729,111.53098 C207.328175,113.799693 206.021929,121.785916 204.411022,127.970336 C203.817674,130.24814 203.189619,132.468647 202.165447,134.601006 C201.715616,135.597356 201.534086,136.012478 200.912917,136.895337 C200.55151,137.420094 200.558396,137.341863 200.606602,138.103518 C200.775737,138.727717 200.940188,139.353294 201.099957,139.979972 C201.297188,140.565882 201.47982,141.170523 201.689172,141.749822 C204.768848,150.274851 203.238376,159.352458 202.078677,168.159837 L200.267783,182.166855 C211.282997,190.979192 196.499173,190.456914 193.021178,186.520548 C190.246163,183.379443 189.546763,172.758141 188.724781,168.3758 L188.262003,168.499207 C188.07882,172.770812 188.190658,177.675155 187.664524,181.891116 C187.431482,182.756346 187.076135,184.078293 186.217242,184.500026 C183.63698,185.766054 179.978005,186.082561 177.18178,186.282823 C175.721826,186.387499 172.256501,186.397691 171.628721,185.02864 C170.576177,182.732931 177.566051,180.411329 178.629338,180.008051 C177.556409,175.791539 176.915131,171.003992 176.139152,166.694374 C175.159055,161.252877 174.133506,155.632055 173.854187,150.113429 C173.798543,149.012955 174.157196,147.717728 173.567981,146.807047 L173.511511,146.721378 C173.516194,145.151514 174.649448,141.591706 175.155198,140.002009 C175.173103,139.560993 175.381629,138.686949 175.478316,138.220865 L175.844682,136.880738 C175.945502,136.488754 176.05183,136.282707 175.889583,135.919923 C174.691319,135.045603 171.151068,136.210536 169.339348,135.768694 C167.865621,135.409214 168.011065,136.009173 166.972019,134.715598 C167.134267,134.314524 167.405322,133.810152 167.60338,133.413485 C167.748825,134.0173 167.768934,134.323615 168.159265,134.807328 C168.613503,134.967647 168.592843,134.951946 169.07573,134.861869 C168.853982,134.138503 168.052936,133.622286 167.774443,132.6488 C167.315797,130.042093 167.898401,127.505905 168.788698,125.052081 C169.004385,124.251035 169.14129,123.719115 169.461654,122.950849 C169.606547,122.486969 169.981728,121.648736 170.181989,121.166951 C169.736566,111.711408 170.448362,101.337747 169.963823,91.8742154 C169.371577,91.0200046 169.229714,89.6988841 168.608545,88.3777635 C168.438309,87.5995805 168.277989,86.8191939 168.127035,86.0368789 C167.876915,84.186594 168.281019,82.9731795 169.178753,81.3956029 C169.09088,78.0434936 169.643184,74.9764886 169.508207,71.5530344 C169.529418,70.7081894 169.53658,70.0032796 169.651448,69.1636683 C169.490853,63.8183088 170.869545,58.7500651 176.124553,56.5452592 C175.63781,55.5841688 175.135916,54.4754303 175.197344,53.3741292 C175.461789,52.8906916 175.267863,53.0576222 175.821819,52.8851824 C177.18481,53.1342009 178.013953,54.0567265 179.048042,54.9632752 Z" id="Path" fill="#000000"></path>
            <path d="M169.963823,91.8742154 C170.350573,92.0728242 170.640635,92.1133173 170.717489,92.4595743 C171.180543,94.5464819 171.31249,96.2543525 172.255675,98.2360334 C172.03255,100.306689 172.305809,105.248219 172.254022,107.514454 C172.226476,108.722634 172.160089,115.088584 172.289281,115.835915 C171.682712,117.579321 170.742832,119.481668 170.181989,121.166951 C169.736566,111.711408 170.448362,101.337747 169.963823,91.8742154 Z" id="Path" fill="#272627"></path>
            <path d="M172.289281,115.835915 C172.160089,115.088584 172.226476,108.722634 172.254022,107.514454 C172.305809,105.248219 172.03255,100.306689 172.255675,98.2360334 C172.781809,99.3544131 173.090879,99.9405984 173.756122,100.979094 C173.239904,101.244365 172.893096,101.34243 172.638017,101.847078 C172.362004,103.245053 173.634918,104.241127 173.617288,105.750113 C173.571011,109.715678 173.760529,112.119919 172.289281,115.835915 Z" id="Path" fill="#FFFFFF"></path>
            <path d="M188.262003,168.499207 C188.242446,167.672818 188.329492,166.706494 188.384034,165.870188 C188.528376,166.700709 188.642142,167.536739 188.724781,168.3758 L188.262003,168.499207 Z" id="Path" fill="#DCDBDB"></path>
            <path d="M175.082752,147.832596 C184.128957,150.210943 192.699437,150.107645 201.784482,147.855184 C202.94666,153.939335 201.419769,162.786105 200.641586,168.955925 C200.131153,173.003303 199.648542,177.342396 199.087148,181.362778 C196.430308,181.99469 194.875319,182.131596 192.203328,181.993589 C191.106159,176.395079 190.534022,170.775358 189.524175,165.21073 C189.088668,162.217273 188.63498,159.226296 188.162837,156.238349 C187.104508,155.623791 184.982065,154.763796 183.758183,154.864891 L183.603098,155.060469 C184.213799,156.013296 185.899082,156.558988 186.96292,156.991189 C187.342232,158.920808 187.202297,165.037188 187.107538,167.232353 C186.903971,171.941944 186.85907,176.992833 186.580026,181.683693 C184.242998,181.147091 182.036264,180.641065 179.817961,179.70394 C178.861278,175.586044 178.191627,170.706768 177.451458,166.491633 C176.365858,160.31162 175.141976,154.115356 175.082752,147.832596 Z" id="Path" fill="#272627"></path>
            <path d="M197.152572,149.190077 C197.523896,149.317341 198.757144,150.74176 199.30256,151.242001 C200.253183,152.114117 200.986741,152.363411 201.736001,152.971082 L201.742887,153.472976 C199.657908,153.76965 196.452345,151.192418 197.152572,149.190077 Z" id="Path" fill="#000000"></path>
            <path d="M192.71624,49.4286726 C193.244854,49.3534712 194.202914,49.3270268 194.769541,49.2958995 C194.01312,49.854263 192.176608,51.0329692 192.160356,52.0202285 C193.093073,52.6543444 196.341058,51.5965664 197.953618,51.5965664 C200.596135,51.5968419 201.551716,51.7381544 204.056776,52.2830202 C203.263443,52.6926337 202.126332,53.0870967 201.883649,53.9779441 C202.402346,54.7291317 202.930133,54.55559 203.747156,54.7128794 C207.704733,55.4745346 211.125708,57.6016598 213.862433,60.4739125 C212.938254,60.3067065 211.714372,59.9486046 210.929303,60.4119334 C210.620784,61.1124358 211.487942,61.9137577 211.96587,62.6117809 C214.444211,66.2299874 215.129838,68.6810572 215.308063,72.8909582 C214.753005,72.3543563 214.412257,71.9235321 213.68531,71.8827636 C213.508187,72.0541016 213.305447,72.3100067 213.306824,72.5455276 C213.327208,76.3700559 212.654252,79.9775193 211.322388,83.576168 C210.763199,85.0870825 210.086386,86.5767864 209.363847,88.0967913 C208.388983,86.9180851 207.557911,86.0969299 206.469281,85.0193186 C207.944661,80.4075171 207.536425,78.0837112 208.070272,73.562537 C205.238513,72.9612013 202.91085,71.9780738 201.029713,69.7550874 C200.599991,69.2474091 199.633667,68.2342562 199.103401,67.9188511 L198.899834,68.0136103 C198.202361,69.3677864 201.140174,71.8273956 201.122544,72.8185114 L200.5011,72.672516 C197.838475,71.7692729 194.900662,70.2137333 192.769404,68.3259854 C191.798948,67.4665408 190.271781,64.9196099 189.172684,64.6992395 L188.942397,64.9587257 C188.531682,66.750337 190.192448,69.2677934 191.090733,70.9070737 C187.1596,69.1702795 184.323984,66.5765199 183.139769,62.3682716 C182.964024,61.743797 182.731257,61.0857159 182.492706,60.4832783 L182.248371,60.4193709 C180.86169,61.7300238 179.668109,60.8557043 177.632437,62.5060031 C174.889928,64.7295404 173.873194,67.7185894 173.378462,71.0740043 C172.230332,71.2464441 171.707503,71.3792173 170.594633,71.7221687 C170.559649,68.2130455 170.859628,62.9844823 172.956728,60.0783477 C174.305946,58.2090558 175.780775,57.798065 177.902942,57.4760487 C177.112914,56.2337106 176.687324,55.5461549 176.303604,54.1261432 C177.664942,55.2712429 178.227437,55.7152892 179.843854,56.4447152 C180.38872,53.2782681 181.012093,51.9541174 183.22654,49.6333416 C182.913614,50.5142723 182.03103,52.485761 182.571213,53.3184857 C183.018565,53.2879093 183.695929,52.6163305 184.062294,52.3047818 C186.480584,50.248726 189.678159,49.7680431 192.71624,49.4286726 Z" id="Path" fill="#647D93"></path>
            <path d="M185.356695,83.7464041 C186.459374,84.9171219 185.031098,90.2671642 189.583675,91.7827617 C198.476998,94.7431625 199.889848,93.3900883 203.089075,85.6190016 C203.640827,86.0658026 204.186244,86.5853258 204.712929,87.0665596 C204.350144,88.0067149 203.568931,89.4396734 204.201119,90.3101365 C205.154772,90.5575022 206.574508,89.3611664 207.996173,88.9369534 L208.213238,88.8735969 C212.984257,90.9866736 209.486703,95.8092043 206.579467,97.7892324 C205.0523,95.4929728 204.852038,96.7826906 203.15436,97.3060703 L202.765681,96.9978272 C202.360475,97.2540078 201.634355,98.7186445 201.230526,99.2395451 C198.795433,102.379548 196.71128,104.067585 193.155879,105.615136 C190.295196,106.776488 187.022144,107.102636 183.975799,106.724701 C183.682431,106.122815 183.30119,105.618166 182.918848,105.068342 C183.517704,104.940252 184.928626,104.68049 185.378732,104.441664 C189.663284,102.16992 185.029721,100.321013 182.381419,100.854585 C179.944123,101.345735 179.219655,101.701633 177.251747,102.944798 C177.027796,102.730212 176.81018,102.509566 176.5989,102.282585 C172.257052,97.6156907 171.851295,94.7643732 172.048527,88.6664487 C174.952182,90.0184212 177.527486,90.0418355 180.64435,89.5931063 C180.858109,90.8808958 181.844542,92.5802271 183.139218,92.9906669 C183.636429,92.8650558 183.415232,92.9857086 183.78325,92.5493752 C183.586294,91.6031598 181.775952,91.2971204 181.764933,89.8316572 C182.108711,89.3044211 185.254223,88.6008886 184.386239,87.1483722 C183.894262,87.1593907 183.285764,87.6698236 182.844473,87.9703537 C183.766172,86.5508929 184.636635,85.2810085 185.356695,83.7464041 Z" id="Path" fill="#FFFFFF"></path>
            <path d="M208.015455,90.9343356 C208.464735,90.9098194 208.447657,90.9194606 208.846252,91.0657315 L208.9198,91.3067616 C208.519552,91.7326274 206.763751,92.699778 206.130186,93.1058105 C206.317501,93.8435004 206.595168,95.1084265 205.876209,95.6340099 C205.480645,95.1929936 205.600471,95.2194381 205.489735,94.5142528 L205.464392,94.0429356 C204.959744,94.0228268 204.837989,94.8062436 204.17798,94.9040329 C203.555985,93.1958869 206.82821,91.5359468 208.015455,90.9343356 Z" id="Path" fill="#000000"></path>
            <path d="M180.79062,95.1221996 C181.041016,95.1015399 181.291963,95.0916232 181.54291,95.0924496 C182.84282,95.0943779 185.617559,95.6447529 185.485061,97.3421559 C184.040533,96.8066559 182.860449,95.9637391 181.051208,95.8353733 C180.774368,95.8158154 180.875463,95.8284867 180.665285,95.5678987 L180.79062,95.1221996 Z" id="Path" fill="#000000"></path>
            <path d="M195.643034,111.896244 C196.718167,112.12598 197.757764,112.461218 198.821877,112.681313 C207.71217,114.518927 203.773049,127.301512 201.382857,133.123147 C199.218544,130.509554 197.363301,130.046225 194.157463,129.647079 C194.862372,127.620223 197.000241,121.187611 196.727808,119.327133 L196.554266,119.253034 C195.715481,120.22349 194.45331,124.781301 193.998796,126.264945 L192.938263,129.837149 C188.397531,129.768834 183.874153,129.949813 179.322403,129.821723 C178.884967,128.221834 178.649447,127.720766 177.689733,126.363836 C177.920021,124.797278 177.935997,123.171495 178.204574,121.606039 C178.364618,120.674698 179.482998,119.776689 179.245548,118.885842 L178.762111,118.757751 C178.437615,118.289464 178.662393,116.716571 178.709222,116.057663 C180.731947,115.275073 181.039914,114.599362 182.12579,112.799211 C182.987713,117.181001 185.370193,119.354404 190.104851,117.723939 C192.795298,116.797557 194.538428,114.46163 195.643034,111.896244 Z" id="Path" fill="#9B9A9B"></path>
            <path d="M177.055067,135.915791 C182.677817,137.925844 193.895222,140.818757 199.500618,138.229955 C200.023447,140.885419 201.081776,143.960412 201.913123,146.574832 L199.324873,147.153579 C191.953483,148.502522 181.893299,148.975492 174.736495,146.382283 C175.49209,142.629375 176.687875,139.910831 177.055067,135.915791 Z" id="Path" fill="#9B9A9B"></path>
            <path d="M175.224891,105.927511 C176.063675,105.525611 177.742622,104.14499 178.45497,103.437601 C179.666456,102.234654 185.110156,101.069446 186.016429,102.543448 C185.201609,104.235067 179.140597,104.161518 178.516398,105.409641 C179.397329,106.075159 181.583403,104.886537 182.632642,106.129701 C181.959961,106.713683 180.006377,105.955608 179.233704,106.966558 L179.317444,107.24753 C180.475215,107.653287 182.357729,106.541518 183.303394,107.879993 L183.251882,108.137275 C182.549727,108.17887 180.597521,108.272252 180.144935,108.719329 C180.970773,109.661688 183.892334,108.244981 183.667556,110.415905 C183.595936,111.105114 183.349672,111.664855 182.815273,112.117716 L182.457998,112.178318 C182.021389,111.590755 182.46516,111.23403 181.976213,110.666026 C180.187356,111.222186 181.856938,113.777105 177.751437,115.127425 C177.255053,119.243944 176.712942,131.374232 173.699376,133.759191 C173.118425,134.218939 172.431971,134.433249 171.692904,134.345652 C170.859353,134.24676 170.086679,133.846788 169.574593,133.176311 C168.59367,131.891276 168.750684,130.282021 169.009619,128.790389 C169.942061,123.416657 172.989784,118.688886 174.242865,113.4471 C174.820786,111.029912 174.540916,108.331477 174.743657,105.852861 C174.542018,104.554879 173.741798,103.044791 173.932969,102.229696 L174.221103,102.108492 C175.089087,102.380925 175.56068,103.215027 176.082682,103.949411 C175.558752,104.601708 174.966782,105.077983 175.224891,105.927511 Z" id="Path" fill="#FFFFFF"></path>
            <path d="M189.145138,75.3502919 C191.564529,75.1987872 201.287271,76.7978499 202.041214,79.6902114 C202.602883,81.8443321 200.193408,87.3370643 198.951896,89.2928516 C198.7015,89.5969628 198.202637,90.1065693 197.870704,90.3349281 C196.055678,91.769264 190.841714,90.6944074 189.34292,89.2159974 C187.026001,86.9310318 187.360413,81.3810033 187.859276,78.3476048 C188.056233,77.1504426 188.348774,76.2430674 189.145138,75.3502919 Z" id="Path" fill="#FFFFFF"></path>
            <path d="M193.51343,76.9713916 C196.085979,76.9744217 198.072894,78.2197899 198.757695,80.7815958 C199.184938,82.4241817 198.941979,84.1692398 198.082535,85.6327747 C197.087012,87.327974 195.814923,88.0174579 193.985574,88.4769302 C187.052996,89.3239789 186.084193,78.2696487 193.51343,76.9713916 Z" id="Path" fill="#000000"></path>
            <path d="M193.137698,77.9016302 C199.497313,77.3799032 199.930065,87.0164254 193.169101,87.6913097 C191.912164,87.5560574 188.252913,85.7211984 189.715346,84.3758371 L190.614182,84.4593023 C191.944668,83.9590615 192.756182,81.6936538 192.33858,80.3774916 C192.159254,79.8127925 191.635874,79.1921743 191.629263,78.6175585 C191.983509,78.1952737 192.582641,78.0831603 193.137698,77.9016302 Z" id="Path" fill="#FFFFFF"></path>
            <path d="M174.23708,73.2545694 C176.084886,73.2000277 184.987299,73.194243 185.215107,75.580028 C185.51729,78.7473016 183.527896,83.4296217 181.765484,86.0729646 C179.338104,88.7672682 175.249131,88.2268098 172.50855,86.3500804 C172.757293,84.3488417 173.331082,82.2374178 173.570735,80.2623481 C173.851707,77.947908 173.967126,75.5918729 174.23708,73.2545694 Z" id="Path" fill="#FFFFFF"></path>
            <path d="M178.173722,74.8723636 C184.247406,74.5161899 185.259732,83.4191541 179.32378,85.768578 C173.242383,86.4828535 172.400568,76.8267735 178.173722,74.8723636 Z" id="Path" fill="#000000"></path>
            <path d="M178.468467,75.6599123 C183.674994,75.6819493 183.773058,84.6416589 178.184465,85.0297862 C176.753159,84.6747144 175.37612,83.389955 175.308907,81.8567279 C176.097006,81.5239686 176.632506,82.5002095 177.664666,80.806112 C178.982206,78.643452 177.7889,78.0958316 177.368268,76.3111068 C177.672655,75.8648567 177.895229,75.8901993 178.468467,75.6599123 Z" id="Path" fill="#FFFFFF"></path>
            <path d="M177.382041,128.171149 C177.918643,128.671389 178.324676,130.038788 178.590773,130.78364 C181.737387,131.340075 185.308214,130.990512 188.510746,131.052491 C193.263585,131.144221 197.55888,129.836047 200.7391,134.358598 C200.073857,135.824888 199.574993,136.492059 198.264616,137.372439 C194.183081,139.145043 185.745649,137.012133 181.544012,136.001184 C179.339206,135.470643 177.331632,134.614779 175.018293,134.500186 C176.550694,132.294554 176.954798,130.837906 177.382041,128.171149 Z" id="Path" fill="#FFFFFF"></path>
            <path d="M180.553447,62.2919683 C182.545595,62.0470817 182.038468,62.5104105 182.663769,64.1821955 C184.046869,67.8811126 187.605024,71.0624348 191.429002,72.0045183 C191.76424,72.0871572 192.008025,71.7656918 192.172476,71.5629511 C192.298087,70.5376778 191.161251,68.8956428 190.647513,67.7037144 C191.910786,68.8694739 193.008506,69.8884115 194.359652,70.9461894 C194.097963,70.9999047 193.83765,71.0602311 193.57899,71.1271686 C193.029166,71.273164 192.631397,71.4450529 192.34161,71.9348261 C192.788687,73.0033471 195.227636,72.8631364 196.262275,73.2182082 C196.917051,73.4427106 197.200227,73.6179051 197.778424,73.9680185 C198.092451,74.2327385 198.116968,74.2236482 198.305109,74.6062663 C197.596618,74.694139 194.663764,73.7162453 193.577613,73.5201157 C191.851837,73.208567 189.353939,73.1350184 187.770026,72.7860068 C182.802878,71.6921432 179.5739,71.0252473 174.465714,71.046458 C175.343615,67.1519621 176.374398,63.6163945 180.553447,62.2919683 Z" id="Path" fill="#FFFFFF"></path>
            <path d="M179.346919,66.4343809 C181.030273,66.3919596 182.678644,66.9536287 183.729811,68.340034 C183.740554,68.5576497 183.80391,68.7647979 183.682706,68.8496405 C182.290792,69.8225758 181.747303,68.0557562 179.2169,68.2248904 L179.037574,68.2375617 C177.644833,68.6199044 176.359523,69.8338698 175.300643,69.6101939 C175.208638,67.88552 178.012852,66.7822907 179.346919,66.4343809 Z" id="Path" fill="#000000"></path>
            <path d="M191.521282,107.543102 L191.787379,107.519687 C192.532782,108.413289 191.57114,109.566928 192.436094,110.973442 C192.999692,111.424926 193.461368,111.34697 194.168757,111.430987 C194.943358,112.624568 192.804113,114.501573 191.955411,115.158276 C190.225228,116.497302 188.693929,117.059247 186.535952,116.950163 C184.36916,116.161237 183.77113,115.36873 183.489056,113.060626 C185.247336,110.447584 185.776225,111.977781 186.080061,108.247461 C188.279358,108.194296 189.411786,108.054912 191.521282,107.543102 Z" id="Path" fill="#FFFFFF"></path>
            <path d="M198.804799,182.768191 C200.826422,183.2351 207.088522,189.957499 197.588354,187.521029 C196.152366,186.918041 192.624786,185.529156 192.857828,183.493485 C193.249536,183.375311 197.501583,183.009496 198.804799,182.768191 Z" id="Path" fill="#272627"></path>
            <path d="M202.719954,72.5513123 C204.289267,73.4143379 205.184522,73.8845532 206.910298,74.3368635 C206.981918,78.469084 206.75714,80.2325981 205.632425,84.1962352 L204.143823,82.7247118 C203.817674,81.8693992 205.218404,79.4500077 204.791987,78.4032483 C204.203047,76.957343 201.866295,76.0879818 200.511568,75.4825141 L199.807484,73.5418773 C200.656186,73.7936505 201.48891,74.180125 202.258278,73.8440602 C202.721056,73.2518147 202.588834,73.3669583 202.719954,72.5513123 Z" id="Path" fill="#FFFFFF"></path>
            <path d="M179.315516,181.117341 C179.692074,181.10467 185.747853,182.825487 185.944533,183.019964 C185.296644,184.129804 180.751505,184.674945 179.39788,184.844906 C178.159122,185.132765 173.988337,185.44211 173.169661,184.523165 L173.271858,184.154045 C174.351948,182.95826 177.752264,181.735755 179.315516,181.117341 Z" id="Path" fill="#272627"></path>
            <path d="M172.816518,73.5504166 C172.869682,73.6060601 172.964166,73.8140347 173.004934,73.893919 C172.960309,75.3618613 173.078483,77.5559241 172.077726,78.5478664 C171.681334,76.8672666 171.357115,74.7676876 172.816518,73.5504166 Z" id="Path" fill="#647D93"></path>
            <path d="M169.234948,84.071175 C169.431077,84.3229482 169.433281,84.547726 169.493883,84.8609274 C169.784221,86.3608234 171.027385,87.607569 170.864587,89.1523655 C169.141841,89.0644928 169.108235,85.292027 169.234948,84.071175 Z" id="Path" fill="#FFFFFF"></path>
            <path d="M171.383834,80.8264963 C171.962858,81.0920426 171.855703,80.9454963 172.168353,81.4088251 C172.267244,82.1297118 171.933108,82.987779 171.717145,83.7144504 L171.684916,83.762381 L171.537818,83.7318046 C171.283841,82.8850313 171.248307,81.7057742 171.383834,80.8264963 Z" id="Path" fill="#FFFFFF"></path>
            <path d="M3.58251791,135.07067 C3.68113367,131.336494 3.52467068,126.696044 3.46709892,122.943136 L3.26821463,104.571131 L2.89193217,38.991655 L2.89854328,16.7645456 C2.91121458,13.1055705 2.85915207,9.29040798 3.12827943,5.66145842 C3.27840676,3.63515259 6.89027762,1.59645093 8.71384268,1.36258284 C10.7729286,1.09841383 12.8325655,1.0130203 14.9048736,0.922943894 C18.9979783,0.760420724 23.0924604,0.63976793 27.1880442,0.560985512 C41.6939258,0.342818816 56.2009092,0.203985464 70.7081681,0.145036382 C103.644728,-0.0725793879 136.582665,-0.0453085509 169.51895,0.226848893 C183.846607,0.272300288 198.173989,0.427385957 212.499166,0.6921059 C214.964836,0.75546239 229.524983,0.855455459 230.84087,1.93499496 C231.492065,2.46939318 231.734748,3.53956693 231.840525,4.34364343 C232.46803,9.11989639 232.36969,14.4401888 232.38181,19.2596894 L232.389248,38.7666018 C232.377403,58.9770466 232.179345,79.1869405 231.79535,99.3938044 L231.472507,121.47299 C231.424301,125.588132 231.269215,129.733575 231.406947,133.837698 C231.473058,135.812217 231.569745,136.71546 230.107863,138.25943 C229.759127,138.627724 229.158618,139.050284 228.660305,139.12218 C226.52712,139.429597 223.971098,139.489648 221.823313,139.575868 C214.918558,139.837282 208.00967,139.971983 201.099957,139.979972 C200.940188,139.353294 200.775737,138.727717 200.606602,138.103518 C200.558396,137.341863 200.55151,137.420094 200.912917,136.895337 C201.534086,136.012478 201.715616,135.597356 202.165447,134.601006 C203.024892,134.939274 223.322383,134.780332 225.918071,134.777027 C226.038448,131.803679 226.003464,128.867794 226.06021,125.897477 C226.228793,117.961388 226.332092,110.024197 226.370381,102.08618 L226.826548,53.3559486 L226.906432,25.1149309 C226.897342,20.1100437 226.963178,11.3045934 226.283059,6.35810435 C223.050501,5.7531876 217.778139,5.63253481 214.428785,5.57083109 L202.85686,5.37910885 L164.157338,4.85269905 C128.50003,4.4934953 92.8399674,4.50699299 57.1829348,4.89374304 L26.0903242,5.24578475 C20.4628906,5.32566902 14.7285773,5.3251181 9.12593532,5.8655765 C7.96485878,5.97741448 5.87133998,5.58019684 5.20940239,6.74209977 C4.93449032,11.006267 5.09866626,17.375798 5.08957599,21.7928472 L5.14026118,51.7174947 L5.58954133,114.688612 C5.60634457,121.480428 5.66446727,128.272519 5.76446034,135.063784 L119.732318,134.874816 L152.648494,134.803747 L162.234331,134.791626 C163.244729,134.789698 166.100454,134.837078 166.972019,134.715598 C168.011065,136.009173 167.865621,135.409214 169.339348,135.768694 C171.151068,136.210536 174.691319,135.045603 175.889583,135.919923 C176.05183,136.282707 175.945502,136.488754 175.844682,136.880738 L175.478316,138.220865 C175.381629,138.686949 175.173103,139.560993 175.155198,140.002009 C172.511855,139.832048 168.175517,139.959588 165.435762,139.959588 L146.807577,139.962893 L52.7025291,139.870062 L19.2194506,139.871439 C14.9034963,139.867307 10.6346462,139.865379 6.25809003,139.930939 C3.61750171,139.970331 1.24989723,138.98252 0.0491540117,136.378293 C-0.102626101,136.048839 0.130966523,135.716631 0.291285989,135.444198 C1.31793659,134.721934 2.32585571,134.974258 3.58251791,135.07067 Z" id="Path" fill="#272627"></path>
            <path d="M3.11367989,137.181268 C8.20699076,137.291728 13.9052184,137.165842 19.0337885,137.164189 L53.4035825,137.137194 L175.844682,136.880738 L175.478316,138.220865 C174.887999,138.191942 174.297131,138.172659 173.706263,138.162467 C161.807914,137.97708 149.5432,138.149796 137.607939,138.161641 L80.3116347,138.104344 L30.3666118,138.090296 C22.4244626,138.093877 14.4823134,138.111506 6.54016414,138.086439 C6.17187011,138.085062 5.94433767,138.376226 5.71239783,138.621939 C5.27551351,138.58668 3.60758505,137.475187 3.11367989,137.181268 Z" id="Path" fill="#9B9A9B"></path>
            <path d="M200.912917,136.895337 L217.149533,136.915997 C219.184929,136.923985 224.80465,136.815453 226.475884,137.253439 L226.519682,137.395578 C225.083418,137.772687 220.76526,137.816761 219.145813,137.864691 C212.967178,138.013992 206.787166,138.093877 200.606602,138.103518 C200.558396,137.341863 200.55151,137.420094 200.912917,136.895337 Z" id="Path" fill="#9B9A9B"></path>
            <path d="M12.8220979,3.21947893 C22.4343792,2.31375658 32.7557024,2.2696825 42.4429097,2.21817092 L77.6140256,2.18263619 L182.733461,2.25453204 C192.817886,2.24296259 202.90176,2.36802279 212.982604,2.62998811 C215.989558,2.75862933 218.993758,2.93575204 221.994927,3.1616317 C222.978605,3.22691643 226.143951,3.46574285 227.057386,3.3514257 L226.808367,3.58639564 L226.86346,3.6894188 C227.031768,4.01005774 227.094023,4.0825045 227.123497,4.451074 C224.693087,4.47200919 221.354751,3.82384475 218.821593,3.69933547 C214.477817,3.48585165 210.163791,3.50788869 205.82029,3.49301368 L138.951647,2.8958099 C112.439986,2.7357659 85.9272234,2.80187702 59.4163888,3.0938678 L29.181019,3.24812708 C24.0689767,3.28283542 18.4498069,3.15033771 13.4193016,3.53571045 L12.8220979,3.21947893 Z" id="Path" fill="#9B9A9B"></path>
            <path d="M227.057386,3.3514257 C228.003877,3.30349514 228.628351,3.34701829 229.579525,3.41533312 C230.338701,7.36023874 230.289944,16.2235362 230.275345,20.4697984 C230.323,35.5965736 230.276447,50.7233487 230.135685,65.8492975 C229.658032,68.7339461 230.198766,71.969259 229.833777,74.8792501 C229.79356,75.1987872 229.445926,75.4315534 229.210405,75.6023405 C228.842111,76.4463591 229.126664,77.0182203 228.965243,77.7889658 C228.961111,76.630093 229.007939,73.8399282 228.869106,72.77306 C228.697217,67.4924343 228.943757,60.9419242 228.986729,55.5847198 L229.027222,27.7770054 C229.022814,21.3680832 229.110412,12.8064177 228.352062,6.45203723 C228.069712,5.4151945 228.146016,4.8515972 227.123497,4.451074 C227.094023,4.0825045 227.031768,4.01005774 226.86346,3.6894188 L226.808367,3.58639564 L227.057386,3.3514257 Z" id="Path" fill="url(#linearGradient-1)"></path>
            <path d="M227.057386,3.3514257 C228.003877,3.30349514 228.628351,3.34701829 229.579525,3.41533312 C230.338701,7.36023874 230.289944,16.2235362 230.275345,20.4697984 C229.617264,18.4079578 230.282231,6.6167641 229.422236,5.5424584 C228.938523,5.83885659 228.745423,6.06198162 228.352062,6.45203723 C228.069712,5.4151945 228.146016,4.8515972 227.123497,4.451074 C227.094023,4.0825045 227.031768,4.01005774 226.86346,3.6894188 L226.808367,3.58639564 L227.057386,3.3514257 Z" id="Path" fill="#DCDBDB"></path>
            <path d="M228.869106,72.77306 C229.007939,73.8399282 228.961111,76.630093 228.965243,77.7889658 C229.126664,77.0182203 228.842111,76.4463591 229.210405,75.6023405 C229.445926,75.4315534 229.79356,75.1987872 229.833777,74.8792501 C230.198766,71.969259 229.658032,68.7339461 230.135685,65.8492975 C230.308676,71.1155992 230.062687,77.2162782 229.997953,82.5371215 L229.52581,115.956844 L229.27321,131.919649 C229.254203,132.805813 229.449507,134.209022 229.275965,134.96324 C228.827511,135.402603 229.048983,135.27892 228.433599,135.427119 C227.528428,135.073976 227.68737,134.164122 227.716569,133.287598 C227.883775,128.285466 227.982115,123.28719 228.069437,118.283404 L228.595296,87.529062 L228.721182,78.211526 C228.737986,76.7344934 228.698594,74.128338 228.869106,72.77306 Z" id="Path" fill="#9B9A9B"></path>
            <path d="M13.4193016,3.53571045 C12.1543755,3.68528686 8.32103244,4.30562953 7.32826379,4.01363875 L7.45442584,3.81144891 C8.46757875,3.27815254 11.5805861,3.27043958 12.8220979,3.21947893 L13.4193016,3.53571045 Z" id="Path" fill="#9B9A9B"></path>
            <path d="M43.1197223,103.715543 C45.3013893,103.630976 50.7715335,103.583872 52.9655963,103.727388 C51.8651216,103.91553 50.4685242,103.846939 49.3300356,103.833166 C49.4696954,107.259099 49.4066144,110.945896 49.4008296,114.395244 C63.6640283,114.391112 77.927227,114.299658 92.1893238,114.121434 C96.427873,114.063311 100.665871,113.977367 104.90442,114.070748 C105.381522,114.081216 105.85587,114.023644 106.324432,113.937424 C106.378423,113.519822 106.412029,112.670845 106.973148,112.613549 C108.762004,112.431468 110.533507,114.661617 109.316511,116.245529 C108.817923,116.894244 108.035057,117.648186 107.219687,117.806302 C105.977349,117.508802 106.705122,116.196772 106.17458,116.179142 C103.41389,116.088515 100.538056,116.237816 97.7746116,116.254619 L66.5486768,116.53449 C64.1923663,116.556802 48.5361513,116.956774 47.492422,116.100084 C46.9227645,114.805684 47.1869335,105.968555 47.2031858,103.826555 C45.8462551,103.827106 44.4670118,103.860712 43.1197223,103.715543 Z" id="Path" fill="#647D93"></path>
            <path d="M159.751858,9.61077145 C164.344377,9.2887552 169.546221,9.57964413 174.209534,10.7310795 C185.031373,13.403897 181.998801,30.7599942 174.621076,35.4453444 C172.783186,36.6124811 172.028418,35.1291128 171.480247,33.5840409 C169.618668,36.7441524 167.5706,36.3447311 166.398781,32.9645246 C165.856669,34.1090734 164.792556,36.3981709 163.017472,35.6042865 C161.846479,35.0806314 161.4724,33.3997561 161.119532,32.2345476 C160.560618,33.2634019 159.990685,34.3523072 159.077525,35.1227772 C158.470129,35.7618514 156.690913,36.1166477 156.269455,35.0809068 C155.352714,32.8270686 156.634995,28.531774 157.201346,26.2939126 C156.650696,26.4525793 156.008592,26.6500862 155.436455,26.7200538 C155.013895,26.77129 154.123323,25.9936579 153.890557,26.1143107 C152.992547,26.5798432 152.534177,26.8765168 151.517994,27.0737483 L151.327373,27.1090076 C151.619915,40.3403219 142.750282,37.4650391 145.404368,25.3204263 C145.210993,25.3559611 144.083247,25.5311555 144.054324,25.7553824 C143.719085,28.3392254 143.973338,34.439078 140.875205,35.5637935 C140.393421,35.7433953 139.856819,35.6995967 139.410569,35.4439671 C138.250594,34.7809276 138.030499,32.8953834 137.666612,31.602911 C137.500784,32.8824366 137.531911,35.3759277 136.116307,35.7238375 C133.633283,34.6864438 135.417181,25.3482481 134.145093,24.0555002 C133.336334,24.8813383 133.371593,27.2943942 132.205558,27.5406581 C130.476753,26.2754566 132.915151,20.7857544 134.858267,22.1523264 C136.098677,23.0247177 136.309131,26.8638455 136.483774,28.3240749 C136.689821,27.0059844 136.8708,24.3538267 138.28723,24.0260257 C140.257342,25.2758013 138.563244,33.3970015 140.53914,33.6383071 C142.451956,32.2662259 142.432949,27.7579984 142.45168,25.6385861 C141.296388,24.9452457 139.506154,23.6392757 140.945999,22.2209167 C142.485838,21.4898379 143.23124,22.9104006 143.821007,24.0549493 C147.232065,22.9437316 149.372137,18.4310967 151.057144,25.4270305 C154.809501,24.325454 152.699455,23.3076182 154.646703,21.7297661 C154.958251,21.652361 155.121876,21.555949 155.416897,21.7553842 C157.021194,22.839882 156.054043,24.1634817 155.354918,25.3242828 C156.322069,24.7540744 157.432184,23.9075766 158.513652,24.1039817 C159.371444,25.1028106 157.605726,31.9050939 157.50959,34.2547933 C158.636509,33.3887376 160.885664,30.2950127 160.991166,28.9678319 C161.212088,26.1897876 161.066368,23.7285257 161.579831,20.9267915 C162.171525,17.6969878 164.717079,17.1347678 164.701653,20.6744674 C164.788975,25.1733291 161.599664,28.9265125 163.397887,33.3914922 C163.532037,33.7239761 163.638641,33.6829321 163.930081,33.7515224 C166.388037,32.2513509 166.712257,23.6874817 169.867411,22.4151181 C169.940408,22.3856435 170.349195,22.6371413 170.920506,22.4575394 C171.524321,21.6242638 171.560957,17.0805016 173.919196,18.3016291 C175.509719,20.5295738 173.209052,27.0043317 172.837177,29.5969894 C172.688427,30.6352095 173.268277,33.1248441 173.546219,34.1421289 C174.548353,33.5308765 175.402013,32.6281843 176.101138,31.6940892 C178.732361,28.1789059 180.005826,23.175396 179.362896,18.8261107 C179.05906,16.7714321 178.167386,14.8743185 176.452905,13.6344595 C168.673554,8.00812772 134.770119,13.9922859 124.538872,15.6599389 C116.705255,16.7331428 99.0612993,20.5747498 92.1284465,18.9842264 C88.0986983,21.045516 80.6961811,21.2854443 76.4044675,19.8943562 C70.2842306,17.9107471 66.2385055,15.5340523 60.2722524,19.6516733 C60.2160579,24.3753128 59.2563448,28.9072301 59.7863357,33.8325085 C60.7342038,32.484668 62.2707365,29.5631075 62.557218,27.9095031 C62.9811555,25.4614634 62.9555375,19.3335135 65.1060771,17.8402286 C67.4910358,17.4876359 66.264399,21.4912152 66.3773389,22.3693912 C66.8814361,22.3137477 67.8722766,22.1404815 68.16289,22.4861875 C69.7594736,24.3871577 69.1424364,31.3817142 69.421205,34.1002585 C70.4508857,31.4525082 71.1568974,22.9478635 73.4021963,22.0994375 C76.2491064,22.6200626 73.8305412,32.2687051 75.3312637,33.6628233 C76.3727893,33.3443881 77.7655302,29.2565171 78.213433,28.1138966 C77.5694005,26.3605746 76.5289768,23.7968405 78.3459307,22.2366181 C78.5930211,22.0245115 79.1202572,21.871905 79.4403452,21.9933842 C81.8203456,22.8969029 79.4632087,27.0125956 80.2196301,28.2254591 C81.2085422,27.9833272 81.9305308,25.9647343 83.0907809,26.23882 C84.0863042,27.4987877 81.5360677,29.5653112 80.6567898,30.4792974 C80.9807343,31.6814179 82.2916628,35.8293398 79.1822364,35.8745157 C78.8530581,35.9450343 77.4313936,34.4922424 77.2600556,34.6239137 C76.4030902,35.18393 75.2026224,36.5108353 74.1891941,35.4626985 C73.7680111,35.0271915 73.4680319,34.1746336 73.3776801,33.5595247 C72.9956129,30.9519919 73.2055157,28.1003989 73.2195643,25.4700028 C72.7008675,27.5288132 71.7447354,35.6918838 69.1989064,35.8208004 C66.4668643,34.9294022 68.0482974,25.4821231 67.2651561,24.4072665 C66.2343736,25.278556 64.8344706,33.49727 64.4433131,35.042342 C64.3411164,35.4458953 64.0987089,35.5615898 63.7731117,35.6808652 C62.467968,35.21368 62.441248,34.1572794 62.3418059,32.9868371 C61.6115535,34.0663766 60.9669701,35.4376314 59.4957222,35.4447934 C56.6846223,34.4889368 58.4192128,23.0877987 58.6944003,20.3130599 L56.7510089,20.84856 C56.7567936,21.0218262 56.7606501,21.1953679 56.7625783,21.3686341 C56.7708422,22.2322106 56.723738,23.4489307 55.5775365,23.4070603 C54.8178095,22.6679931 55.0817031,22.0721666 55.1888582,21.049648 C53.5537098,21.0719605 51.2938114,21.1631387 49.9944524,20.0747844 C48.2562809,18.6192379 49.8134732,16.713034 51.7772489,16.8863002 C53.7368927,17.0595664 54.9651822,17.8730087 56.2829972,19.2310413 C58.6313193,18.5062981 59.4866319,18.041592 61.6605859,16.8460826 C65.1641998,14.9194944 68.7876401,15.7971195 72.4339438,16.8521428 C72.4609392,16.6626243 72.4928929,16.4736566 72.5295295,16.2857909 C72.7421869,15.2169944 74.037414,14.133323 74.9883122,14.5316425 C76.862838,15.316712 76.0425091,16.8425016 75.8918309,17.8859554 C77.5851019,19.4544418 88.1099922,19.2483954 90.1878096,18.0121175 C90.7475505,17.6790827 89.9418212,15.209006 91.0756269,14.8186749 C94.3844885,13.6801864 93.3694073,16.4282052 93.9200578,17.5485133 C94.5891575,17.7121383 95.9975998,17.6553929 96.7237203,17.6352841 C105.113772,17.4030688 113.815924,15.6423093 122.161351,14.3220151 C128.51215,13.3077604 134.869836,12.3381306 141.234409,11.4125749 C147.37806,10.5465193 153.55642,9.94518353 159.751858,9.61077145 Z" id="Path" fill="#647D93"></path>
            <path d="M148.231996,23.6318382 C148.876855,23.7582757 149.753378,24.6317688 149.255892,25.1804911 C148.965829,24.9700374 148.902748,24.8865721 148.552635,24.8080652 L148.331438,25.2099657 C148.362565,26.1729843 148.967757,26.6682668 149.624737,27.3318572 C149.829957,29.5749524 149.678452,31.2833739 148.788431,33.3421844 C148.560623,33.6300432 148.471098,33.6564876 148.16313,33.8506891 C145.990829,33.5570455 146.648083,27.5794984 146.993239,26.0809797 C147.251072,24.9614981 147.485766,24.4821924 148.231996,23.6318382 Z" id="Path" fill="#FFFFFF"></path>
            <path d="M169.694971,24.7436068 C170.097422,25.1915097 170.200721,25.2485305 170.729885,25.5523662 L170.870371,25.6316995 C171.871404,27.63101 170.567362,32.2023185 169.275992,33.8515155 L168.944059,33.8504136 C166.677549,32.3480384 168.84682,26.5872807 169.694971,24.7436068 Z" id="Path" fill="#FFFFFF"></path>
            <path d="M50.8354409,18.5046453 C51.8981772,18.4393606 53.4013788,18.6555991 54.0960965,19.5373561 C53.1132445,19.4431478 51.3133692,19.4417705 50.8354409,18.5046453 Z" id="Path" fill="#FFFFFF"></path>
            <path d="M125.553402,21.9143263 C129.232762,21.9969652 126.113419,30.3853645 125.686451,32.4006518 C126.446453,31.6574527 127.70587,30.1564548 128.776044,30.2669154 C129.119271,30.664684 129.015421,30.4919687 129.123954,31.0307743 C128.780176,31.9976495 126.415326,33.9685872 125.502717,34.8861545 C125.288682,36.6474649 125.101919,39.4811528 124.045518,40.912734 C123.628191,41.4680674 122.995728,41.8209355 122.304041,41.8840165 C120.978513,41.9939263 120.671096,40.9408312 120.689277,39.8510996 C120.714619,38.3445924 122.627985,36.970583 122.615589,35.660481 C122.100198,35.4602194 121.537703,35.5359717 121.335513,35.2751082 C119.835892,33.3391543 120.454858,27.0106673 120.211624,24.2794517 C119.32298,27.5478202 118.991874,31.844492 117.601336,34.9949624 C117.417878,35.4103606 116.912128,35.678937 116.462848,35.7968352 C114.127473,35.3577471 114.582813,26.4272367 114.474556,24.131528 L114.447285,24.2238081 C113.859998,26.3159496 113.842368,35.8814023 112.159289,35.7221847 C110.553616,33.8931104 111.831488,26.3151232 110.789412,24.8380906 L110.612289,25.178012 C110.118109,28.1913017 110.175129,31.5089781 109.601065,34.5233697 C109.4884,35.1150642 109.312104,35.3525133 108.819301,35.6508398 C108.539981,35.6615828 108.422634,35.7150226 108.174993,35.5624161 C106.707601,34.6594484 106.987747,25.7154403 106.575104,23.524683 C105.866613,24.8829911 105.726677,25.8440815 105.307974,27.3197368 C104.927559,27.6293572 105.107712,27.548922 104.539156,27.5431373 C103.079754,26.2614079 105.031409,20.9132938 107.267067,22.3258681 C108.219342,22.9272038 108.412442,24.4529934 108.629507,25.4846023 C108.814067,24.3447364 109.254808,21.6628286 111.217757,22.3889491 C111.946632,22.6586274 112.292614,23.908403 112.476898,24.6281878 C112.787621,23.8356808 113.117901,22.5837014 114.023899,22.3233889 C115.548035,21.8479398 115.955721,24.1513614 116.038359,25.2234634 C116.259005,28.0841466 116.249915,31.0241632 116.339991,33.895865 C117.258936,31.2869549 117.977619,22.8905672 120.3163,22.1553565 C121.148474,22.211 121.634666,22.7277686 121.7443,23.5712363 C122.201293,27.0933062 121.76799,30.4787465 122.300735,34.0256081 C126.02472,29.3080287 123.083326,24.9518568 125.553402,21.9143263 Z" id="Path" fill="#647D93"></path>
            <path d="M19.4726011,45.844899 C23.0021085,45.7247971 27.7789124,47.2156029 29.5581279,50.5274945 C30.3068363,51.9301521 30.4588919,53.5752172 29.9801372,55.0913655 C29.3355538,57.1341991 27.9111346,58.3500928 26.0994145,59.3191717 C26.0804075,60.4204727 26.4767988,63.0718041 25.5460093,63.5825125 C24.14831,63.6469708 23.3246757,63.6078551 21.9385458,63.515575 C21.8167912,62.0322067 21.6928328,55.7012406 22.2556038,54.6219766 C23.1668354,54.3853539 23.9384072,55.4668216 24.9463263,54.6112335 C25.2041597,54.4297034 25.4088287,53.9961246 25.3650301,53.6854024 C25.1432824,51.2974136 20.0381266,53.5220528 19.5422932,52.7667333 C19.164358,52.1907401 19.2927237,46.5137232 19.4726011,45.844899 Z" id="Path" fill="#272627"></path>
            <path d="M193.822775,9.19206769 C193.962435,9.1986788 194.035157,9.19619964 194.179224,9.23448899 C194.394912,9.29206076 194.629331,9.42869041 194.738139,9.62096358 C195.330935,10.6671721 191.541941,28.7736305 190.926557,31.2726308 C190.422735,31.6467096 190.329904,31.5354225 189.626372,31.5756401 C189.188385,31.3043091 188.772436,30.988904 188.554821,30.5035381 C187.992601,29.2490796 189.509024,13.4796493 190.144518,11.8260449 C190.676712,10.4415679 192.566664,9.76668351 193.822775,9.19206769 Z" id="Path" fill="#647D93"></path>
            <path d="M96.4229147,21.917081 C100.268654,22.4501019 95.966197,28.1229869 97.9982876,29.0854546 C99.17479,28.9843597 100.212184,27.801797 101.146003,28.2474962 C101.31376,28.676943 101.299712,28.6576606 101.212665,29.0832509 C100.645762,29.8410496 98.9764567,30.6938831 98.0850584,31.2070707 C98.4500469,32.8221102 99.1447646,36.8317496 95.8466461,35.5323907 C95.3833173,35.3497587 95.0125441,34.8839508 94.5431551,34.6836892 C90.0756962,39.5905116 90.9527704,27.2186419 90.963238,25.3741416 L90.8682033,23.402102 C90.3406916,24.4951392 89.8781892,27.1652021 88.8873488,27.4704151 L88.6027955,27.1982576 C87.8967839,25.3746926 89.012409,20.9210068 91.6846756,22.3842662 C93.0774165,23.9962757 92.5394373,31.1247072 92.8474049,33.9082608 L92.8744003,34.1421289 C94.1685255,32.3824713 94.9737038,30.0275381 95.7094655,27.9836026 C94.8819746,25.7713593 94.0539329,23.4373613 96.4229147,21.917081 Z" id="Path" fill="#647D93"></path>
            <path d="M21.8765667,64.47942 C23.355803,64.4077997 24.6014467,64.4485682 26.0793057,64.4962233 L26.0614006,67.4580015 C24.8912337,67.6130871 23.0759326,67.5535871 21.8509486,67.550557 C21.8512241,66.5269365 21.8597634,65.5030405 21.8765667,64.47942 Z" id="Path" fill="#272627"></path>
            <path d="M188.676024,32.9433139 C189.304906,32.7290037 189.99136,33.0449598 190.238175,33.6619969 C190.484714,34.279034 190.205395,34.9814647 189.602131,35.2599578 C189.182876,35.4533328 188.691175,35.399893 188.323432,35.1205735 C187.955964,34.841254 187.77223,34.3817817 187.846054,33.9261659 C187.919878,33.4702747 188.23914,33.0923394 188.676024,32.9433139 Z" id="Path" fill="#647D93"></path>
        </g>
    </g>
</svg>